<!--
  - Copyright (c) 2025 周潮. All rights reserved.
  - Licensed under the Apache License, Version 2.0 (the "License");
  -  you may not use this file except in compliance with the License.
  -  You may obtain a copy of the License at
  -
  -       https://www.apache.org/licenses/LICENSE-2.0
  -
  -  Unless required by applicable law or agreed to in writing, software
  -  distributed under the License is distributed on an "AS IS" BASIS,
  -  WITHOUT WARRANTIES OR CONDITIONS OF ANY KIND, either express or implied.
  -  See the License for the specific language governing permissions and
  -  limitations under the License.
  -->

<svg xmlns="http://www.w3.org/2000/svg" width="256" height="256" viewBox="0 0 256 256" fill="none">
<path     fill="#FFC300"  d="M56.248 117.153L24.428 85.3233C24.3561 85.2506 24.2863 85.1793 24.218 85.1033C24.1497 85.0271 24.0825 84.9526 24.018 84.8733C23.9535 84.7938 23.8886 84.7156 23.828 84.6333C23.7674 84.5508 23.7045 84.4586 23.648 84.3733C23.5915 84.2881 23.5403 84.2111 23.488 84.1233C23.4357 84.0353 23.3859 83.9436 23.338 83.8533C23.2901 83.7628 23.2414 83.6658 23.198 83.5733C23.1545 83.4808 23.1169 83.3878 23.078 83.2933C23.0391 83.1988 23.0022 83.1096 22.968 83.0133C22.9338 82.9168 22.8975 82.8113 22.868 82.7133C22.8385 82.6153 22.8127 82.5226 22.788 82.4233C22.7633 82.3241 22.7478 82.2236 22.728 82.1233C22.7082 82.0228 22.6829 81.9243 22.668 81.8233C22.6531 81.7221 22.638 81.6148 22.638 81.5133C22.638 81.4113 22.608 81.3153 22.608 81.2133C22.608 81.1113 22.608 81.0056 22.608 80.9033C22.608 80.8008 22.608 80.6953 22.608 80.5933C22.608 80.4911 22.638 80.3951 22.638 80.2933C22.638 80.1916 22.6531 80.0843 22.668 79.9833C22.6829 79.8821 22.7082 79.7836 22.728 79.6833C22.7478 79.5828 22.7633 79.4823 22.788 79.3833C22.8127 79.2838 22.8385 79.1911 22.868 79.0933C22.8975 78.9953 22.9338 78.8998 22.968 78.8033C23.0022 78.7068 23.0391 78.6078 23.078 78.5133C23.1169 78.4188 23.1545 78.3258 23.198 78.2333C23.2414 78.1408 23.2901 78.0436 23.338 77.9533C23.3859 77.8628 23.4357 77.7811 23.488 77.6933C23.5403 77.6053 23.5915 77.5183 23.648 77.4333C23.7045 77.3478 23.7674 77.2656 23.828 77.1833C23.8886 77.1008 23.9535 77.0126 24.018 76.9333C24.0825 76.8538 24.1497 76.7793 24.218 76.7033C24.2863 76.6271 24.3561 76.5558 24.428 76.4833C24.5007 76.4113 24.5719 76.3416 24.648 76.2733C24.7241 76.2051 24.7987 76.1378 24.878 76.0733C24.9573 76.0086 25.0356 75.9438 25.118 75.8833C25.2003 75.8226 25.2927 75.7598 25.378 75.7033C25.4632 75.6468 25.55 75.5956 25.638 75.5433C25.7258 75.4908 25.8077 75.4411 25.898 75.3933C25.9883 75.3453 26.0855 75.2966 26.178 75.2533C26.2705 75.2098 26.3633 75.1723 26.458 75.1333C26.5525 75.0943 26.6417 75.0573 26.738 75.0233C26.8343 74.9888 26.94 74.9528 27.038 74.9233C27.1358 74.8938 27.2287 74.8678 27.328 74.8433C27.4272 74.8186 27.5277 74.8031 27.628 74.7833C27.7283 74.7633 27.8268 74.7381 27.928 74.7233C28.0292 74.7083 28.1363 74.6933 28.238 74.6933C28.3398 74.6933 28.4358 74.6633 28.538 74.6633C28.64 74.6633 28.7457 74.6633 28.848 74.6633C28.9503 74.6633 29.056 74.6633 29.158 74.6633C29.2602 74.6633 29.3562 74.6933 29.458 74.6933C29.5597 74.6933 29.6668 74.7083 29.768 74.7233C29.8692 74.7381 29.9677 74.7633 30.068 74.7833C30.1683 74.8031 30.2688 74.8186 30.368 74.8433C30.4673 74.8678 30.5602 74.8938 30.658 74.9233C30.756 74.9528 30.8617 74.9888 30.958 75.0233C31.0543 75.0573 31.1435 75.0943 31.238 75.1333C31.3327 75.1723 31.4255 75.2098 31.518 75.2533C31.6105 75.2966 31.7077 75.3453 31.798 75.3933C31.8883 75.4411 31.97 75.4908 32.058 75.5433C32.1458 75.5956 32.2328 75.6468 32.318 75.7033C32.4033 75.7598 32.4957 75.8226 32.578 75.8833C32.6603 75.9438 32.7387 76.0088 32.818 76.0733C32.8973 76.1378 32.9718 76.2051 33.048 76.2733C33.124 76.3416 33.1953 76.4113 33.268 76.4833L65.098 108.303C67.522 110.727 67.522 114.705 65.098 117.153C65.0252 117.225 64.954 117.295 64.878 117.363C64.8017 117.431 64.7172 117.499 64.638 117.563C64.5587 117.628 64.4802 117.693 64.398 117.753C64.3158 117.814 64.2332 117.867 64.148 117.923C64.0627 117.98 63.9757 118.031 63.888 118.083C63.8 118.136 63.7082 118.195 63.618 118.243C63.5277 118.291 63.4405 118.33 63.348 118.373C63.2555 118.417 63.1627 118.464 63.068 118.503C62.9735 118.542 62.8742 118.579 62.778 118.613C62.6817 118.648 62.586 118.674 62.488 118.703C62.3902 118.733 62.2872 118.759 62.188 118.783C62.0887 118.808 61.9882 118.833 61.888 118.853C61.7877 118.873 61.6892 118.888 61.588 118.903C61.4867 118.918 61.3897 118.933 61.288 118.943C61.1862 118.943 61.0802 118.963 60.978 118.963C60.8757 118.963 60.7702 118.973 60.668 118.973C60.5657 118.973 60.47 118.963 60.368 118.963C60.2657 118.963 60.1597 118.943 60.058 118.943C59.9562 118.933 59.8592 118.918 59.758 118.903C59.6567 118.888 59.5582 118.873 59.458 118.853C59.3577 118.833 59.2572 118.808 59.158 118.783C59.0587 118.759 58.9557 118.733 58.858 118.703C58.76 118.674 58.6642 118.648 58.568 118.613C58.4717 118.579 58.3725 118.542 58.278 118.503C58.1832 118.464 58.0905 118.417 57.998 118.373C57.9055 118.33 57.8182 118.291 57.728 118.243C57.6377 118.195 57.5457 118.136 57.458 118.083C57.37 118.031 57.2832 117.98 57.198 117.923C57.1127 117.867 57.0302 117.814 56.948 117.753C56.8657 117.693 56.7872 117.628 56.708 117.563C56.6287 117.499 56.5442 117.431 56.468 117.363C56.392 117.295 56.3207 117.225 56.248 117.153ZM73.508 147.073C73.508 146.971 73.498 146.865 73.498 146.763C73.498 146.661 73.4782 146.565 73.468 146.463C73.4577 146.362 73.4532 146.254 73.438 146.153C73.4227 146.052 73.3982 145.953 73.378 145.853C73.3577 145.753 73.343 145.652 73.318 145.553C73.293 145.454 73.2577 145.361 73.228 145.263C73.1982 145.166 73.1727 145.069 73.138 144.973C73.1035 144.877 73.0672 144.778 73.028 144.683C72.9887 144.589 72.9417 144.496 72.898 144.403C72.8542 144.311 72.8062 144.223 72.758 144.133C72.7097 144.043 72.6607 143.951 72.608 143.863C72.5552 143.776 72.5047 143.688 72.448 143.603C72.3913 143.518 72.329 143.435 72.268 143.353C72.2072 143.271 72.1427 143.192 72.078 143.113C72.013 143.034 71.9465 142.959 71.878 142.883C71.8092 142.808 71.7402 142.735 71.668 142.663C71.5957 142.591 71.5237 142.512 71.448 142.443C71.3722 142.375 71.2967 142.308 71.218 142.243C71.139 142.178 71.06 142.124 70.978 142.063C70.8957 142.002 70.8127 141.94 70.728 141.883C70.643 141.827 70.5555 141.766 70.468 141.713C70.3802 141.661 70.288 141.611 70.198 141.563C70.1077 141.515 70.0202 141.477 69.928 141.433C69.8357 141.389 69.7422 141.343 69.648 141.303C69.5537 141.264 69.4542 141.228 69.358 141.193C69.2617 141.159 69.1657 141.123 69.068 141.093C68.9702 141.063 68.867 141.038 68.768 141.013C68.6687 140.988 68.5782 140.963 68.478 140.943C68.3777 140.923 68.269 140.908 68.168 140.893C68.067 140.878 67.9697 140.864 67.868 140.853C67.7663 140.843 67.6602 140.833 67.558 140.833C67.456 140.833 67.3602 140.823 67.258 140.823L22.258 140.823C22.1557 140.823 22.0501 140.833 21.948 140.833C21.8459 140.833 21.7497 140.843 21.648 140.853C21.5462 140.863 21.4391 140.878 21.338 140.893C21.2368 140.908 21.1383 140.923 21.038 140.943C20.9377 140.963 20.8372 140.988 20.738 141.013C20.6388 141.038 20.5358 141.064 20.438 141.093C20.3401 141.123 20.2443 141.159 20.148 141.193C20.0517 141.228 19.9625 141.264 19.868 141.303C19.7735 141.342 19.6804 141.38 19.588 141.423C19.4956 141.467 19.3982 141.515 19.308 141.563C19.2178 141.611 19.1357 141.661 19.048 141.713C18.9603 141.766 18.873 141.816 18.788 141.873C18.703 141.93 18.6201 141.992 18.538 142.053C18.4559 142.114 18.367 142.178 18.288 142.243C18.209 142.308 18.1338 142.375 18.058 142.443C17.9822 142.512 17.9103 142.581 17.838 142.653C17.7657 142.726 17.6967 142.798 17.628 142.873C17.5593 142.949 17.4929 143.034 17.428 143.113C17.3631 143.192 17.2989 143.271 17.238 143.353C17.1771 143.435 17.1148 143.518 17.058 143.603C17.0012 143.688 16.9506 143.775 16.898 143.863C16.8454 143.951 16.7962 144.033 16.748 144.123C16.6998 144.213 16.6517 144.311 16.608 144.403C16.5643 144.496 16.5271 144.589 16.488 144.683C16.4489 144.778 16.4124 144.867 16.378 144.963C16.3435 145.06 16.3077 145.165 16.278 145.263C16.2483 145.361 16.2228 145.454 16.198 145.553C16.1731 145.653 16.1479 145.753 16.128 145.853C16.108 145.954 16.093 146.052 16.078 146.153C16.063 146.254 16.048 146.362 16.038 146.463C16.028 146.565 16.018 146.661 16.018 146.763C16.018 146.865 16.008 146.971 16.008 147.073C16.008 147.176 16.018 147.281 16.018 147.383C16.018 147.485 16.028 147.581 16.038 147.683C16.048 147.785 16.063 147.892 16.078 147.993C16.093 148.094 16.108 148.193 16.128 148.293C16.1479 148.393 16.1731 148.494 16.198 148.593C16.2228 148.693 16.2483 148.785 16.278 148.883C16.3077 148.981 16.3435 149.077 16.378 149.173C16.4124 149.27 16.4489 149.369 16.488 149.463C16.5271 149.558 16.5643 149.651 16.608 149.743C16.6517 149.836 16.6998 149.923 16.748 150.013C16.7962 150.103 16.8454 150.196 16.898 150.283C16.9506 150.371 17.0012 150.458 17.058 150.543C17.1148 150.628 17.1771 150.711 17.238 150.793C17.2989 150.875 17.3631 150.954 17.428 151.033C17.4929 151.112 17.5593 151.187 17.628 151.263C17.6967 151.339 17.7657 151.421 17.838 151.493C17.9103 151.566 17.9822 151.635 18.058 151.703C18.1338 151.772 18.209 151.838 18.288 151.903C18.367 151.968 18.4559 152.032 18.538 152.093C18.6201 152.154 18.703 152.206 18.788 152.263C18.873 152.32 18.9603 152.381 19.048 152.433C19.1357 152.486 19.2178 152.535 19.308 152.583C19.3982 152.631 19.4956 152.68 19.588 152.723C19.6804 152.767 19.7735 152.804 19.868 152.843C19.9625 152.882 20.0517 152.919 20.148 152.953C20.2443 152.988 20.3401 153.024 20.438 153.053C20.5358 153.083 20.6388 153.108 20.738 153.133C20.8372 153.158 20.9377 153.183 21.038 153.203C21.1383 153.223 21.2368 153.238 21.338 153.253C21.4391 153.268 21.5462 153.293 21.648 153.293C21.7497 153.303 21.8459 153.313 21.948 153.313C22.0501 153.313 22.1557 153.323 22.258 153.323L67.258 153.323C70.706 153.323 73.508 150.521 73.508 147.073ZM69.648 182.973C69.5962 182.885 69.544 182.799 69.488 182.713C69.4323 182.628 69.3682 182.546 69.308 182.463C69.248 182.38 69.192 182.303 69.128 182.223C69.0642 182.143 68.9957 182.06 68.928 181.983C68.8602 181.907 68.7892 181.837 68.718 181.763C68.6465 181.69 68.5727 181.613 68.498 181.543C68.423 181.474 68.3462 181.409 68.268 181.343C68.1897 181.277 68.1092 181.215 68.028 181.153C67.9467 181.091 67.8722 181.031 67.788 180.973C67.7038 180.915 67.615 180.857 67.528 180.803C67.4412 180.749 67.3475 180.693 67.258 180.643C67.1685 180.594 67.0797 180.548 66.988 180.503C66.8962 180.458 66.8017 180.414 66.708 180.373C66.6142 180.333 66.5237 180.299 66.428 180.263C66.3322 180.227 66.2355 180.195 66.138 180.163C66.0407 180.132 65.9467 180.1 65.848 180.073C65.7492 180.047 65.6478 180.025 65.548 180.003C65.448 179.981 65.3487 179.96 65.248 179.943C65.1472 179.926 65.0397 179.915 64.938 179.903C64.8365 179.891 64.7402 179.873 64.638 179.873C64.536 179.873 64.4302 179.853 64.328 179.853C64.2257 179.853 64.1202 179.853 64.018 179.853C63.9157 179.853 63.82 179.873 63.718 179.873C63.6162 179.873 63.5095 179.89 63.408 179.903C63.3065 179.916 63.2087 179.936 63.108 179.953C63.0072 179.971 62.9077 179.991 62.808 180.013C62.7082 180.036 62.6065 180.056 62.508 180.083C62.4095 180.111 62.3152 180.141 62.218 180.173C62.121 180.205 62.0235 180.246 61.928 180.283C61.8327 180.32 61.7415 180.352 61.648 180.393C61.5545 180.435 61.4595 180.477 61.368 180.523C61.2767 180.569 61.187 180.623 61.098 180.673L22.118 203.173C22.0297 203.225 21.9436 203.277 21.858 203.333C21.7724 203.389 21.6908 203.453 21.608 203.513C21.5252 203.573 21.4378 203.629 21.358 203.693C21.2782 203.757 21.2046 203.826 21.128 203.893C21.0514 203.961 20.9812 204.032 20.908 204.103C20.8348 204.175 20.7576 204.248 20.688 204.323C20.6183 204.398 20.5539 204.475 20.488 204.553C20.4221 204.631 20.3601 204.712 20.298 204.793C20.2359 204.875 20.176 204.959 20.118 205.043C20.06 205.127 20.0019 205.206 19.948 205.293C19.8941 205.38 19.8376 205.474 19.788 205.563C19.7384 205.653 19.6932 205.742 19.648 205.833C19.6028 205.925 19.5587 206.019 19.518 206.113C19.4773 206.207 19.4441 206.298 19.408 206.393C19.3719 206.489 19.3394 206.586 19.308 206.683C19.2766 206.781 19.2446 206.885 19.218 206.983C19.1914 207.082 19.1698 207.173 19.148 207.273C19.1262 207.373 19.1049 207.482 19.088 207.583C19.0711 207.684 19.05 207.782 19.038 207.883C19.026 207.985 19.018 208.091 19.018 208.193C19.018 208.295 18.998 208.391 18.998 208.493C18.998 208.596 18.998 208.701 18.998 208.803C18.998 208.906 19.018 209.001 19.018 209.103C19.018 209.205 19.0352 209.312 19.048 209.413C19.0608 209.515 19.0803 209.612 19.098 209.713C19.1157 209.814 19.1354 209.914 19.158 210.013C19.1806 210.113 19.2006 210.215 19.228 210.313C19.2554 210.412 19.2858 210.506 19.318 210.603C19.3502 210.7 19.3911 210.798 19.428 210.893C19.4649 210.989 19.4965 211.09 19.538 211.183C19.5794 211.277 19.6221 211.362 19.668 211.453C19.7139 211.545 19.7677 211.634 19.818 211.723C21.546 214.699 25.368 215.729 28.368 214.033L67.348 191.523C67.4367 191.472 67.5217 191.419 67.608 191.363C67.6942 191.308 67.7747 191.253 67.858 191.193C67.9412 191.134 68.0277 191.077 68.108 191.013C68.1882 190.949 68.2607 190.881 68.338 190.813C68.415 190.746 68.4942 190.675 68.568 190.603C68.6417 190.532 68.718 190.458 68.788 190.383C68.858 190.309 68.9217 190.231 68.988 190.153C69.0542 190.075 69.1157 189.994 69.178 189.913C69.2405 189.832 69.2997 189.757 69.358 189.673C69.4162 189.589 69.4737 189.5 69.528 189.413C69.582 189.326 69.6382 189.233 69.688 189.143C69.7377 189.054 69.7827 188.965 69.828 188.873C69.8732 188.781 69.9172 188.687 69.958 188.593C69.9987 188.499 70.0417 188.409 70.078 188.313C70.114 188.217 70.1465 188.121 70.178 188.023C70.2092 187.926 70.2315 187.822 70.258 187.723C70.2847 187.624 70.3162 187.533 70.338 187.433C70.3597 187.333 70.3712 187.224 70.388 187.123C70.4047 187.022 70.4262 186.925 70.438 186.823C70.4497 186.721 70.458 186.615 70.458 186.513C70.458 186.411 70.478 186.316 70.478 186.213C70.478 186.111 70.478 186.006 70.478 185.903C70.478 185.801 70.458 185.695 70.458 185.593C70.458 185.491 70.4412 185.395 70.428 185.293C70.4147 185.192 70.3962 185.084 70.378 184.983C70.3597 184.882 70.3412 184.783 70.318 184.683C70.2947 184.583 70.266 184.482 70.238 184.383C70.2097 184.285 70.1807 184.19 70.148 184.093C70.1152 183.996 70.0755 183.899 70.038 183.803C70.0002 183.708 69.9603 183.617 69.918 183.523C69.8757 183.43 69.8347 183.334 69.788 183.243C69.7412 183.152 69.6892 183.062 69.638 182.973L69.648 182.973ZM190.928 108.293L222.748 76.4733C222.821 76.4013 222.902 76.3313 222.978 76.2633C223.054 76.1948 223.129 76.1278 223.208 76.0633C223.287 75.9986 223.366 75.9338 223.448 75.8733C223.53 75.8126 223.613 75.7596 223.698 75.7033C223.783 75.6468 223.87 75.5856 223.958 75.5333C224.046 75.4808 224.138 75.4311 224.228 75.3833C224.318 75.3353 224.415 75.2966 224.508 75.2533C224.6 75.2098 224.693 75.1623 224.788 75.1233C224.882 75.0843 224.972 75.0473 225.068 75.0133C225.164 74.9788 225.26 74.9528 225.358 74.9233C225.456 74.8938 225.559 74.8678 225.658 74.8433C225.757 74.8186 225.858 74.7931 225.958 74.7733C226.058 74.7533 226.157 74.7381 226.258 74.7233C226.359 74.7083 226.466 74.6933 226.568 74.6833C226.67 74.6833 226.766 74.6633 226.868 74.6633C226.97 74.6633 227.076 74.6533 227.178 74.6533C227.28 74.6533 227.376 74.6633 227.478 74.6633C227.58 74.6633 227.686 74.6833 227.788 74.6833C227.89 74.6933 227.987 74.7083 228.088 74.7233C228.189 74.7381 228.298 74.7533 228.398 74.7733C228.498 74.7931 228.599 74.8186 228.698 74.8433C228.797 74.8678 228.89 74.8938 228.988 74.9233C229.086 74.9528 229.182 74.9788 229.278 75.0133C229.374 75.0473 229.473 75.0843 229.568 75.1233C229.663 75.1623 229.755 75.2098 229.848 75.2533C229.94 75.2966 230.028 75.3353 230.118 75.3833C230.208 75.4311 230.3 75.4808 230.388 75.5333C230.476 75.5856 230.563 75.6468 230.648 75.7033C230.733 75.7596 230.816 75.8126 230.898 75.8733C230.98 75.9338 231.069 75.9986 231.148 76.0633C231.227 76.1278 231.302 76.1948 231.378 76.2633C231.454 76.3313 231.525 76.4013 231.598 76.4733C234.022 78.8973 234.022 82.8753 231.598 85.3233L199.748 117.143C199.675 117.215 199.604 117.285 199.528 117.353C199.452 117.421 199.377 117.489 199.298 117.553C199.219 117.618 199.14 117.683 199.058 117.743C198.976 117.804 198.883 117.857 198.798 117.913C198.713 117.97 198.626 118.031 198.538 118.083C198.45 118.136 198.368 118.185 198.278 118.233C198.188 118.281 198.09 118.32 197.998 118.363C197.906 118.407 197.813 118.454 197.718 118.493C197.623 118.532 197.534 118.569 197.438 118.603C197.342 118.638 197.236 118.664 197.138 118.693C197.04 118.723 196.947 118.749 196.848 118.773C196.749 118.798 196.648 118.823 196.548 118.843C196.448 118.863 196.349 118.878 196.248 118.893C196.147 118.908 196.04 118.923 195.938 118.933C195.836 118.933 195.74 118.953 195.638 118.953C195.536 118.953 195.43 118.963 195.328 118.963C195.226 118.963 195.12 118.953 195.018 118.953C194.916 118.953 194.82 118.933 194.718 118.933C194.616 118.923 194.509 118.908 194.408 118.893C194.307 118.878 194.208 118.863 194.108 118.843C194.008 118.823 193.907 118.798 193.808 118.773C193.709 118.749 193.616 118.723 193.518 118.693C193.42 118.664 193.314 118.638 193.218 118.603C193.121 118.569 193.033 118.532 192.938 118.493C192.843 118.454 192.751 118.407 192.658 118.363C192.565 118.32 192.468 118.281 192.378 118.233C192.288 118.185 192.206 118.136 192.118 118.083C192.03 118.031 191.943 117.97 191.858 117.913C191.773 117.857 191.68 117.804 191.598 117.743C191.516 117.683 191.437 117.618 191.358 117.553C191.279 117.489 191.204 117.421 191.128 117.353C191.052 117.285 190.981 117.215 190.908 117.143C190.837 117.07 190.766 117 190.698 116.923C190.63 116.847 190.562 116.763 190.498 116.683C190.434 116.604 190.368 116.526 190.308 116.443C190.248 116.361 190.194 116.279 190.138 116.193C190.082 116.108 190.029 116.021 189.978 115.933C189.926 115.845 189.875 115.754 189.828 115.663C189.781 115.573 189.741 115.476 189.698 115.383C189.655 115.291 189.606 115.198 189.568 115.103C189.53 115.009 189.502 114.92 189.468 114.823C189.434 114.727 189.397 114.621 189.368 114.523C189.339 114.425 189.312 114.332 189.288 114.233C189.264 114.134 189.247 114.033 189.228 113.933C189.208 113.833 189.192 113.734 189.178 113.633C189.163 113.532 189.138 113.425 189.138 113.323C189.138 113.222 189.118 113.125 189.118 113.023C189.118 112.921 189.108 112.815 189.108 112.713C189.108 112.611 189.118 112.515 189.118 112.413C189.118 112.311 189.128 112.205 189.138 112.103C189.148 112.002 189.163 111.904 189.178 111.803C189.193 111.702 189.208 111.593 189.228 111.493C189.248 111.393 189.273 111.302 189.298 111.203C189.323 111.104 189.348 111.001 189.378 110.903C189.408 110.805 189.444 110.709 189.478 110.613C189.512 110.517 189.549 110.418 189.588 110.323C189.627 110.229 189.665 110.136 189.708 110.043C189.751 109.951 189.8 109.863 189.848 109.773C189.896 109.683 189.946 109.591 189.998 109.503C190.05 109.415 190.102 109.328 190.158 109.243C190.214 109.158 190.268 109.076 190.328 108.993C190.388 108.911 190.454 108.833 190.518 108.753C190.582 108.674 190.65 108.599 190.718 108.523C190.786 108.447 190.856 108.366 190.928 108.293ZM239.998 147.073C239.998 146.971 239.988 146.865 239.988 146.763C239.988 146.661 239.978 146.565 239.968 146.463C239.958 146.362 239.943 146.254 239.928 146.153C239.913 146.052 239.898 145.953 239.878 145.853C239.858 145.753 239.833 145.652 239.808 145.553C239.783 145.454 239.758 145.361 239.728 145.263C239.698 145.166 239.663 145.069 239.628 144.973C239.593 144.877 239.557 144.778 239.518 144.683C239.479 144.589 239.442 144.496 239.398 144.403C239.354 144.311 239.306 144.223 239.258 144.133C239.21 144.043 239.161 143.951 239.108 143.863C239.055 143.776 238.995 143.688 238.938 143.603C238.881 143.518 238.829 143.435 238.768 143.353C238.707 143.271 238.643 143.192 238.578 143.113C238.513 143.034 238.447 142.959 238.378 142.883C238.309 142.808 238.24 142.735 238.168 142.663C238.096 142.591 238.024 142.512 237.948 142.443C237.872 142.375 237.787 142.308 237.708 142.243C237.629 142.178 237.55 142.124 237.468 142.063C237.386 142.002 237.303 141.94 237.218 141.883C237.133 141.827 237.046 141.766 236.958 141.713C236.87 141.661 236.788 141.611 236.698 141.563C236.608 141.515 236.51 141.477 236.418 141.433C236.326 141.389 236.232 141.343 236.138 141.303C236.044 141.264 235.954 141.228 235.858 141.193C235.762 141.159 235.666 141.123 235.568 141.093C235.47 141.064 235.367 141.038 235.268 141.013C235.169 140.988 235.068 140.963 234.968 140.943C234.868 140.923 234.769 140.908 234.668 140.893C234.567 140.878 234.47 140.864 234.368 140.853C234.266 140.843 234.16 140.833 234.058 140.833C233.956 140.833 233.85 140.823 233.748 140.823L188.748 140.823C188.646 140.823 188.55 140.833 188.448 140.833C188.346 140.833 188.24 140.843 188.138 140.853C188.036 140.863 187.939 140.878 187.838 140.893C187.737 140.908 187.638 140.923 187.538 140.943C187.438 140.963 187.337 140.988 187.238 141.013C187.139 141.038 187.036 141.064 186.938 141.093C186.84 141.123 186.744 141.159 186.648 141.193C186.552 141.228 186.452 141.264 186.358 141.303C186.263 141.342 186.171 141.38 186.078 141.423C185.986 141.467 185.898 141.515 185.808 141.563C185.718 141.611 185.626 141.661 185.538 141.713C185.45 141.766 185.363 141.816 185.278 141.873C185.193 141.93 185.11 141.992 185.028 142.053C184.946 142.114 184.867 142.178 184.788 142.243C184.709 142.308 184.634 142.375 184.558 142.443C184.482 142.512 184.41 142.581 184.338 142.653C184.266 142.726 184.187 142.798 184.118 142.873C184.049 142.949 183.983 143.034 183.918 143.113C183.853 143.192 183.799 143.271 183.738 143.353C183.677 143.435 183.615 143.518 183.558 143.603C183.501 143.688 183.451 143.775 183.398 143.863C183.345 143.951 183.286 144.033 183.238 144.123C183.19 144.213 183.152 144.311 183.108 144.403C183.064 144.496 183.017 144.589 182.978 144.683C182.939 144.778 182.902 144.867 182.868 144.963C182.833 145.06 182.808 145.165 182.778 145.263C182.748 145.361 182.713 145.454 182.688 145.553C182.663 145.653 182.648 145.753 182.628 145.853C182.608 145.954 182.583 146.052 182.568 146.153C182.553 146.254 182.538 146.362 182.538 146.463C182.528 146.565 182.508 146.661 182.508 146.763C182.508 146.865 182.508 146.971 182.508 147.073C182.508 147.176 182.508 147.281 182.508 147.383C182.508 147.485 182.528 147.581 182.538 147.683C182.538 147.785 182.553 147.892 182.568 147.993C182.583 148.094 182.608 148.193 182.628 148.293C182.648 148.393 182.663 148.494 182.688 148.593C182.713 148.693 182.748 148.785 182.778 148.883C182.808 148.981 182.833 149.077 182.868 149.173C182.902 149.27 182.939 149.369 182.978 149.463C183.017 149.558 183.064 149.651 183.108 149.743C183.152 149.836 183.19 149.923 183.238 150.013C183.286 150.103 183.345 150.196 183.398 150.283C183.451 150.371 183.501 150.458 183.558 150.543C183.615 150.628 183.677 150.711 183.738 150.793C183.799 150.875 183.853 150.954 183.918 151.033C183.983 151.112 184.049 151.187 184.118 151.263C184.187 151.339 184.266 151.421 184.338 151.493C184.41 151.566 184.482 151.635 184.558 151.703C184.634 151.772 184.709 151.838 184.788 151.903C184.867 151.968 184.946 152.032 185.028 152.093C185.11 152.154 185.193 152.206 185.278 152.263C185.363 152.32 185.45 152.381 185.538 152.433C185.626 152.486 185.718 152.535 185.808 152.583C185.898 152.631 185.986 152.68 186.078 152.723C186.171 152.767 186.263 152.804 186.358 152.843C186.452 152.882 186.552 152.919 186.648 152.953C186.744 152.988 186.84 153.024 186.938 153.053C187.036 153.083 187.139 153.108 187.238 153.133C187.337 153.158 187.438 153.183 187.538 153.203C187.638 153.223 187.737 153.238 187.838 153.253C187.939 153.268 188.036 153.293 188.138 153.293C188.24 153.303 188.346 153.313 188.448 153.313C188.55 153.313 188.646 153.323 188.748 153.323L233.748 153.323C237.196 153.323 239.998 150.521 239.998 147.073ZM236.148 211.723C236.199 211.634 236.251 211.544 236.298 211.453C236.345 211.362 236.386 211.277 236.428 211.183C236.47 211.09 236.51 210.989 236.548 210.893C236.585 210.798 236.625 210.71 236.658 210.613C236.691 210.516 236.72 210.412 236.748 210.313C236.776 210.215 236.805 210.113 236.828 210.013C236.851 209.913 236.87 209.814 236.888 209.713C236.906 209.612 236.925 209.515 236.938 209.413C236.951 209.312 236.968 209.205 236.968 209.103C236.968 209.001 236.988 208.906 236.988 208.803C236.988 208.701 236.988 208.596 236.988 208.493C236.988 208.391 236.968 208.285 236.968 208.183C236.968 208.081 236.96 207.985 236.948 207.883C236.936 207.782 236.915 207.674 236.898 207.573C236.881 207.472 236.87 207.373 236.848 207.273C236.826 207.173 236.795 207.072 236.768 206.973C236.741 206.874 236.719 206.781 236.688 206.683C236.656 206.586 236.614 206.489 236.578 206.393C236.542 206.297 236.509 206.197 236.468 206.103C236.427 206.009 236.383 205.915 236.338 205.823C236.292 205.731 236.248 205.643 236.198 205.553C236.148 205.464 236.092 205.38 236.038 205.293C235.984 205.206 235.926 205.117 235.868 205.033C235.809 204.949 235.75 204.864 235.688 204.783C235.625 204.702 235.564 204.621 235.498 204.543C235.432 204.465 235.358 204.388 235.288 204.313C235.218 204.239 235.152 204.164 235.078 204.093C235.004 204.022 234.925 203.961 234.848 203.893C234.771 203.826 234.688 203.757 234.608 203.693C234.528 203.63 234.451 203.573 234.368 203.513C234.285 203.454 234.194 203.389 234.108 203.333C234.022 203.278 233.937 203.224 233.848 203.173L194.868 180.673C194.779 180.624 194.689 180.578 194.598 180.533C194.507 180.489 194.421 180.443 194.328 180.403C194.235 180.363 194.143 180.329 194.048 180.293C193.953 180.258 193.854 180.224 193.758 180.193C193.661 180.162 193.566 180.139 193.468 180.113C193.37 180.087 193.267 180.055 193.168 180.033C193.069 180.012 192.968 180 192.868 179.983C192.768 179.967 192.669 179.955 192.568 179.943C192.467 179.932 192.369 179.913 192.268 179.913C192.167 179.913 192.069 179.903 191.968 179.903C191.867 179.903 191.759 179.903 191.658 179.903C191.557 179.903 191.459 179.913 191.358 179.913C191.257 179.913 191.158 179.94 191.058 179.953C190.957 179.966 190.858 179.975 190.758 179.993C190.658 180.011 190.557 180.031 190.458 180.053C190.359 180.076 190.266 180.106 190.168 180.133C190.07 180.161 189.974 180.191 189.878 180.223C189.782 180.255 189.682 180.287 189.588 180.323C189.494 180.36 189.4 180.392 189.308 180.433C189.215 180.474 189.128 180.518 189.038 180.563C188.947 180.609 188.856 180.663 188.768 180.713C188.68 180.763 188.593 180.809 188.508 180.863C188.422 180.917 188.341 180.975 188.258 181.033C188.175 181.091 188.088 181.151 188.008 181.213C187.928 181.275 187.855 181.337 187.778 181.403C187.701 181.469 187.621 181.544 187.548 181.613C187.475 181.683 187.408 181.75 187.338 181.823C187.268 181.896 187.194 181.977 187.128 182.053C187.062 182.13 187.001 182.204 186.938 182.283C186.875 182.363 186.817 182.441 186.758 182.523C186.699 182.606 186.643 182.688 186.588 182.773C186.533 182.858 186.479 182.945 186.428 183.033C186.378 183.121 186.324 183.213 186.278 183.303C186.232 183.393 186.19 183.481 186.148 183.573C186.106 183.665 186.065 183.759 186.028 183.853C185.991 183.947 185.961 184.047 185.928 184.143C185.895 184.239 185.866 184.336 185.838 184.433C185.81 184.531 185.781 184.625 185.758 184.723C185.735 184.822 185.716 184.924 185.698 185.023C185.68 185.123 185.661 185.223 185.648 185.323C185.634 185.424 185.618 185.522 185.618 185.623C185.618 185.724 185.598 185.822 185.598 185.923C185.598 186.024 185.588 186.132 185.588 186.233C185.588 186.335 185.598 186.432 185.598 186.533C185.598 186.634 185.617 186.733 185.628 186.833C185.639 186.934 185.652 187.033 185.668 187.133C185.684 187.233 185.697 187.334 185.718 187.433C185.739 187.532 185.763 187.635 185.788 187.733C185.813 187.831 185.848 187.927 185.878 188.023C185.908 188.12 185.933 188.218 185.968 188.313C186.003 188.408 186.039 188.5 186.078 188.593C186.117 188.687 186.164 188.782 186.208 188.873C186.252 188.964 186.3 189.054 186.348 189.143C186.396 189.232 186.445 189.317 186.498 189.403C186.55 189.49 186.602 189.579 186.658 189.663C186.715 189.747 186.777 189.822 186.838 189.903C186.898 189.984 186.953 190.065 187.018 190.143C187.082 190.221 187.15 190.298 187.218 190.373C187.286 190.448 187.356 190.522 187.428 190.593C187.499 190.665 187.573 190.735 187.648 190.803C187.723 190.871 187.8 190.939 187.878 191.003C187.956 191.067 188.037 191.133 188.118 191.193C188.199 191.254 188.284 191.307 188.368 191.363C188.452 191.42 188.541 191.471 188.628 191.523L227.598 214.033C227.687 214.084 227.777 214.127 227.868 214.173C227.96 214.219 228.054 214.262 228.148 214.303C228.242 214.345 228.333 214.386 228.428 214.423C228.523 214.46 228.621 214.501 228.718 214.533C228.815 214.565 228.919 214.586 229.018 214.613C229.117 214.641 229.208 214.671 229.308 214.693C229.408 214.716 229.507 214.735 229.608 214.753C229.709 214.771 229.816 214.79 229.918 214.803C230.02 214.816 230.116 214.833 230.218 214.833C230.32 214.833 230.426 214.843 230.528 214.843C230.63 214.843 230.736 214.843 230.838 214.843C230.94 214.843 231.036 214.833 231.138 214.833C231.24 214.833 231.346 214.815 231.448 214.803C231.549 214.791 231.647 214.78 231.748 214.763C231.849 214.746 231.948 214.725 232.048 214.703C232.148 214.682 232.249 214.66 232.348 214.633C232.447 214.607 232.541 214.575 232.638 214.543C232.735 214.512 232.832 214.479 232.928 214.443C233.024 214.407 233.124 214.374 233.218 214.333C233.312 214.293 233.406 214.248 233.498 214.203C233.59 214.158 233.678 214.103 233.768 214.053C233.857 214.004 233.941 213.957 234.028 213.903C234.115 213.849 234.204 213.791 234.288 213.733C234.372 213.675 234.457 213.615 234.538 213.553C234.619 213.491 234.7 213.429 234.778 213.363C234.856 213.297 234.933 213.233 235.008 213.163C235.083 213.094 235.156 213.016 235.228 212.943C235.299 212.87 235.37 212.8 235.438 212.723C235.506 212.647 235.564 212.563 235.628 212.483C235.692 212.403 235.758 212.326 235.818 212.243C235.878 212.16 235.932 212.079 235.988 211.993C236.044 211.908 236.096 211.812 236.148 211.723ZM111.348 52.8233L83.078 24.5233C83.0202 24.4654 82.9627 24.404 82.908 24.3433C82.853 24.2827 82.7997 24.2166 82.748 24.1533C82.6962 24.09 82.6467 24.029 82.598 23.9633C82.5492 23.8976 82.5032 23.8314 82.458 23.7633C82.4125 23.6953 82.37 23.6235 82.328 23.5533C82.286 23.4831 82.2467 23.4155 82.208 23.3433C82.1695 23.2711 82.133 23.1973 82.098 23.1233C82.0632 23.0493 82.0292 22.9689 81.998 22.8933C81.9667 22.8177 81.9355 22.7503 81.908 22.6733C81.8805 22.5963 81.8517 22.5116 81.828 22.4333C81.8042 22.355 81.7877 22.2827 81.768 22.2033C81.7482 22.1239 81.724 22.0436 81.708 21.9633C81.6922 21.8831 81.68 21.7942 81.668 21.7133C81.656 21.6324 81.638 21.5547 81.638 21.4733C81.638 21.3919 81.618 21.315 81.618 21.2333C81.618 21.1516 81.618 21.0651 81.618 20.9833C81.618 20.9015 81.628 20.825 81.628 20.7433C81.628 20.6616 81.638 20.5747 81.638 20.4933C81.638 20.4119 81.656 20.3342 81.668 20.2533C81.68 20.1724 81.702 20.0935 81.718 20.0133C81.734 19.9331 81.7482 19.8527 81.768 19.7733C81.788 19.6939 81.8042 19.6116 81.828 19.5333C81.8517 19.455 81.8805 19.3803 81.908 19.3033C81.9357 19.2263 81.9667 19.1489 81.998 19.0733C82.0292 18.9977 82.063 18.9173 82.098 18.8433C82.133 18.7694 82.1695 18.6955 82.208 18.6233C82.2465 18.5512 82.2857 18.4835 82.328 18.4133C82.37 18.3431 82.4125 18.2713 82.458 18.2033C82.5035 18.1353 82.5492 18.069 82.598 18.0033C82.6467 17.9376 82.6962 17.8766 82.748 17.8133C82.7997 17.7501 82.853 17.6839 82.908 17.6233C82.963 17.5627 83.0202 17.5112 83.078 17.4533C83.1357 17.3955 83.1972 17.3383 83.258 17.2833C83.3185 17.2284 83.3847 17.1752 83.448 17.1233C83.5112 17.0714 83.5722 17.0221 83.638 16.9733C83.7037 16.9246 83.77 16.8688 83.838 16.8233C83.906 16.7779 83.9777 16.7354 84.048 16.6933C84.1182 16.6513 84.1857 16.6119 84.258 16.5733C84.3302 16.5347 84.404 16.4983 84.478 16.4633C84.5517 16.4283 84.6322 16.3946 84.708 16.3633C84.7835 16.332 84.8507 16.3009 84.928 16.2733C85.005 16.2458 85.0897 16.2271 85.168 16.2033C85.2462 16.1796 85.3187 16.1532 85.398 16.1333C85.4772 16.1134 85.5577 16.0993 85.638 16.0833C85.7182 16.0673 85.807 16.0553 85.888 16.0433C85.9687 16.0313 86.0465 16.0133 86.128 16.0133C86.2095 16.0133 86.2862 15.9933 86.368 15.9933C86.4497 15.9933 86.5362 15.9833 86.618 15.9833C86.6997 15.9833 86.7762 15.9933 86.858 15.9933C86.9397 15.9933 87.0265 16.0133 87.108 16.0133C87.1892 16.0133 87.267 16.0313 87.348 16.0433C87.429 16.0553 87.5077 16.0674 87.588 16.0833C87.6682 16.0993 87.7487 16.1135 87.828 16.1333C87.9072 16.1532 87.9897 16.1796 88.068 16.2033C88.1462 16.227 88.221 16.2458 88.298 16.2733C88.375 16.3009 88.4522 16.332 88.528 16.3633C88.6035 16.3946 88.684 16.4284 88.758 16.4633C88.832 16.4983 88.9057 16.5348 88.978 16.5733C89.0502 16.6119 89.1177 16.6513 89.188 16.6933C89.2582 16.7354 89.3297 16.7779 89.398 16.8233C89.466 16.8688 89.5322 16.9146 89.598 16.9633C89.6637 17.012 89.7247 17.0715 89.788 17.1233C89.8512 17.1752 89.9172 17.2284 89.978 17.2833C90.0387 17.3382 90.0902 17.3855 90.148 17.4433L118.428 45.7433C118.486 45.8011 118.543 45.8626 118.598 45.9233C118.653 45.9838 118.706 46.0401 118.758 46.1033C118.81 46.1666 118.859 46.2376 118.908 46.3033C118.957 46.3691 119.002 46.4353 119.048 46.5033C119.093 46.5713 119.136 46.6431 119.178 46.7133C119.22 46.7833 119.259 46.8508 119.298 46.9233C119.337 46.9953 119.373 47.0693 119.408 47.1433C119.443 47.2173 119.477 47.2876 119.508 47.3633C119.539 47.4388 119.57 47.5163 119.598 47.5933C119.626 47.6703 119.654 47.7548 119.678 47.8333C119.702 47.9116 119.718 47.9838 119.738 48.0633C119.758 48.1426 119.772 48.2231 119.788 48.3033C119.804 48.3836 119.826 48.4623 119.838 48.5433C119.85 48.6243 119.868 48.7118 119.868 48.7933C119.868 48.8748 119.878 48.9516 119.878 49.0333C119.878 49.1151 119.888 49.2013 119.888 49.2833C119.888 49.3651 119.878 49.4416 119.878 49.5233C119.878 49.6051 119.868 49.6918 119.868 49.7733C119.868 49.8546 119.85 49.9323 119.838 50.0133C119.826 50.0943 119.804 50.1731 119.788 50.2533C119.772 50.3336 119.758 50.4138 119.738 50.4933C119.718 50.5728 119.702 50.6548 119.678 50.7333C119.654 50.8113 119.626 50.8861 119.598 50.9633C119.57 51.0403 119.539 51.1176 119.508 51.1933C119.477 51.2688 119.443 51.3393 119.408 51.4133C119.373 51.4873 119.337 51.5611 119.298 51.6333C119.259 51.7053 119.22 51.7828 119.178 51.8533C119.136 51.9233 119.093 51.9953 119.048 52.0633C119.002 52.1313 118.957 52.1973 118.908 52.2633C118.859 52.3288 118.81 52.3898 118.758 52.4533C118.706 52.5163 118.653 52.5826 118.598 52.6433C118.543 52.7038 118.486 52.7553 118.428 52.8133C118.37 52.8706 118.309 52.9288 118.248 52.9833C118.187 53.0378 118.121 53.0918 118.058 53.1433C117.994 53.1946 117.934 53.2451 117.868 53.2933C117.802 53.3416 117.736 53.3883 117.668 53.4333C117.6 53.4783 117.528 53.5218 117.458 53.5633C117.388 53.6048 117.31 53.6451 117.238 53.6833C117.166 53.7213 117.102 53.7588 117.028 53.7933C116.954 53.8278 116.874 53.8623 116.798 53.8933C116.722 53.9241 116.645 53.9458 116.568 53.9733C116.491 54.0003 116.416 54.0298 116.338 54.0533C116.26 54.0768 116.177 54.0936 116.098 54.1133C116.019 54.1328 115.938 54.1573 115.858 54.1733C115.778 54.1888 115.699 54.2013 115.618 54.2133C115.537 54.2253 115.459 54.2433 115.378 54.2433C115.297 54.2433 115.21 54.2633 115.128 54.2633C115.046 54.2633 114.97 54.2633 114.888 54.2633C114.806 54.2633 114.729 54.2633 114.648 54.2633C114.566 54.2633 114.479 54.2433 114.398 54.2433C114.317 54.2433 114.239 54.2253 114.158 54.2133C114.077 54.2013 113.998 54.1891 113.918 54.1733C113.838 54.1576 113.757 54.1328 113.678 54.1133C113.599 54.0936 113.516 54.0768 113.438 54.0533C113.36 54.0298 113.285 54.0003 113.208 53.9733C113.131 53.9458 113.053 53.9241 112.978 53.8933C112.902 53.8623 112.832 53.8278 112.758 53.7933C112.684 53.7588 112.61 53.7213 112.538 53.6833C112.466 53.6451 112.388 53.6048 112.318 53.5633C112.248 53.5218 112.176 53.4783 112.108 53.4333C112.04 53.3883 111.974 53.3416 111.908 53.2933C111.842 53.2451 111.781 53.1946 111.718 53.1433C111.654 53.0918 111.589 53.0378 111.528 52.9833C111.467 52.9288 111.406 52.8706 111.348 52.8133L111.348 52.8233ZM144.648 52.8233L172.918 24.5233C172.976 24.4654 173.033 24.4039 173.088 24.3433C173.143 24.2827 173.196 24.2166 173.248 24.1533C173.3 24.09 173.349 24.029 173.398 23.9633C173.447 23.8976 173.493 23.8314 173.538 23.7633C173.583 23.6953 173.636 23.6235 173.678 23.5533C173.72 23.4831 173.759 23.4155 173.798 23.3433C173.837 23.2711 173.873 23.1973 173.908 23.1233C173.943 23.0493 173.977 22.9689 174.008 22.8933C174.039 22.8177 174.061 22.7504 174.088 22.6733C174.116 22.5963 174.144 22.5116 174.168 22.4333C174.192 22.355 174.218 22.2827 174.238 22.2033C174.258 22.1239 174.272 22.0436 174.288 21.9633C174.304 21.8831 174.316 21.7943 174.328 21.7133C174.34 21.6324 174.358 21.5548 174.358 21.4733C174.358 21.3919 174.378 21.3151 174.378 21.2333C174.378 21.1516 174.388 21.0652 174.388 20.9833C174.388 20.9015 174.378 20.8251 174.378 20.7433C174.378 20.6616 174.358 20.5748 174.358 20.4933C174.358 20.4119 174.34 20.3343 174.328 20.2533C174.316 20.1724 174.304 20.0936 174.288 20.0133C174.272 19.933 174.258 19.8527 174.238 19.7733C174.218 19.6939 174.192 19.6116 174.168 19.5333C174.144 19.455 174.116 19.3804 174.088 19.3033C174.061 19.2263 174.039 19.1489 174.008 19.0733C173.977 18.9977 173.943 18.9173 173.908 18.8433C173.873 18.7693 173.837 18.6955 173.798 18.6233C173.759 18.5511 173.72 18.4835 173.678 18.4133C173.636 18.3431 173.583 18.2714 173.538 18.2033C173.492 18.1353 173.447 18.0691 173.398 18.0033C173.349 17.9376 173.3 17.8766 173.248 17.8133C173.196 17.7501 173.143 17.684 173.088 17.6233C173.033 17.5627 172.976 17.5012 172.918 17.4433C172.86 17.3855 172.799 17.3383 172.738 17.2833C172.677 17.2284 172.621 17.1752 172.558 17.1233C172.495 17.0714 172.424 17.0121 172.358 16.9633C172.292 16.9146 172.226 16.8688 172.158 16.8233C172.09 16.7779 172.028 16.7354 171.958 16.6933C171.888 16.6513 171.81 16.6119 171.738 16.5733C171.666 16.5347 171.592 16.4983 171.518 16.4633C171.444 16.4283 171.373 16.3946 171.298 16.3633C171.222 16.332 171.145 16.3009 171.068 16.2733C170.991 16.2457 170.916 16.2271 170.838 16.2033C170.76 16.1796 170.677 16.1532 170.598 16.1333C170.519 16.1134 170.438 16.0993 170.358 16.0833C170.278 16.0674 170.199 16.0453 170.118 16.0333C170.037 16.0213 169.959 16.0033 169.878 16.0033C169.796 16.0033 169.71 15.9933 169.628 15.9933C169.546 15.9933 169.47 15.9833 169.388 15.9833C169.306 15.9833 169.22 15.9933 169.138 15.9933C169.056 15.9933 168.979 16.0033 168.898 16.0033C168.817 16.0033 168.729 16.0213 168.648 16.0333C168.567 16.0453 168.488 16.0674 168.408 16.0833C168.328 16.0993 168.247 16.1134 168.168 16.1333C168.089 16.1532 168.006 16.1796 167.928 16.2033C167.85 16.2271 167.775 16.2458 167.698 16.2733C167.621 16.3009 167.544 16.332 167.468 16.3633C167.393 16.3946 167.322 16.4283 167.248 16.4633C167.174 16.4983 167.1 16.5347 167.028 16.5733C166.956 16.6119 166.888 16.6513 166.818 16.6933C166.748 16.7354 166.676 16.7779 166.608 16.8233C166.54 16.8688 166.474 16.9146 166.408 16.9633C166.342 17.0121 166.271 17.0714 166.208 17.1233C166.145 17.1752 166.089 17.2284 166.028 17.2833C165.967 17.3383 165.906 17.3854 165.848 17.4433L137.578 45.7433C137.52 45.8011 137.463 45.8626 137.408 45.9233C137.353 45.9838 137.3 46.0401 137.248 46.1033C137.196 46.1666 137.147 46.2376 137.098 46.3033C137.049 46.3691 137.003 46.4353 136.958 46.5033C136.913 46.5713 136.86 46.6431 136.818 46.7133C136.776 46.7836 136.736 46.8511 136.698 46.9233C136.659 46.9953 136.623 47.0693 136.588 47.1433C136.553 47.2171 136.519 47.2876 136.488 47.3633C136.457 47.4388 136.435 47.5163 136.408 47.5933C136.38 47.6703 136.352 47.7548 136.328 47.8333C136.304 47.9116 136.278 47.9838 136.258 48.0633C136.238 48.1426 136.224 48.2231 136.208 48.3033C136.192 48.3836 136.18 48.4623 136.168 48.5433C136.156 48.6243 136.138 48.7118 136.138 48.7933C136.138 48.8748 136.118 48.9516 136.118 49.0333C136.118 49.1151 136.108 49.2013 136.108 49.2833C136.108 49.3651 136.118 49.4416 136.118 49.5233C136.118 49.6051 136.138 49.6918 136.138 49.7733C136.138 49.8546 136.156 49.9323 136.168 50.0133C136.18 50.0943 136.192 50.1731 136.208 50.2533C136.224 50.3336 136.238 50.4138 136.258 50.4933C136.278 50.5728 136.304 50.6548 136.328 50.7333C136.352 50.8113 136.38 50.8861 136.408 50.9633C136.435 51.0403 136.457 51.1176 136.488 51.1933C136.519 51.2688 136.553 51.3393 136.588 51.4133C136.623 51.4873 136.659 51.5611 136.698 51.6333C136.736 51.7053 136.776 51.7828 136.818 51.8533C136.86 51.9233 136.913 51.9953 136.958 52.0633C137.003 52.1313 137.049 52.1973 137.098 52.2633C137.147 52.3288 137.196 52.3898 137.248 52.4533C137.3 52.5163 137.353 52.5826 137.408 52.6433C137.463 52.7038 137.52 52.7553 137.578 52.8133C137.636 52.8706 137.697 52.9288 137.758 52.9833C137.819 53.0378 137.874 53.0918 137.938 53.1433C138.001 53.1946 138.072 53.2451 138.138 53.2933C138.204 53.3416 138.27 53.3883 138.338 53.4333C138.406 53.4783 138.478 53.5218 138.548 53.5633C138.618 53.6048 138.686 53.6451 138.758 53.6833C138.83 53.7213 138.904 53.7588 138.978 53.7933C139.052 53.8278 139.122 53.8623 139.198 53.8933C139.273 53.9241 139.351 53.9458 139.428 53.9733C139.505 54.0003 139.59 54.0298 139.668 54.0533C139.746 54.0768 139.819 54.0936 139.898 54.1133C139.977 54.1328 140.058 54.1573 140.138 54.1733C140.218 54.1888 140.297 54.2013 140.378 54.2133C140.459 54.2253 140.537 54.2433 140.618 54.2433C140.699 54.2433 140.786 54.2633 140.868 54.2633C140.949 54.2633 141.026 54.2633 141.108 54.2633C141.19 54.2633 141.276 54.2633 141.358 54.2633C141.44 54.2633 141.517 54.2433 141.598 54.2433C141.679 54.2433 141.767 54.2253 141.848 54.2133C141.929 54.2013 142.008 54.1891 142.088 54.1733C142.168 54.1576 142.249 54.1328 142.328 54.1133C142.407 54.0936 142.48 54.0768 142.558 54.0533C142.636 54.0298 142.721 54.0003 142.798 53.9733C142.875 53.9458 142.943 53.9241 143.018 53.8933C143.094 53.8623 143.174 53.8278 143.248 53.7933C143.322 53.7588 143.396 53.7213 143.468 53.6833C143.54 53.6451 143.608 53.6048 143.678 53.5633C143.748 53.5218 143.82 53.4783 143.888 53.4333C143.956 53.3883 144.022 53.3416 144.088 53.2933C144.154 53.2451 144.214 53.1946 144.278 53.1433C144.341 53.0918 144.407 53.0378 144.468 52.9833C144.529 52.9288 144.59 52.8706 144.648 52.8133L144.648 52.8233ZM85.248 78.0033C85.248 78.7028 85.2637 79.3943 85.298 80.0933C85.3322 80.7921 85.3895 81.4968 85.458 82.1933C85.5267 82.8893 85.6052 83.5811 85.708 84.2733C85.8107 84.9653 85.9315 85.6571 86.068 86.3433C86.2045 87.0293 86.358 87.7043 86.528 88.3833C86.698 89.0618 86.8847 89.7438 87.088 90.4133C87.291 91.0828 87.5122 91.7443 87.748 92.4033C87.9837 93.0618 88.2302 93.7168 88.498 94.3633C88.7657 95.0096 89.0487 95.6508 89.348 96.2833C89.647 96.9158 89.9682 97.5361 90.298 98.1533C90.6277 98.7703 90.9682 99.3831 91.328 99.9833C91.6877 100.583 92.0592 101.171 92.448 101.753C92.8367 102.335 93.2412 102.901 93.658 103.463C94.0747 104.025 94.5042 104.582 94.948 105.123C95.3917 105.664 95.8482 106.195 96.318 106.713C96.788 107.232 97.2732 107.738 97.768 108.233C98.2627 108.728 98.7695 109.203 99.288 109.673C99.8065 110.143 100.337 110.599 100.878 111.043C101.419 111.487 101.966 111.926 102.528 112.343C103.09 112.76 103.666 113.155 104.248 113.543C104.83 113.932 105.418 114.314 106.018 114.673C106.618 115.033 107.231 115.373 107.848 115.703C108.465 116.033 109.085 116.344 109.718 116.643C110.35 116.942 110.992 117.225 111.638 117.493C112.284 117.761 112.939 118.017 113.598 118.253C114.257 118.489 114.918 118.71 115.588 118.913C116.257 119.116 116.929 119.303 117.608 119.473C118.287 119.643 118.972 119.797 119.658 119.933C120.344 120.07 121.036 120.191 121.728 120.293C122.42 120.396 123.112 120.475 123.808 120.543C124.504 120.612 125.199 120.669 125.898 120.703C126.597 120.738 127.298 120.753 127.998 120.753C128.698 120.753 129.399 120.738 130.098 120.703C130.797 120.669 131.492 120.612 132.188 120.543C132.884 120.475 133.586 120.396 134.278 120.293C134.97 120.191 135.652 120.07 136.338 119.933C137.024 119.797 137.709 119.643 138.388 119.473C139.067 119.303 139.738 119.116 140.408 118.913C141.077 118.71 141.739 118.489 142.398 118.253C143.057 118.017 143.711 117.761 144.358 117.493C145.004 117.225 145.645 116.942 146.278 116.643C146.91 116.344 147.541 116.033 148.158 115.703C148.775 115.373 149.378 115.033 149.978 114.673C150.578 114.314 151.166 113.932 151.748 113.543C152.33 113.155 152.906 112.76 153.468 112.343C154.03 111.926 154.577 111.487 155.118 111.043C155.659 110.599 156.189 110.143 156.708 109.673C157.226 109.203 157.733 108.728 158.228 108.233C158.723 107.738 159.208 107.232 159.678 106.713C160.148 106.195 160.604 105.664 161.048 105.123C161.492 104.582 161.921 104.025 162.338 103.463C162.755 102.901 163.159 102.335 163.548 101.753C163.937 101.171 164.308 100.583 164.668 99.9833C165.028 99.3831 165.378 98.7703 165.708 98.1533C166.038 97.5361 166.349 96.9158 166.648 96.2833C166.947 95.6508 167.23 95.0096 167.498 94.3633C167.766 93.7168 168.012 93.0618 168.248 92.4033C168.484 91.7443 168.705 91.0828 168.908 90.4133C169.111 89.7438 169.298 89.0618 169.468 88.3833C169.638 87.7043 169.791 87.0293 169.928 86.3433C170.064 85.6571 170.185 84.9653 170.288 84.2733C170.391 83.5811 170.479 82.8893 170.548 82.1933C170.617 81.4968 170.664 80.7921 170.698 80.0933C170.732 79.3943 170.748 78.7028 170.748 78.0033C170.748 77.3036 170.732 76.6021 170.698 75.9033C170.664 75.2043 170.617 74.5096 170.548 73.8133C170.479 73.1168 170.391 72.4153 170.288 71.7233C170.185 71.0311 170.064 70.3493 169.928 69.6633C169.791 68.9771 169.638 68.2921 169.468 67.6133C169.298 66.9346 169.111 66.2628 168.908 65.5933C168.705 64.9238 168.494 64.2521 168.258 63.5933C168.022 62.9343 167.766 62.2896 167.498 61.6433C167.23 60.9968 166.947 60.3558 166.648 59.7233C166.349 59.0908 166.038 58.4603 165.708 57.8433C165.378 57.2263 165.028 56.6233 164.668 56.0233C164.308 55.4233 163.937 54.8351 163.548 54.2533C163.159 53.6716 162.755 53.0953 162.338 52.5333C161.921 51.9713 161.492 51.4241 161.048 50.8833C160.604 50.3423 160.148 49.8118 159.678 49.2933C159.208 48.7748 158.723 48.2681 158.228 47.7733C157.733 47.2786 157.226 46.7933 156.708 46.3233C156.189 45.8533 155.659 45.3971 155.118 44.9533C154.577 44.5093 154.03 44.0801 153.468 43.6633C152.906 43.2463 152.33 42.8418 151.748 42.4533C151.166 42.0646 150.578 41.6928 149.978 41.3333C149.378 40.9734 148.775 40.6231 148.158 40.2933C147.541 39.9635 146.91 39.6523 146.278 39.3533C145.645 39.0541 145.004 38.7711 144.358 38.5033C143.711 38.2356 143.057 37.9791 142.398 37.7433C141.739 37.5076 141.077 37.2963 140.408 37.0933C139.738 36.8901 139.067 36.7033 138.388 36.5333C137.709 36.3633 137.024 36.2098 136.338 36.0733C135.652 35.9368 134.97 35.816 134.278 35.7133C133.586 35.6106 132.884 35.522 132.188 35.4533C131.492 35.3848 130.797 35.3376 130.098 35.3033C129.399 35.269 128.698 35.2433 127.998 35.2433C127.298 35.2433 126.597 35.269 125.898 35.3033C125.199 35.3376 124.504 35.3848 123.808 35.4533C123.112 35.522 122.42 35.6106 121.728 35.7133C121.036 35.816 120.344 35.9368 119.658 36.0733C118.972 36.2098 118.287 36.3633 117.608 36.5333C116.929 36.7033 116.257 36.8901 115.588 37.0933C114.918 37.2963 114.257 37.5076 113.598 37.7433C112.939 37.9791 112.284 38.2356 111.638 38.5033C110.992 38.7711 110.35 39.0541 109.718 39.3533C109.085 39.6523 108.465 39.9635 107.848 40.2933C107.231 40.6231 106.618 40.9734 106.018 41.3333C105.418 41.6928 104.83 42.0646 104.248 42.4533C103.666 42.8418 103.09 43.2463 102.528 43.6633C101.966 44.0801 101.419 44.5093 100.878 44.9533C100.337 45.3971 99.8065 45.8533 99.288 46.3233C98.7695 46.7933 98.2627 47.2786 97.768 47.7733C97.2732 48.2681 96.788 48.7748 96.318 49.2933C95.8482 49.8118 95.3917 50.3423 94.948 50.8833C94.5042 51.4241 94.0747 51.9713 93.658 52.5333C93.2412 53.0953 92.8367 53.6716 92.448 54.2533C92.0592 54.8351 91.6877 55.4233 91.328 56.0233C90.9682 56.6233 90.6277 57.2263 90.298 57.8433C89.9682 58.4603 89.647 59.0908 89.348 59.7233C89.0487 60.3558 88.7657 60.9968 88.498 61.6433C88.2302 62.2896 87.9837 62.9343 87.748 63.5933C87.5122 64.2521 87.291 64.9238 87.088 65.5933C86.8847 66.2628 86.698 66.9346 86.528 67.6133C86.358 68.2921 86.2045 68.9771 86.068 69.6633C85.9315 70.3493 85.8107 71.0311 85.708 71.7233C85.6052 72.4153 85.5267 73.1168 85.458 73.8133C85.3895 74.5096 85.3322 75.2043 85.298 75.9033C85.2637 76.6021 85.248 77.3036 85.248 78.0033ZM127.998 233.753C103.326 233.753 80.852 226.149 64.708 212.373C47.908 197.997 38.998 178.107 38.998 154.803C38.998 130.603 48.596 105.723 65.348 86.5233C73.7 76.9713 83.252 69.4273 93.748 64.1233C104.748 58.5713 116.278 55.7533 127.998 55.7533C139.718 55.7533 151.248 58.5713 162.248 64.1233C172.752 69.4193 182.296 76.9713 190.648 86.5233C207.4 105.723 216.998 130.603 216.998 154.803C216.998 178.107 208.1 197.997 191.308 212.373C175.156 226.149 152.678 233.753 127.998 233.753ZM127.998 62.0033C138.75 62.0033 149.332 64.5993 159.428 69.7033C169.204 74.6553 178.12 81.6813 185.928 90.6333C186.892 91.7438 187.832 92.8726 188.748 94.0233C189.664 95.1741 190.552 96.3446 191.418 97.5333C192.284 98.7221 193.124 99.9286 193.938 101.153C194.752 102.378 195.547 103.615 196.308 104.873C197.069 106.132 197.801 107.414 198.508 108.703C199.215 109.993 199.887 111.295 200.538 112.613C201.189 113.932 201.814 115.258 202.408 116.603C203.002 117.948 203.572 119.314 204.108 120.683C208.508 131.931 210.728 143.407 210.728 154.783C210.728 176.207 202.598 194.451 187.198 207.603C172.222 220.451 151.198 227.513 127.998 227.513C104.798 227.513 83.778 220.467 68.778 207.643C53.378 194.491 45.248 176.213 45.248 154.813C45.248 143.437 47.468 131.971 51.868 120.723C52.404 119.354 52.9737 117.989 53.568 116.643C54.162 115.298 54.787 113.972 55.438 112.653C56.089 111.335 56.7612 110.033 57.468 108.743C58.1747 107.454 58.9167 106.172 59.678 104.913C60.4392 103.655 61.2237 102.418 62.038 101.193C62.8522 99.9686 63.6922 98.7618 64.558 97.5733C65.4237 96.3843 66.3122 95.2138 67.228 94.0633C68.1437 92.9126 69.084 91.7838 70.048 90.6733C77.848 81.7213 86.772 74.6713 96.548 69.7433C106.676 64.6153 117.254 62.0133 127.998 62.0133M127.998 49.5033C75.398 49.5033 32.748 102.203 32.748 154.803C32.748 207.403 75.398 240.003 127.998 240.003C180.598 240.003 223.248 207.403 223.248 154.803C223.248 102.203 180.598 49.5133 127.998 49.5133L127.998 49.5033ZM127.998 107.243C114.47 107.243 101.7 104.051 91.068 98.0033C82.54 93.1553 75.978 86.6473 72.178 79.4233C88.378 64.1273 108.046 55.7533 127.998 55.7533C147.95 55.7533 167.622 64.1273 183.798 79.4233C180.022 86.6473 173.45 93.1553 164.898 98.0033C154.298 104.051 141.516 107.243 127.988 107.243L127.998 107.243ZM127.998 62.0033C137.926 62.0033 147.754 64.2273 157.178 68.6033C163.73 71.6513 169.948 75.6453 175.748 80.5733C172.396 85.1253 167.656 89.2453 161.848 92.5733C160.638 93.2548 159.41 93.8938 158.158 94.4933C156.906 95.0926 155.628 95.6488 154.338 96.1633C153.048 96.6776 151.749 97.1561 150.428 97.5833C149.107 98.0103 147.775 98.3853 146.428 98.7233C140.556 100.227 134.356 101.003 128.028 101.003C121.7 101.003 115.524 100.219 109.628 98.7233C108.281 98.3863 106.939 98.0098 105.618 97.5833C104.297 97.1566 102.998 96.6878 101.708 96.1733C100.418 95.6588 99.1402 95.1031 97.888 94.5033C96.6357 93.9033 95.4072 93.2558 94.198 92.5733C88.374 89.2453 83.626 85.1493 80.298 80.5733C81.7042 79.3743 83.1447 78.2258 84.628 77.1233C86.111 76.0206 87.6347 74.9646 89.188 73.9633C90.7412 72.9618 92.3217 72.0188 93.938 71.1233C95.5545 70.2276 97.1955 69.3893 98.868 68.6033C99.4347 68.3348 100.014 68.0663 100.588 67.8133C101.162 67.5603 101.737 67.3203 102.318 67.0833C102.899 66.8461 103.481 66.6143 104.068 66.3933C104.655 66.1723 105.245 65.9581 105.838 65.7533C106.431 65.5483 107.03 65.3518 107.628 65.1633C108.226 64.9748 108.825 64.7953 109.428 64.6233C110.031 64.4513 110.64 64.2886 111.248 64.1333C111.856 63.9778 112.456 63.8318 113.068 63.6933C113.68 63.5546 114.293 63.4251 114.908 63.3033C115.523 63.1816 116.15 63.0681 116.768 62.9633C117.386 62.8583 118.007 62.7611 118.628 62.6733C119.249 62.5853 119.865 62.5041 120.488 62.4333C121.111 62.3626 121.733 62.3068 122.358 62.2533C122.983 62.1996 123.612 62.1496 124.238 62.1133C124.864 62.0768 125.491 62.0523 126.118 62.0333C126.745 62.0138 127.371 62.0033 127.998 62.0033ZM127.998 49.5033C103.702 49.5033 81.552 60.7233 64.728 78.0033C72.504 98.5073 97.878 113.513 127.998 113.513C158.118 113.513 183.5 98.5073 191.268 78.0033C174.444 60.7313 152.294 49.5033 127.998 49.5033ZM163.648 218.643C163.712 218.353 163.788 218.07 163.868 217.783C163.947 217.496 164.034 217.206 164.128 216.923C164.222 216.641 164.32 216.371 164.428 216.093C164.536 215.816 164.656 215.535 164.778 215.263C164.9 214.992 165.022 214.728 165.158 214.463C165.294 214.199 165.438 213.941 165.588 213.683C165.738 213.426 165.895 213.163 166.058 212.913C166.22 212.664 166.393 212.424 166.568 212.183C166.743 211.943 166.921 211.705 167.108 211.473C167.295 211.242 167.489 211.015 167.688 210.793C167.887 210.572 168.088 210.354 168.298 210.143C168.508 209.932 168.727 209.733 168.948 209.533C169.168 209.333 169.387 209.132 169.618 208.943C169.848 208.755 170.088 208.58 170.328 208.403C170.568 208.227 170.809 208.057 171.058 207.893C171.306 207.729 171.561 207.564 171.818 207.413C172.074 207.262 172.334 207.121 172.598 206.983C172.862 206.846 173.127 206.717 173.398 206.593C173.669 206.469 173.941 206.353 174.218 206.243C174.494 206.133 174.776 206.029 175.058 205.933C175.34 205.838 175.621 205.744 175.908 205.663C176.194 205.582 176.488 205.509 176.778 205.443C177.068 205.377 177.355 205.324 177.648 205.273C177.941 205.222 178.232 205.179 178.528 205.143C178.823 205.107 179.121 205.074 179.418 205.053C179.715 205.032 180.01 205.013 180.308 205.013C180.606 205.013 180.91 205.023 181.208 205.023C181.505 205.023 181.801 205.049 182.098 205.073C182.395 205.098 182.693 205.123 182.988 205.163C183.283 205.203 183.576 205.258 183.868 205.313C184.161 205.368 184.449 205.423 184.738 205.493C185.027 205.563 185.313 205.639 185.598 205.723C184.075 207.018 182.502 208.249 180.878 209.413C179.254 210.578 177.582 211.676 175.868 212.703C172.044 214.975 167.968 216.973 163.648 218.653L163.648 218.643ZM92.248 218.643C90.1317 217.822 88.0487 216.917 86.008 215.923C83.9672 214.93 81.9792 213.853 80.028 212.693C78.3107 211.671 76.6322 210.578 75.008 209.413C73.3837 208.248 71.8175 207.022 70.298 205.723C70.5832 205.638 70.8687 205.553 71.158 205.483C71.4473 205.413 71.7352 205.358 72.028 205.303C72.3205 205.248 72.613 205.193 72.908 205.153C73.203 205.113 73.5013 205.088 73.798 205.063C74.0947 205.038 74.3905 205.013 74.688 205.013C74.9857 205.013 75.2902 205.003 75.588 205.003C75.8855 205.003 76.181 205.022 76.478 205.043C76.775 205.064 77.0725 205.087 77.368 205.123C77.6635 205.159 77.9547 205.212 78.248 205.263C78.5412 205.314 78.8377 205.367 79.128 205.433C79.4182 205.499 79.7015 205.572 79.988 205.653C80.2745 205.734 80.556 205.828 80.838 205.923C81.1197 206.019 81.4012 206.123 81.678 206.233C81.9547 206.343 82.2272 206.459 82.498 206.583C82.7687 206.707 83.034 206.836 83.298 206.973C83.562 207.111 83.8215 207.252 84.078 207.403C84.3347 207.554 84.5895 207.709 84.838 207.873C85.0865 208.037 85.3282 208.207 85.568 208.383C85.8077 208.56 86.0477 208.745 86.278 208.933C86.5082 209.122 86.7375 209.323 86.958 209.523C87.1782 209.723 87.3882 209.922 87.598 210.133C87.808 210.344 88.0092 210.562 88.208 210.783C88.4067 211.005 88.6007 211.232 88.788 211.463C88.9752 211.695 89.163 211.933 89.338 212.173C89.513 212.414 89.6755 212.664 89.838 212.913C90.0002 213.163 90.1585 213.416 90.308 213.673C90.4575 213.931 90.602 214.189 90.738 214.453C90.874 214.718 91.0057 214.982 91.128 215.253C91.2502 215.525 91.3597 215.806 91.468 216.083C91.5762 216.361 91.6742 216.641 91.768 216.923C91.8617 217.206 91.9487 217.486 92.028 217.773C92.1072 218.06 92.1835 218.353 92.248 218.643ZM167.328 163.503C154.232 163.503 143.578 152.857 143.578 139.753C143.578 126.649 154.224 116.003 167.328 116.003C180.432 116.003 191.078 126.649 191.078 139.753C191.078 152.857 180.432 163.503 167.328 163.503ZM88.578 163.503C75.482 163.503 64.828 152.857 64.828 139.753C64.828 126.649 75.474 116.003 88.578 116.003C101.682 116.003 112.328 126.649 112.328 139.753C112.328 152.857 101.682 163.503 88.578 163.503ZM167.328 118.503C179.056 118.503 188.578 128.033 188.578 139.753C188.578 151.473 179.048 161.003 167.328 161.003C155.608 161.003 146.078 151.473 146.078 139.753C146.078 128.033 155.608 118.503 167.328 118.503ZM88.578 118.503C100.306 118.503 109.828 128.033 109.828 139.753C109.828 151.473 100.298 161.003 88.578 161.003C76.858 161.003 67.328 151.473 67.328 139.753C67.328 128.033 76.882 118.503 88.578 118.503ZM76.748 207.573C76.8807 207.587 77.0157 207.606 77.148 207.623C77.2805 207.64 77.4162 207.653 77.548 207.673C77.68 207.694 77.8067 207.719 77.938 207.743C78.0692 207.767 78.2075 207.796 78.338 207.823C78.4688 207.851 78.5982 207.882 78.728 207.913C78.8577 207.944 78.989 207.979 79.118 208.013C79.247 208.048 79.37 208.075 79.498 208.113C79.626 208.151 79.7513 208.192 79.878 208.233C80.005 208.275 80.1322 208.319 80.258 208.363C80.3837 208.408 80.5132 208.455 80.638 208.503C80.7625 208.551 80.8847 208.602 81.008 208.653C81.1312 208.705 81.2562 208.759 81.378 208.813C81.4997 208.868 81.6177 208.925 81.738 208.983C81.8582 209.041 81.9792 209.102 82.098 209.163C82.2167 209.224 82.331 209.279 82.448 209.343C82.565 209.407 82.6827 209.476 82.798 209.543C82.9132 209.611 83.0247 209.683 83.138 209.753C83.2515 209.824 83.3667 209.89 83.478 209.963C83.5895 210.037 83.6985 210.117 83.808 210.193C83.9175 210.27 84.0307 210.344 84.138 210.423C84.2455 210.503 84.3527 210.591 84.458 210.673C84.5632 210.755 84.665 210.838 84.768 210.923C84.871 211.008 84.9672 211.086 85.068 211.173C85.1687 211.261 85.2697 211.353 85.368 211.443C85.4662 211.534 85.5622 211.63 85.658 211.723C85.7537 211.816 85.8547 211.908 85.948 212.003C86.0412 212.099 86.1272 212.195 86.218 212.293C86.3087 212.391 86.4 212.493 86.488 212.593C86.5762 212.694 86.6627 212.791 86.748 212.893C86.8332 212.996 86.9155 213.098 86.998 213.203C87.0807 213.308 87.1682 213.416 87.248 213.523C87.3277 213.63 87.4012 213.734 87.478 213.843C85.606 212.947 83.7792 211.982 81.988 210.933C80.197 209.885 78.4457 208.757 76.748 207.563M179.148 207.573C177.453 208.772 175.719 209.895 173.928 210.943C172.137 211.992 170.303 212.962 168.428 213.853C168.505 213.744 168.578 213.64 168.658 213.533C168.738 213.426 168.815 213.318 168.898 213.213C168.98 213.108 169.073 213.006 169.158 212.903C169.243 212.801 169.33 212.694 169.418 212.593C169.506 212.493 169.587 212.401 169.678 212.303C169.769 212.205 169.865 212.109 169.958 212.013C170.051 211.918 170.142 211.816 170.238 211.723C170.334 211.63 170.44 211.544 170.538 211.453C170.636 211.363 170.727 211.271 170.828 211.183C170.929 211.096 171.035 211.008 171.138 210.923C171.241 210.838 171.343 210.755 171.448 210.673C171.553 210.591 171.661 210.513 171.768 210.433C171.875 210.354 171.988 210.28 172.098 210.203C172.207 210.127 172.316 210.047 172.428 209.973C172.539 209.9 172.645 209.834 172.758 209.763C172.871 209.693 172.993 209.621 173.108 209.553C173.223 209.486 173.341 209.418 173.458 209.353C173.575 209.289 173.689 209.224 173.808 209.163C173.927 209.102 174.048 209.041 174.168 208.983C174.288 208.925 174.406 208.878 174.528 208.823C174.65 208.769 174.775 208.715 174.898 208.663C175.021 208.612 175.143 208.561 175.268 208.513C175.393 208.465 175.522 208.418 175.648 208.373C175.774 208.328 175.891 208.284 176.018 208.243C176.145 208.202 176.28 208.161 176.408 208.123C176.536 208.085 176.659 208.048 176.788 208.013C176.917 207.979 177.048 207.944 177.178 207.913C177.308 207.882 177.437 207.861 177.568 207.833C177.699 207.806 177.827 207.777 177.958 207.753C178.089 207.729 178.226 207.704 178.358 207.683C178.49 207.663 178.626 207.65 178.758 207.633C178.891 207.616 179.015 207.597 179.148 207.583M167.328 113.503C166.898 113.503 166.467 113.512 166.038 113.533C165.609 113.554 165.185 113.591 164.758 113.633C164.331 113.675 163.903 113.72 163.478 113.783C163.053 113.846 162.629 113.919 162.208 114.003C161.787 114.087 161.365 114.189 160.948 114.293C160.531 114.397 160.119 114.509 159.708 114.633C159.297 114.758 158.892 114.889 158.488 115.033C158.084 115.178 157.685 115.339 157.288 115.503C156.891 115.668 156.496 115.84 156.108 116.023C155.72 116.207 155.337 116.401 154.958 116.603C154.579 116.806 154.206 117.012 153.838 117.233C153.47 117.454 153.105 117.685 152.748 117.923C152.391 118.162 152.043 118.407 151.698 118.663C151.353 118.919 151.01 119.181 150.678 119.453C150.346 119.726 150.026 120.015 149.708 120.303C149.39 120.592 149.072 120.88 148.768 121.183C148.464 121.487 148.176 121.805 147.888 122.123C147.6 122.441 147.311 122.761 147.038 123.093C146.766 123.425 146.504 123.768 146.248 124.113C145.992 124.458 145.747 124.806 145.508 125.163C145.269 125.52 145.039 125.885 144.818 126.253C144.597 126.622 144.391 126.995 144.188 127.373C143.986 127.752 143.792 128.135 143.608 128.523C143.424 128.911 143.252 129.306 143.088 129.703C142.923 130.1 142.763 130.499 142.618 130.903C142.473 131.308 142.343 131.712 142.218 132.123C142.093 132.534 141.973 132.947 141.868 133.363C141.764 133.78 141.672 134.202 141.588 134.623C141.504 135.044 141.431 135.469 141.368 135.893C141.305 136.318 141.25 136.736 141.208 137.163C141.166 137.591 141.139 138.024 141.118 138.453C141.097 138.882 141.088 139.314 141.088 139.743C141.088 140.173 141.097 140.594 141.118 141.023C141.139 141.452 141.166 141.886 141.208 142.313C141.25 142.741 141.305 143.168 141.368 143.593C141.431 144.018 141.504 144.442 141.588 144.863C141.672 145.284 141.764 145.697 141.868 146.113C141.972 146.53 142.083 146.942 142.208 147.353C142.332 147.764 142.473 148.179 142.618 148.583C142.763 148.988 142.914 149.386 143.078 149.783C143.242 150.18 143.414 150.575 143.598 150.963C143.782 151.351 143.976 151.734 144.178 152.113C144.38 152.492 144.597 152.865 144.818 153.233C145.039 153.602 145.27 153.966 145.508 154.323C145.746 154.68 145.992 155.028 146.248 155.373C146.504 155.718 146.766 156.051 147.038 156.383C147.31 156.715 147.59 157.045 147.878 157.363C148.166 157.681 148.464 157.989 148.768 158.293C149.072 158.597 149.38 158.895 149.698 159.183C150.016 159.472 150.346 159.751 150.678 160.023C151.01 160.296 151.343 160.557 151.688 160.813C152.033 161.069 152.381 161.325 152.738 161.563C153.095 161.802 153.46 162.032 153.828 162.253C154.196 162.474 154.569 162.681 154.948 162.883C155.327 163.086 155.71 163.28 156.098 163.463C156.486 163.647 156.881 163.819 157.278 163.983C157.675 164.148 158.074 164.309 158.478 164.453C158.882 164.598 159.297 164.728 159.708 164.853C160.119 164.978 160.531 165.089 160.948 165.193C161.365 165.298 161.777 165.399 162.198 165.483C162.619 165.567 163.043 165.64 163.468 165.703C163.893 165.766 164.321 165.811 164.748 165.853C165.175 165.895 165.599 165.932 166.028 165.953C166.457 165.974 166.888 165.983 167.318 165.983C167.747 165.983 168.179 165.974 168.608 165.953C169.037 165.932 169.461 165.895 169.888 165.853C170.315 165.811 170.743 165.766 171.168 165.703C171.593 165.64 172.017 165.567 172.438 165.483C172.859 165.4 173.281 165.308 173.698 165.203C174.115 165.099 174.527 164.978 174.938 164.853C175.349 164.729 175.754 164.598 176.158 164.453C176.562 164.309 176.961 164.157 177.358 163.993C177.755 163.829 178.15 163.647 178.538 163.463C178.926 163.28 179.309 163.086 179.688 162.883C180.067 162.681 180.439 162.474 180.808 162.253C181.176 162.033 181.541 161.802 181.898 161.563C182.255 161.325 182.603 161.079 182.948 160.823C183.293 160.568 183.636 160.306 183.968 160.033C184.3 159.761 184.62 159.482 184.938 159.193C185.256 158.905 185.574 158.607 185.878 158.303C186.182 158 186.48 157.691 186.768 157.373C187.056 157.055 187.335 156.725 187.608 156.393C187.88 156.061 188.142 155.728 188.398 155.383C188.654 155.038 188.899 154.68 189.138 154.323C189.377 153.966 189.607 153.602 189.828 153.233C190.049 152.865 190.266 152.492 190.468 152.113C190.671 151.735 190.864 151.351 191.048 150.963C191.232 150.575 191.404 150.19 191.568 149.793C191.732 149.397 191.883 148.988 192.028 148.583C192.173 148.179 192.313 147.774 192.438 147.363C192.563 146.952 192.673 146.54 192.778 146.123C192.882 145.707 192.974 145.284 193.058 144.863C193.142 144.442 193.215 144.028 193.278 143.603C193.341 143.178 193.396 142.751 193.438 142.323C193.48 141.896 193.507 141.462 193.528 141.033C193.549 140.604 193.568 140.173 193.568 139.743C193.568 139.314 193.549 138.892 193.528 138.463C193.507 138.034 193.48 137.601 193.438 137.173C193.396 136.746 193.341 136.318 193.278 135.893C193.215 135.468 193.142 135.054 193.058 134.633C192.974 134.212 192.882 133.79 192.778 133.373C192.674 132.957 192.563 132.544 192.438 132.133C192.313 131.722 192.173 131.308 192.028 130.903C191.883 130.499 191.732 130.1 191.568 129.703C191.404 129.307 191.231 128.922 191.048 128.533C190.864 128.145 190.67 127.752 190.468 127.373C190.266 126.995 190.049 126.622 189.828 126.253C189.607 125.885 189.386 125.53 189.148 125.173C188.91 124.816 188.654 124.458 188.398 124.113C188.142 123.768 187.88 123.435 187.608 123.103C187.336 122.771 187.056 122.441 186.768 122.123C186.48 121.805 186.182 121.497 185.878 121.193C185.574 120.89 185.266 120.592 184.948 120.303C184.63 120.015 184.31 119.736 183.978 119.463C183.646 119.191 183.303 118.929 182.958 118.673C182.613 118.417 182.265 118.172 181.908 117.933C181.551 117.695 181.186 117.464 180.818 117.243C180.45 117.022 180.077 116.806 179.698 116.603C179.319 116.401 178.936 116.207 178.548 116.023C178.16 115.84 177.765 115.668 177.368 115.503C176.971 115.339 176.572 115.188 176.168 115.043C175.764 114.899 175.359 114.758 174.948 114.633C174.537 114.509 174.124 114.398 173.708 114.293C173.291 114.189 172.869 114.097 172.448 114.013C172.027 113.929 171.603 113.856 171.178 113.793C170.753 113.73 170.325 113.675 169.898 113.633C169.471 113.591 169.047 113.554 168.618 113.533C168.189 113.512 167.757 113.503 167.328 113.503ZM88.578 113.503C88.1485 113.503 87.7167 113.512 87.288 113.533C86.859 113.554 86.4352 113.591 86.008 113.633C85.5807 113.675 85.1527 113.72 84.728 113.783C84.3032 113.846 83.8792 113.919 83.458 114.003C83.0367 114.087 82.6147 114.189 82.198 114.293C81.7815 114.397 81.369 114.509 80.958 114.633C80.547 114.758 80.1422 114.889 79.738 115.033C79.3337 115.178 78.9347 115.339 78.538 115.503C78.1413 115.667 77.7462 115.84 77.358 116.023C76.9697 116.207 76.5867 116.401 76.208 116.603C75.8292 116.806 75.4565 117.012 75.088 117.233C74.7197 117.454 74.355 117.685 73.998 117.923C73.6407 118.162 73.293 118.407 72.948 118.663C72.603 118.919 72.26 119.181 71.928 119.453C71.596 119.726 71.2762 120.015 70.958 120.303C70.6397 120.592 70.3217 120.88 70.018 121.183C69.7142 121.487 69.4162 121.805 69.128 122.123C68.8395 122.441 68.5605 122.761 68.288 123.093C68.0155 123.425 67.7537 123.768 67.498 124.113C67.2422 124.458 66.9967 124.806 66.758 125.163C66.5192 125.52 66.2887 125.885 66.068 126.253C65.8472 126.622 65.6305 126.995 65.428 127.373C65.2255 127.752 65.0417 128.135 64.858 128.523C64.6742 128.911 64.4922 129.306 64.328 129.703C64.1635 130.1 64.0127 130.499 63.868 130.903C63.7232 131.308 63.5927 131.712 63.468 132.123C63.3432 132.534 63.2225 132.947 63.118 133.363C63.0137 133.78 62.9217 134.202 62.838 134.623C62.7542 135.044 62.6812 135.469 62.618 135.893C62.555 136.318 62.5002 136.736 62.458 137.163C62.4157 137.591 62.3892 138.024 62.368 138.453C62.3467 138.882 62.328 139.314 62.328 139.743C62.328 140.173 62.347 140.594 62.368 141.023C62.389 141.452 62.416 141.886 62.458 142.313C62.5 142.741 62.555 143.168 62.618 143.593C62.6807 144.018 62.7542 144.442 62.838 144.863C62.9217 145.284 63.0137 145.697 63.118 146.113C63.2222 146.53 63.3332 146.942 63.458 147.353C63.5825 147.764 63.7232 148.179 63.868 148.583C64.0127 148.988 64.1637 149.386 64.328 149.783C64.4922 150.18 64.6645 150.575 64.848 150.963C65.0317 151.351 65.2257 151.734 65.428 152.113C65.6302 152.492 65.8472 152.865 66.068 153.233C66.2887 153.602 66.5095 153.966 66.748 154.323C66.9865 154.68 67.2422 155.028 67.498 155.373C67.7537 155.718 68.0155 156.051 68.288 156.383C68.5602 156.715 68.8397 157.045 69.128 157.363C69.4162 157.681 69.7142 157.989 70.018 158.293C70.3215 158.597 70.6297 158.895 70.948 159.183C71.2663 159.472 71.586 159.751 71.918 160.023C72.2497 160.296 72.593 160.557 72.938 160.813C73.2827 161.069 73.631 161.325 73.988 161.563C74.345 161.802 74.7097 162.032 75.078 162.253C75.4462 162.474 75.8192 162.681 76.198 162.883C76.5767 163.086 76.9597 163.28 77.348 163.463C77.7362 163.647 78.1312 163.819 78.528 163.983C78.9247 164.148 79.3237 164.309 79.728 164.453C80.1322 164.598 80.5372 164.728 80.948 164.853C81.359 164.978 81.7715 165.089 82.188 165.193C82.6047 165.298 83.0267 165.399 83.448 165.483C83.8692 165.567 84.2932 165.64 84.718 165.703C85.1427 165.766 85.5707 165.811 85.998 165.853C86.4252 165.895 86.849 165.932 87.278 165.953C87.7067 165.974 88.1385 165.983 88.568 165.983C88.9975 165.983 89.4292 165.974 89.858 165.953C90.287 165.932 90.7107 165.895 91.138 165.853C91.5652 165.811 91.9932 165.766 92.418 165.703C92.8427 165.64 93.2667 165.567 93.688 165.483C94.1092 165.4 94.5312 165.308 94.948 165.203C95.3645 165.099 95.777 164.978 96.188 164.853C96.599 164.729 97.0037 164.598 97.408 164.453C97.8122 164.309 98.2112 164.148 98.608 163.983C99.0047 163.819 99.3997 163.647 99.788 163.463C100.176 163.28 100.559 163.086 100.938 162.883C101.317 162.681 101.69 162.474 102.058 162.253C102.426 162.033 102.791 161.802 103.148 161.563C103.505 161.325 103.853 161.079 104.198 160.823C104.543 160.568 104.886 160.306 105.218 160.033C105.55 159.761 105.87 159.482 106.188 159.193C106.506 158.905 106.824 158.607 107.128 158.303C107.432 158 107.72 157.691 108.008 157.373C108.296 157.055 108.585 156.725 108.858 156.393C109.13 156.061 109.392 155.728 109.648 155.383C109.904 155.038 110.149 154.68 110.388 154.323C110.627 153.966 110.857 153.602 111.078 153.233C111.299 152.865 111.505 152.492 111.708 152.113C111.91 151.735 112.104 151.351 112.288 150.963C112.472 150.575 112.654 150.19 112.818 149.793C112.982 149.397 113.133 148.988 113.278 148.583C113.423 148.179 113.553 147.774 113.678 147.363C113.803 146.952 113.923 146.54 114.028 146.123C114.132 145.707 114.224 145.284 114.308 144.863C114.392 144.442 114.465 144.028 114.528 143.603C114.591 143.178 114.646 142.751 114.688 142.323C114.73 141.896 114.757 141.462 114.778 141.033C114.799 140.604 114.808 140.173 114.808 139.743C114.808 139.314 114.799 138.892 114.778 138.463C114.757 138.034 114.73 137.601 114.688 137.173C114.646 136.746 114.591 136.318 114.528 135.893C114.465 135.468 114.392 135.054 114.308 134.633C114.224 134.212 114.132 133.79 114.028 133.373C113.924 132.957 113.813 132.544 113.688 132.133C113.563 131.722 113.422 131.308 113.278 130.903C113.133 130.499 112.982 130.1 112.818 129.703C112.654 129.307 112.481 128.922 112.298 128.533C112.114 128.145 111.92 127.752 111.718 127.373C111.516 126.995 111.299 126.622 111.078 126.253C110.857 125.885 110.626 125.53 110.388 125.173C110.149 124.816 109.904 124.458 109.648 124.113C109.392 123.768 109.13 123.435 108.858 123.103C108.586 122.771 108.306 122.441 108.018 122.123C107.73 121.805 107.432 121.497 107.128 121.193C106.824 120.89 106.516 120.592 106.198 120.303C105.88 120.015 105.55 119.736 105.218 119.463C104.886 119.191 104.553 118.929 104.208 118.673C103.863 118.417 103.515 118.172 103.158 117.933C102.801 117.695 102.436 117.464 102.068 117.243C101.7 117.022 101.327 116.806 100.948 116.603C100.569 116.401 100.186 116.207 99.798 116.023C99.4097 115.84 99.0147 115.668 98.618 115.503C98.2212 115.339 97.8222 115.188 97.418 115.043C97.0137 114.898 96.6087 114.758 96.198 114.633C95.787 114.509 95.3645 114.398 94.948 114.293C94.5312 114.189 94.1192 114.097 93.698 114.013C93.2767 113.929 92.8527 113.856 92.428 113.793C92.0032 113.73 91.5752 113.675 91.148 113.633C90.7207 113.591 90.297 113.554 89.868 113.533C89.4392 113.512 89.0075 113.503 88.578 113.503ZM180.628 202.503C180.303 202.503 179.972 202.517 179.648 202.533C179.324 202.549 179.001 202.571 178.678 202.603C178.355 202.635 178.029 202.675 177.708 202.723C177.387 202.771 177.067 202.82 176.748 202.883C176.429 202.947 176.113 203.024 175.798 203.103C175.483 203.182 175.169 203.269 174.858 203.363C174.547 203.458 174.244 203.554 173.938 203.663C173.632 203.773 173.328 203.899 173.028 204.023C172.728 204.148 172.432 204.274 172.138 204.413C171.844 204.552 171.554 204.7 171.268 204.853C170.981 205.006 170.697 205.166 170.418 205.333C170.139 205.5 169.868 205.673 169.598 205.853C169.328 206.034 169.059 206.22 168.798 206.413C168.537 206.607 168.279 206.807 168.028 207.013C167.777 207.219 167.529 207.435 167.288 207.653C167.047 207.871 166.818 208.094 166.588 208.323C166.358 208.553 166.136 208.783 165.918 209.023C165.7 209.264 165.484 209.512 165.278 209.763C165.072 210.014 164.872 210.273 164.678 210.533C164.484 210.794 164.299 211.053 164.118 211.323C163.937 211.593 163.755 211.875 163.588 212.153C163.421 212.432 163.261 212.707 163.108 212.993C162.954 213.28 162.807 213.57 162.668 213.863C162.529 214.157 162.403 214.453 162.278 214.753C162.153 215.053 162.038 215.358 161.928 215.663C161.818 215.969 161.713 216.283 161.618 216.593C161.523 216.904 161.438 217.218 161.358 217.533C161.279 217.848 161.202 218.165 161.138 218.483C161.074 218.802 161.016 219.122 160.968 219.443C160.92 219.765 160.88 220.08 160.848 220.403C160.816 220.727 160.795 221.049 160.778 221.373C160.761 221.698 160.748 222.028 160.748 222.353C162.178 221.878 163.596 221.366 164.998 220.813C166.4 220.26 167.788 219.662 169.158 219.033C170.528 218.405 171.874 217.746 173.208 217.043C174.541 216.341 175.855 215.598 177.148 214.823C178.323 214.125 179.485 213.397 180.618 212.633C181.751 211.869 182.86 211.071 183.948 210.243C185.036 209.416 186.099 208.561 187.138 207.673C188.177 206.785 189.191 205.869 190.178 204.923C189.813 204.726 189.444 204.538 189.068 204.363C188.692 204.189 188.305 204.024 187.918 203.873C187.531 203.722 187.143 203.58 186.748 203.453C186.353 203.327 185.95 203.215 185.548 203.113C185.146 203.011 184.746 202.92 184.338 202.843C183.93 202.766 183.52 202.705 183.108 202.653C182.696 202.602 182.282 202.559 181.868 202.533C181.454 202.507 181.043 202.493 180.628 202.493L180.628 202.503ZM75.268 202.503C71.868 202.503 68.598 203.377 65.718 204.953C66.708 205.895 67.7277 206.807 68.768 207.693C69.8085 208.579 70.8702 209.436 71.958 210.263C73.0457 211.09 74.1562 211.887 75.288 212.653C76.4197 213.419 77.5755 214.151 78.748 214.853C80.0432 215.623 81.3537 216.363 82.688 217.063C84.0222 217.764 85.3785 218.425 86.748 219.053C88.1177 219.682 89.4972 220.278 90.898 220.833C92.299 221.389 93.7197 221.903 95.148 222.383C95.148 222.058 95.1342 221.738 95.118 221.413C95.1017 221.088 95.0802 220.757 95.048 220.433C95.016 220.11 94.976 219.795 94.928 219.473C94.8802 219.152 94.8217 218.832 94.758 218.513C94.6942 218.194 94.6272 217.869 94.548 217.553C94.4687 217.238 94.3825 216.924 94.288 216.613C94.1935 216.302 94.0877 215.999 93.978 215.693C93.8682 215.387 93.7525 215.084 93.628 214.783C93.5035 214.483 93.3672 214.187 93.228 213.893C93.0887 213.599 92.9412 213.31 92.788 213.023C92.6347 212.737 92.4752 212.452 92.308 212.173C92.1407 211.894 91.9687 211.614 91.788 211.343C91.6072 211.073 91.4217 210.814 91.228 210.553C91.0342 210.292 90.8342 210.035 90.628 209.783C90.4217 209.532 90.2065 209.284 89.988 209.043C89.7697 208.802 89.5477 208.563 89.318 208.333C89.088 208.103 88.8487 207.882 88.608 207.663C88.367 207.445 88.1292 207.229 87.878 207.023C87.6267 206.817 87.3692 206.617 87.108 206.423C86.8467 206.23 86.5782 206.044 86.308 205.863C86.0377 205.683 85.7667 205.511 85.488 205.343C85.2092 205.176 84.9247 205.017 84.638 204.863C84.3512 204.71 84.0617 204.562 83.768 204.423C83.4742 204.284 83.1782 204.158 82.878 204.033C82.5777 203.909 82.2742 203.783 81.968 203.673C81.662 203.564 81.3492 203.468 81.038 203.373C80.7267 203.279 80.4132 203.192 80.098 203.113C79.7827 203.034 79.4668 202.957 79.148 202.893C78.8292 202.83 78.5098 202.781 78.188 202.733C77.8665 202.685 77.5417 202.645 77.218 202.613C76.8945 202.581 76.5727 202.549 76.248 202.533C75.9232 202.517 75.5932 202.513 75.268 202.513L75.268 202.503ZM121.748 106.753L134.258 106.753L134.258 236.253L121.748 236.253L121.748 106.753Z">
</path>
<path d="M103 139.5C103 148.06 96.0604 155 87.5 155C78.9396 155 72 148.06 72 139.5C72 130.94 78.9396 124 87.5 124C96.0604 124 103 130.94 103 139.5ZM79.75 139.5C79.75 143.78 83.2198 147.25 87.5 147.25C91.7802 147.25 95.25 143.78 95.25 139.5C95.25 135.22 91.7802 131.75 87.5 131.75C83.2198 131.75 79.75 135.22 79.75 139.5Z" fill-rule="evenodd"  fill="#FFC300" >
</path>
<path d="M184 139.5C184 148.06 177.06 155 168.5 155C159.94 155 153 148.06 153 139.5C153 130.94 159.94 124 168.5 124C177.06 124 184 130.94 184 139.5ZM160.75 139.5C160.75 143.78 164.22 147.25 168.5 147.25C172.78 147.25 176.25 143.78 176.25 139.5C176.25 135.22 172.78 131.75 168.5 131.75C164.22 131.75 160.75 135.22 160.75 139.5Z" fill-rule="evenodd"  fill="#FFC300" >
</path>
</svg>
