<!--
  - Copyright (c) 2025 周潮. All rights reserved.
  - Licensed under the Apache License, Version 2.0 (the "License");
  -  you may not use this file except in compliance with the License.
  -  You may obtain a copy of the License at
  -
  -       https://www.apache.org/licenses/LICENSE-2.0
  -
  -  Unless required by applicable law or agreed to in writing, software
  -  distributed under the License is distributed on an "AS IS" BASIS,
  -  WITHOUT WARRANTIES OR CONDITIONS OF ANY KIND, either express or implied.
  -  See the License for the specific language governing permissions and
  -  limitations under the License.
  -->

<svg xmlns="http://www.w3.org/2000/svg" xmlns:xlink="http://www.w3.org/1999/xlink" width="16" height="16" viewBox="0 0 16 16" fill="none">
<path     fill="#FFC300"  d="M3.51549 7.32208L1.52674 5.33271C1.52224 5.32816 1.51788 5.32371 1.51361 5.31896C1.50934 5.31419 1.50515 5.30954 1.50111 5.30458C1.49708 5.29961 1.49302 5.29472 1.48924 5.28958C1.48545 5.28443 1.48152 5.27866 1.47799 5.27333C1.47446 5.268 1.47125 5.26319 1.46799 5.25771C1.46472 5.25221 1.46161 5.24647 1.45861 5.24083C1.45562 5.23518 1.45258 5.22911 1.44986 5.22333C1.44715 5.21755 1.44479 5.21174 1.44236 5.20583C1.43993 5.19993 1.43763 5.19435 1.43549 5.18833C1.43335 5.1823 1.43108 5.17571 1.42924 5.16958C1.42739 5.16346 1.42578 5.15766 1.42424 5.15146C1.4227 5.14525 1.42173 5.13897 1.42049 5.13271C1.41925 5.12643 1.41767 5.12027 1.41674 5.11396C1.4158 5.10763 1.41486 5.10093 1.41486 5.09458C1.41486 5.08821 1.41299 5.08221 1.41299 5.07583C1.41299 5.06946 1.41299 5.06285 1.41299 5.05646C1.41299 5.05005 1.41299 5.04346 1.41299 5.03708C1.41299 5.03069 1.41486 5.02469 1.41486 5.01833C1.41486 5.01197 1.4158 5.00527 1.41674 4.99896C1.41767 4.99263 1.41925 4.98647 1.42049 4.98021C1.42173 4.97393 1.4227 4.96764 1.42424 4.96146C1.42578 4.95524 1.42739 4.94944 1.42924 4.94333C1.43108 4.93721 1.43335 4.93124 1.43549 4.92521C1.43763 4.91918 1.43993 4.91299 1.44236 4.90708C1.44479 4.90118 1.44715 4.89536 1.44986 4.88958C1.45258 4.8838 1.45562 4.87772 1.45861 4.87208C1.46161 4.86643 1.46472 4.86132 1.46799 4.85583C1.47125 4.85033 1.47446 4.8449 1.47799 4.83958C1.48152 4.83424 1.48545 4.8291 1.48924 4.82396C1.49302 4.8188 1.49708 4.81329 1.50111 4.80833C1.50515 4.80336 1.50934 4.79871 1.51361 4.79396C1.51788 4.78919 1.52224 4.78474 1.52674 4.78021C1.53128 4.77571 1.53573 4.77135 1.54049 4.76708C1.54524 4.76282 1.5499 4.75861 1.55486 4.75458C1.55982 4.75054 1.56472 4.74649 1.56986 4.74271C1.57501 4.73891 1.58078 4.73499 1.58611 4.73146C1.59144 4.72793 1.59686 4.72472 1.60236 4.72146C1.60785 4.71818 1.61297 4.71507 1.61861 4.71208C1.62426 4.70908 1.63033 4.70604 1.63611 4.70333C1.64189 4.70061 1.6477 4.69827 1.65361 4.69583C1.65952 4.6934 1.66509 4.69108 1.67111 4.68896C1.67713 4.6868 1.68374 4.68455 1.68986 4.68271C1.69598 4.68086 1.70178 4.67924 1.70799 4.67771C1.71419 4.67616 1.72047 4.67519 1.72674 4.67396C1.73301 4.67271 1.73916 4.67113 1.74549 4.67021C1.75181 4.66927 1.75851 4.66833 1.76486 4.66833C1.77123 4.66833 1.77723 4.66646 1.78361 4.66646C1.78999 4.66646 1.79659 4.66646 1.80299 4.66646C1.80938 4.66646 1.81599 4.66646 1.82236 4.66646C1.82875 4.66646 1.83475 4.66833 1.84111 4.66833C1.84747 4.66833 1.85416 4.66927 1.86049 4.67021C1.86681 4.67113 1.87297 4.67271 1.87924 4.67396C1.88551 4.67519 1.89179 4.67616 1.89799 4.67771C1.9042 4.67924 1.91 4.68086 1.91611 4.68271C1.92224 4.68455 1.92884 4.6868 1.93486 4.68896C1.94088 4.69108 1.94646 4.6934 1.95236 4.69583C1.95828 4.69827 1.96408 4.70061 1.96986 4.70333C1.97564 4.70604 1.98172 4.70908 1.98736 4.71208C1.99301 4.71507 1.99811 4.71818 2.00361 4.72146C2.0091 4.72472 2.01454 4.72793 2.01986 4.73146C2.02519 4.73499 2.03097 4.73891 2.03611 4.74271C2.04126 4.74649 2.04615 4.75055 2.05111 4.75458C2.05607 4.75861 2.06073 4.76282 2.06549 4.76708C2.07024 4.77135 2.07469 4.77571 2.07924 4.78021L4.06861 6.76896C4.22011 6.92045 4.22011 7.16908 4.06861 7.32208C4.06406 7.32658 4.05961 7.33092 4.05486 7.3352C4.05009 7.33945 4.04481 7.34366 4.03986 7.3477C4.03491 7.35174 4.03 7.3558 4.02486 7.35958C4.01972 7.36336 4.01456 7.36667 4.00923 7.3702C4.00391 7.37372 3.99847 7.37692 3.99299 7.3802C3.98748 7.38347 3.98175 7.3872 3.97611 7.3902C3.97047 7.3932 3.96502 7.39561 3.95923 7.39833C3.95345 7.40105 3.94766 7.40402 3.94174 7.40645C3.93583 7.40888 3.92963 7.41119 3.92361 7.41333C3.91759 7.41547 3.91161 7.41711 3.90548 7.41895C3.89938 7.4208 3.89294 7.42241 3.88673 7.42395C3.88053 7.42549 3.87425 7.42708 3.86799 7.42833C3.86172 7.42956 3.85556 7.43052 3.84924 7.43145C3.84291 7.43239 3.83684 7.43333 3.83049 7.43395C3.82413 7.43395 3.8175 7.4352 3.81111 7.4352C3.80472 7.4352 3.79813 7.43583 3.79174 7.43583C3.78534 7.43583 3.77936 7.4352 3.77299 7.4352C3.76659 7.4352 3.75997 7.43395 3.75361 7.43395C3.74725 7.43333 3.74119 7.43239 3.73486 7.43145C3.72853 7.43052 3.72238 7.42956 3.71611 7.42833C3.70984 7.42708 3.70356 7.42549 3.69736 7.42395C3.69116 7.42241 3.68472 7.4208 3.67861 7.41895C3.67249 7.41711 3.6665 7.41547 3.66049 7.41333C3.65447 7.41119 3.64827 7.40888 3.64236 7.40645C3.63644 7.40402 3.63064 7.40105 3.62486 7.39833C3.61908 7.39561 3.61363 7.3932 3.60799 7.3902C3.60234 7.3872 3.59659 7.38347 3.59111 7.3802C3.58561 7.37692 3.58019 7.37372 3.57486 7.3702C3.56953 7.36667 3.56438 7.36336 3.55924 7.35958C3.55409 7.3558 3.54919 7.35174 3.54424 7.3477C3.53928 7.34366 3.534 7.33945 3.52924 7.3352C3.52449 7.33092 3.52003 7.32658 3.51549 7.32208ZM4.59423 9.19208C4.59423 9.18569 4.59361 9.17908 4.59361 9.1727C4.59361 9.16631 4.59237 9.1603 4.59173 9.15395C4.59109 9.14759 4.59081 9.14089 4.58986 9.13458C4.58891 9.12827 4.58737 9.12208 4.58611 9.11583C4.58484 9.10956 4.58392 9.10326 4.58236 9.09708C4.5808 9.09089 4.57859 9.08506 4.57673 9.07895C4.57487 9.07284 4.57328 9.06683 4.57111 9.06083C4.56895 9.05481 4.56669 9.04859 4.56423 9.0427C4.56178 9.0368 4.55884 9.03097 4.55611 9.0252C4.55337 9.01942 4.55037 9.01395 4.54736 9.00833C4.54434 9.00269 4.54128 8.99692 4.53798 8.99145C4.53469 8.98598 4.53153 8.98051 4.52798 8.9752C4.52444 8.96989 4.52055 8.9647 4.51673 8.95958C4.51294 8.95444 4.50891 8.94951 4.50486 8.94458C4.5008 8.93964 4.49664 8.93494 4.49236 8.9302C4.48806 8.92547 4.48375 8.92095 4.47923 8.91645C4.47472 8.91192 4.47022 8.90698 4.46548 8.9027C4.46075 8.89842 4.45603 8.89427 4.45111 8.8902C4.44617 8.88614 4.44123 8.88275 4.43611 8.87895C4.43097 8.87514 4.42578 8.87125 4.42048 8.8677C4.41517 8.86416 4.4097 8.86036 4.40423 8.85708C4.39875 8.85378 4.39298 8.8507 4.38736 8.8477C4.38172 8.84467 4.37625 8.8423 4.37048 8.83958C4.36472 8.83683 4.35888 8.83391 4.35298 8.83145C4.34709 8.829 4.34088 8.82673 4.33486 8.82458C4.32884 8.82241 4.32284 8.82017 4.31673 8.81833C4.31063 8.81645 4.30417 8.81489 4.29798 8.81333C4.29178 8.81177 4.28613 8.8102 4.27986 8.80895C4.27359 8.80769 4.2668 8.80676 4.26048 8.80583C4.25417 8.80487 4.24809 8.80397 4.24173 8.80333C4.23538 8.80269 4.22875 8.80208 4.22236 8.80208C4.21598 8.80208 4.21 8.80145 4.20361 8.80145L1.39111 8.80145C1.38472 8.80145 1.37812 8.80208 1.37174 8.80208C1.36536 8.80208 1.35935 8.8027 1.35299 8.80333C1.34663 8.80395 1.33993 8.80489 1.33361 8.80583C1.32729 8.80676 1.32113 8.8077 1.31486 8.80895C1.3086 8.8102 1.30231 8.81177 1.29611 8.81333C1.28991 8.81487 1.28348 8.81647 1.27736 8.81833C1.27125 8.82017 1.26526 8.82242 1.25924 8.82458C1.25322 8.82673 1.24764 8.82902 1.24174 8.83145C1.23583 8.83389 1.23002 8.83622 1.22424 8.83895C1.21846 8.84169 1.21237 8.84469 1.20674 8.8477C1.2011 8.8507 1.19597 8.85378 1.19049 8.85708C1.18501 8.86036 1.17955 8.86352 1.17424 8.86708C1.16892 8.87062 1.16375 8.87452 1.15861 8.87833C1.15348 8.88214 1.14793 8.88614 1.14299 8.8902C1.13805 8.89425 1.13335 8.89841 1.12861 8.9027C1.12388 8.90698 1.11938 8.9113 1.11486 8.91583C1.11034 8.92034 1.10603 8.92484 1.10174 8.92958C1.09745 8.93431 1.09329 8.93964 1.08924 8.94458C1.08518 8.94951 1.08117 8.95444 1.07736 8.95958C1.07356 8.9647 1.06966 8.96989 1.06611 8.9752C1.06256 8.98051 1.0594 8.98595 1.05611 8.99145C1.05283 8.99692 1.04975 9.00206 1.04674 9.0077C1.04373 9.01333 1.04072 9.01942 1.03799 9.0252C1.03526 9.03097 1.03293 9.0368 1.03049 9.0427C1.02804 9.04861 1.02577 9.05419 1.02361 9.0602C1.02146 9.06622 1.01922 9.07283 1.01736 9.07895C1.01551 9.08506 1.01392 9.09087 1.01236 9.09708C1.01081 9.10328 1.00924 9.10956 1.00799 9.11583C1.00674 9.12209 1.0058 9.12825 1.00486 9.13458C1.00393 9.14089 1.00299 9.14759 1.00236 9.15395C1.00174 9.16031 1.00111 9.16631 1.00111 9.1727C1.00111 9.17908 1.00049 9.18567 1.00049 9.19208C1.00049 9.19847 1.00111 9.20508 1.00111 9.21145C1.00111 9.21783 1.00174 9.22383 1.00236 9.2302C1.00299 9.23655 1.00393 9.24325 1.00486 9.24958C1.0058 9.25589 1.00674 9.26205 1.00799 9.26833C1.00924 9.27458 1.01081 9.28087 1.01236 9.28708C1.01392 9.29328 1.01551 9.29908 1.01736 9.3052C1.01922 9.31131 1.02146 9.31731 1.02361 9.32333C1.02577 9.32934 1.02804 9.33555 1.03049 9.34145C1.03293 9.34736 1.03526 9.35317 1.03799 9.35895C1.04072 9.36473 1.04373 9.37019 1.04674 9.37583C1.04975 9.38145 1.05283 9.38722 1.05611 9.3927C1.0594 9.39819 1.06256 9.40364 1.06611 9.40895C1.06966 9.41426 1.07356 9.41944 1.07736 9.42458C1.08117 9.4297 1.08518 9.43462 1.08924 9.43958C1.09329 9.44451 1.09745 9.4492 1.10174 9.45395C1.10603 9.45867 1.11034 9.4638 1.11486 9.46833C1.11938 9.47284 1.12388 9.47716 1.12861 9.48145C1.13335 9.48573 1.13805 9.48989 1.14299 9.49395C1.14793 9.498 1.15348 9.50202 1.15861 9.50583C1.16375 9.50962 1.16892 9.51289 1.17424 9.51645C1.17955 9.52 1.18501 9.5238 1.19049 9.52708C1.19597 9.53036 1.2011 9.53344 1.20674 9.53645C1.21237 9.53945 1.21846 9.54247 1.22424 9.5452C1.23002 9.54794 1.23583 9.55025 1.24174 9.5527C1.24764 9.55514 1.25322 9.55742 1.25924 9.55958C1.26526 9.56173 1.27125 9.56397 1.27736 9.56583C1.28348 9.56767 1.28991 9.56926 1.29611 9.57083C1.30231 9.57237 1.3086 9.57395 1.31486 9.5752C1.32113 9.57644 1.32729 9.57737 1.33361 9.57833C1.33993 9.57926 1.34663 9.58083 1.35299 9.58083C1.35935 9.58145 1.36536 9.58208 1.37174 9.58208C1.37812 9.58208 1.38472 9.5827 1.39111 9.5827L4.20361 9.5827C4.41911 9.5827 4.59423 9.40758 4.59423 9.19208ZM4.35298 11.4358C4.34975 11.4303 4.34648 11.4249 4.34298 11.4196C4.3395 11.4142 4.3355 11.4091 4.33173 11.4039C4.32798 11.3988 4.32448 11.3939 4.32048 11.3889C4.3165 11.384 4.31222 11.3787 4.30798 11.374C4.30375 11.3692 4.29931 11.3648 4.29486 11.3602C4.29039 11.3556 4.28578 11.3508 4.28111 11.3464C4.27642 11.3421 4.27163 11.3381 4.26673 11.334C4.26184 11.3298 4.25681 11.3259 4.25173 11.3221C4.24666 11.3182 4.242 11.3145 4.23673 11.3108C4.23147 11.3072 4.22592 11.3036 4.22048 11.3002C4.21506 11.2968 4.2092 11.2933 4.20361 11.2902C4.19802 11.2871 4.19247 11.2843 4.18673 11.2815C4.181 11.2786 4.17509 11.2759 4.16923 11.2733C4.16337 11.2708 4.15772 11.2687 4.15173 11.2664C4.14575 11.2642 4.1397 11.2622 4.13361 11.2602C4.12753 11.2582 4.12166 11.2562 4.11548 11.2546C4.10931 11.2529 4.10297 11.2515 4.09673 11.2502C4.09048 11.2488 4.08428 11.2475 4.07798 11.2464C4.07169 11.2454 4.06497 11.2447 4.05861 11.2439C4.05227 11.2432 4.04625 11.2421 4.03986 11.2421C4.03348 11.2421 4.02688 11.2408 4.02048 11.2408C4.01409 11.2408 4.0075 11.2408 4.00111 11.2408C3.99472 11.2408 3.98873 11.2421 3.98236 11.2421C3.976 11.2421 3.96933 11.2431 3.96299 11.2439C3.95664 11.2447 3.95053 11.246 3.94424 11.2471C3.93794 11.2482 3.93172 11.2494 3.92548 11.2508C3.91925 11.2522 3.91289 11.2535 3.90673 11.2552C3.90058 11.2569 3.89469 11.2588 3.88861 11.2608C3.88255 11.2628 3.87645 11.2654 3.87049 11.2677C3.86453 11.27 3.85883 11.272 3.85299 11.2746C3.84714 11.2772 3.8412 11.2798 3.83548 11.2827C3.82978 11.2856 3.82417 11.2889 3.81861 11.2921L1.38236 12.6983C1.37685 12.7015 1.37146 12.7048 1.36611 12.7083C1.36076 12.7118 1.35566 12.7158 1.35049 12.7196C1.34531 12.7233 1.33985 12.7268 1.33486 12.7308C1.32988 12.7348 1.32528 12.7391 1.32049 12.7433C1.3157 12.7476 1.31131 12.752 1.30674 12.7564C1.30216 12.7609 1.29734 12.7655 1.29299 12.7702C1.28863 12.7749 1.28461 12.7797 1.28049 12.7846C1.27637 12.7894 1.27249 12.7945 1.26861 12.7996C1.26473 12.8047 1.26099 12.8099 1.25736 12.8152C1.25374 12.8204 1.25011 12.8254 1.24674 12.8308C1.24337 12.8363 1.23984 12.8421 1.23674 12.8477C1.23364 12.8533 1.23081 12.8588 1.22799 12.8646C1.22516 12.8703 1.22241 12.8762 1.21986 12.8821C1.21732 12.8879 1.21524 12.8936 1.21299 12.8996C1.21073 12.9056 1.2087 12.9116 1.20674 12.9177C1.20478 12.9238 1.20278 12.9303 1.20111 12.9364C1.19945 12.9426 1.1981 12.9483 1.19674 12.9546C1.19538 12.9608 1.19404 12.9676 1.19299 12.9739C1.19193 12.9803 1.19061 12.9864 1.18986 12.9927C1.18911 12.999 1.18861 13.0057 1.18861 13.0121C1.18861 13.0184 1.18736 13.0244 1.18736 13.0308C1.18736 13.0372 1.18736 13.0438 1.18736 13.0502C1.18736 13.0566 1.18861 13.0626 1.18861 13.0689C1.18861 13.0753 1.18969 13.082 1.19049 13.0883C1.19129 13.0947 1.19251 13.1008 1.19361 13.1071C1.19472 13.1134 1.19595 13.1196 1.19736 13.1258C1.19878 13.1321 1.20002 13.1384 1.20174 13.1446C1.20345 13.1507 1.20535 13.1566 1.20736 13.1627C1.20937 13.1688 1.21193 13.1749 1.21424 13.1808C1.21654 13.1868 1.21852 13.1931 1.22111 13.1989C1.2237 13.2048 1.22637 13.2101 1.22924 13.2158C1.23211 13.2215 1.23547 13.2271 1.23861 13.2327C1.34661 13.4187 1.58549 13.4831 1.77299 13.3771L4.20923 11.9702C4.21478 11.967 4.22009 11.9637 4.22548 11.9602C4.23088 11.9567 4.23591 11.9533 4.24111 11.9496C4.24631 11.9458 4.25172 11.9423 4.25673 11.9383C4.26175 11.9343 4.26628 11.93 4.27111 11.9258C4.27592 11.9216 4.28088 11.9172 4.28548 11.9127C4.29009 11.9082 4.29486 11.9036 4.29923 11.8989C4.30361 11.8943 4.30759 11.8894 4.31173 11.8846C4.31588 11.8797 4.31972 11.8746 4.32361 11.8696C4.32752 11.8645 4.33122 11.8598 4.33486 11.8546C4.3385 11.8493 4.34209 11.8437 4.34548 11.8383C4.34886 11.8329 4.35238 11.827 4.35548 11.8214C4.35859 11.8159 4.36141 11.8103 4.36423 11.8046C4.36706 11.7988 4.36981 11.7929 4.37236 11.7871C4.37491 11.7812 4.37759 11.7756 4.37986 11.7696C4.38211 11.7636 4.38414 11.7575 4.38611 11.7514C4.38806 11.7454 4.38945 11.7389 4.39111 11.7327C4.39278 11.7265 4.39475 11.7208 4.39611 11.7146C4.39747 11.7083 4.39819 11.7015 4.39923 11.6952C4.40028 11.6889 4.40162 11.6828 4.40236 11.6764C4.40309 11.6701 4.40361 11.6634 4.40361 11.6571C4.40361 11.6507 4.40486 11.6447 4.40486 11.6383C4.40486 11.6319 4.40486 11.6253 4.40486 11.6189C4.40486 11.6125 4.40361 11.6059 4.40361 11.5996C4.40361 11.5932 4.40256 11.5872 4.40173 11.5808C4.40091 11.5745 4.39975 11.5677 4.39861 11.5615C4.39747 11.5551 4.39631 11.5489 4.39486 11.5427C4.39341 11.5364 4.39161 11.5301 4.38986 11.5239C4.38809 11.5178 4.38628 11.5119 4.38423 11.5058C4.38219 11.4998 4.3797 11.4937 4.37736 11.4877C4.375 11.4817 4.3725 11.476 4.36986 11.4702C4.36722 11.4644 4.36466 11.4584 4.36173 11.4527C4.35881 11.447 4.35556 11.4414 4.35236 11.4358L4.35298 11.4358ZM11.933 6.76833L13.9217 4.77958C13.9263 4.77508 13.9313 4.77071 13.9361 4.76646C13.9408 4.76218 13.9455 4.75799 13.9505 4.75396C13.9554 4.74991 13.9603 4.74586 13.9655 4.74208C13.9706 4.73829 13.9758 4.73497 13.9811 4.73146C13.9864 4.72793 13.9918 4.7241 13.9973 4.72083C14.0028 4.71755 14.0086 4.71444 14.0142 4.71146C14.0199 4.70846 14.0259 4.70604 14.0317 4.70333C14.0375 4.70061 14.0433 4.69765 14.0492 4.69521C14.0551 4.69277 14.0607 4.69046 14.0667 4.68833C14.0727 4.68618 14.0787 4.68455 14.0848 4.68271C14.091 4.68086 14.0974 4.67924 14.1036 4.67771C14.1098 4.67616 14.1161 4.67457 14.1223 4.67333C14.1286 4.67208 14.1348 4.67113 14.1411 4.67021C14.1474 4.66927 14.1541 4.66833 14.1605 4.66771C14.1668 4.66771 14.1728 4.66646 14.1792 4.66646C14.1856 4.66646 14.1922 4.66583 14.1986 4.66583C14.205 4.66583 14.211 4.66646 14.2173 4.66646C14.2237 4.66646 14.2304 4.66771 14.2367 4.66771C14.2431 4.66833 14.2491 4.66927 14.2555 4.67021C14.2618 4.67113 14.2686 4.67208 14.2748 4.67333C14.2811 4.67457 14.2874 4.67616 14.2936 4.67771C14.2998 4.67924 14.3056 4.68086 14.3117 4.68271C14.3178 4.68455 14.3238 4.68618 14.3298 4.68833C14.3359 4.69046 14.3421 4.69277 14.348 4.69521C14.3539 4.69765 14.3597 4.70061 14.3655 4.70333C14.3713 4.70604 14.3767 4.70846 14.3823 4.71146C14.388 4.71444 14.3937 4.71755 14.3992 4.72083C14.4047 4.7241 14.4101 4.72793 14.4155 4.73146C14.4208 4.73497 14.426 4.73829 14.4311 4.74208C14.4362 4.74586 14.4418 4.74991 14.4467 4.75396C14.4517 4.75799 14.4563 4.76218 14.4611 4.76646C14.4658 4.77071 14.4703 4.77508 14.4748 4.77958C14.6263 4.93108 14.6263 5.17971 14.4748 5.33271L12.4842 7.32145C12.4797 7.32595 12.4752 7.3303 12.4705 7.33458C12.4657 7.33883 12.4611 7.34303 12.4561 7.34708C12.4511 7.35111 12.4462 7.35517 12.4411 7.35895C12.436 7.36274 12.4302 7.36605 12.4249 7.36958C12.4195 7.37311 12.4141 7.37694 12.4086 7.3802C12.4031 7.38347 12.398 7.38658 12.3924 7.38958C12.3867 7.39258 12.3806 7.39499 12.3749 7.3977C12.3691 7.40041 12.3633 7.40339 12.3574 7.40583C12.3514 7.40825 12.3459 7.41056 12.3399 7.4127C12.3338 7.41485 12.3272 7.41649 12.3211 7.41833C12.315 7.42017 12.3092 7.42178 12.303 7.42333C12.2968 7.42486 12.2905 7.42645 12.2842 7.4277C12.278 7.42894 12.2718 7.42989 12.2655 7.43083C12.2591 7.43177 12.2525 7.4327 12.2461 7.43333C12.2397 7.43333 12.2337 7.43458 12.2274 7.43458C12.221 7.43458 12.2144 7.4352 12.208 7.4352C12.2016 7.4352 12.195 7.43458 12.1886 7.43458C12.1822 7.43458 12.1762 7.43333 12.1699 7.43333C12.1635 7.4327 12.1568 7.43177 12.1505 7.43083C12.1441 7.42989 12.138 7.42894 12.1317 7.4277C12.1255 7.42645 12.1192 7.42486 12.113 7.42333C12.1068 7.42178 12.101 7.42017 12.0949 7.41833C12.0887 7.41649 12.0821 7.41485 12.0761 7.4127C12.0701 7.41056 12.0645 7.40825 12.0586 7.40583C12.0527 7.40339 12.0469 7.40041 12.0411 7.3977C12.0353 7.39499 12.0292 7.39258 12.0236 7.38958C12.018 7.38658 12.0128 7.38347 12.0074 7.3802C12.0019 7.37694 11.9964 7.37311 11.9911 7.36958C11.9858 7.36605 11.98 7.36274 11.9749 7.35895C11.9697 7.35517 11.9648 7.35111 11.9599 7.34708C11.9549 7.34303 11.9502 7.33883 11.9455 7.33458C11.9407 7.3303 11.9363 7.32595 11.9317 7.32145C11.9273 7.31688 11.9228 7.31249 11.9186 7.3077C11.9144 7.30292 11.9101 7.29767 11.9061 7.2927C11.9021 7.28772 11.898 7.28286 11.8942 7.2777C11.8905 7.27253 11.8871 7.26742 11.8836 7.26208C11.8801 7.25674 11.8768 7.25133 11.8736 7.24583C11.8704 7.24033 11.8672 7.23461 11.8642 7.22895C11.8613 7.2233 11.8588 7.21724 11.8561 7.21145C11.8534 7.20566 11.8504 7.19986 11.848 7.19395C11.8456 7.18803 11.8438 7.18247 11.8417 7.17646C11.8396 7.17042 11.8373 7.16381 11.8355 7.1577C11.8337 7.15158 11.832 7.14577 11.8305 7.13958C11.829 7.13338 11.8279 7.12708 11.8267 7.12083C11.8255 7.11455 11.8245 7.10839 11.8236 7.10208C11.8227 7.09575 11.8211 7.08905 11.8211 7.08271C11.8211 7.07635 11.8199 7.07033 11.8199 7.06395C11.8199 7.05758 11.8192 7.05095 11.8192 7.04458C11.8192 7.03821 11.8199 7.03221 11.8199 7.02583C11.8199 7.01945 11.8205 7.0128 11.8211 7.00645C11.8217 7.00011 11.8227 6.99402 11.8236 6.98771C11.8246 6.98139 11.8255 6.97458 11.8267 6.96833C11.828 6.96206 11.8296 6.95639 11.8311 6.9502C11.8326 6.944 11.8343 6.93755 11.8361 6.93146C11.838 6.92533 11.8402 6.91933 11.8424 6.91333C11.8445 6.90731 11.8468 6.90111 11.8492 6.89521C11.8516 6.8893 11.854 6.88349 11.8567 6.87771C11.8594 6.87192 11.8625 6.86646 11.8655 6.86083C11.8685 6.85519 11.8716 6.84944 11.8749 6.84396C11.8781 6.83846 11.8813 6.83302 11.8849 6.8277C11.8884 6.82238 11.8917 6.81722 11.8955 6.81208C11.8992 6.80692 11.9033 6.80203 11.9074 6.79708C11.9114 6.79211 11.9156 6.78746 11.9199 6.78271C11.9241 6.77794 11.9285 6.77286 11.933 6.76833ZM14.9998 9.19208C14.9998 9.18569 14.9992 9.17908 14.9992 9.1727C14.9992 9.16631 14.9986 9.1603 14.998 9.15395C14.9973 9.14759 14.9964 9.14089 14.9955 9.13458C14.9945 9.12827 14.9936 9.12208 14.9923 9.11583C14.9911 9.10956 14.9895 9.10326 14.988 9.09708C14.9864 9.09089 14.9848 9.08506 14.983 9.07895C14.9811 9.07284 14.9789 9.06683 14.9767 9.06083C14.9746 9.05481 14.9723 9.04859 14.9698 9.0427C14.9674 9.0368 14.9651 9.03097 14.9623 9.0252C14.9596 9.01942 14.9566 9.01395 14.9536 9.00833C14.9506 9.0027 14.9475 8.99692 14.9442 8.99145C14.9409 8.98598 14.9371 8.98051 14.9336 8.9752C14.9301 8.96989 14.9268 8.9647 14.923 8.95958C14.9192 8.95444 14.9151 8.94951 14.9111 8.94458C14.9071 8.93964 14.9029 8.93494 14.8986 8.9302C14.8943 8.92547 14.89 8.92095 14.8855 8.91645C14.881 8.91192 14.8765 8.90698 14.8717 8.9027C14.867 8.89842 14.8616 8.89427 14.8567 8.8902C14.8518 8.88614 14.8468 8.88275 14.8417 8.87895C14.8366 8.87514 14.8314 8.87125 14.8261 8.8677C14.8208 8.86416 14.8153 8.86036 14.8098 8.85708C14.8044 8.85378 14.7992 8.8507 14.7936 8.8477C14.788 8.84467 14.7819 8.8423 14.7761 8.83958C14.7703 8.83683 14.7645 8.83391 14.7586 8.83145C14.7527 8.829 14.7471 8.82673 14.7411 8.82458C14.7351 8.82241 14.7291 8.82019 14.723 8.81833C14.7169 8.81647 14.7104 8.81489 14.7042 8.81333C14.698 8.81177 14.6917 8.8102 14.6855 8.80895C14.6792 8.80769 14.673 8.80676 14.6667 8.80583C14.6604 8.80487 14.6543 8.80397 14.648 8.80333C14.6416 8.80269 14.635 8.80208 14.6286 8.80208C14.6222 8.80208 14.6156 8.80145 14.6092 8.80145L11.7967 8.80145C11.7903 8.80145 11.7844 8.80208 11.778 8.80208C11.7716 8.80208 11.765 8.8027 11.7586 8.80333C11.7522 8.80395 11.7462 8.80489 11.7399 8.80583C11.7335 8.80676 11.7274 8.8077 11.7211 8.80895C11.7148 8.8102 11.7086 8.81177 11.7024 8.81333C11.6961 8.81487 11.6897 8.81647 11.6836 8.81833C11.6775 8.82017 11.6715 8.82242 11.6655 8.82458C11.6595 8.82673 11.6533 8.82902 11.6474 8.83145C11.6414 8.83389 11.6356 8.83622 11.6299 8.83895C11.6241 8.84169 11.6186 8.84469 11.613 8.8477C11.6073 8.8507 11.6016 8.85378 11.5961 8.85708C11.5906 8.86036 11.5852 8.86352 11.5799 8.86708C11.5745 8.87062 11.5694 8.87452 11.5642 8.87833C11.5591 8.88214 11.5542 8.88614 11.5492 8.8902C11.5443 8.89425 11.5396 8.89841 11.5349 8.9027C11.5301 8.90698 11.5256 8.9113 11.5211 8.91583C11.5166 8.92034 11.5116 8.92484 11.5074 8.92958C11.5031 8.93431 11.4989 8.93964 11.4949 8.94458C11.4908 8.94951 11.4874 8.95444 11.4836 8.95958C11.4798 8.9647 11.4759 8.96989 11.4724 8.9752C11.4688 8.98051 11.4656 8.98595 11.4624 8.99145C11.4591 8.99692 11.4554 9.00206 11.4524 9.0077C11.4493 9.01333 11.447 9.01942 11.4442 9.0252C11.4415 9.03097 11.4386 9.0368 11.4361 9.0427C11.4336 9.04861 11.4314 9.05419 11.4292 9.0602C11.4271 9.06622 11.4255 9.07283 11.4236 9.07895C11.4217 9.08506 11.4195 9.09087 11.418 9.09708C11.4164 9.10328 11.4155 9.10956 11.4142 9.11583C11.413 9.12209 11.4114 9.12825 11.4105 9.13458C11.4095 9.14089 11.4086 9.14759 11.4086 9.15395C11.408 9.16031 11.4067 9.16631 11.4067 9.1727C11.4067 9.17908 11.4067 9.18567 11.4067 9.19208C11.4067 9.19847 11.4067 9.20508 11.4067 9.21145C11.4067 9.21783 11.408 9.22383 11.4086 9.2302C11.4086 9.23655 11.4095 9.24325 11.4105 9.24958C11.4114 9.25589 11.413 9.26205 11.4142 9.26833C11.4155 9.27458 11.4164 9.28087 11.418 9.28708C11.4195 9.29328 11.4217 9.29908 11.4236 9.3052C11.4255 9.31131 11.4271 9.31731 11.4292 9.32333C11.4314 9.32934 11.4336 9.33555 11.4361 9.34145C11.4386 9.34736 11.4415 9.35317 11.4442 9.35895C11.447 9.36473 11.4493 9.37019 11.4524 9.37583C11.4554 9.38145 11.4591 9.38722 11.4624 9.3927C11.4656 9.39819 11.4688 9.40364 11.4724 9.40895C11.4759 9.41426 11.4798 9.41944 11.4836 9.42458C11.4874 9.4297 11.4908 9.43462 11.4949 9.43958C11.4989 9.44451 11.5031 9.4492 11.5074 9.45395C11.5116 9.45867 11.5166 9.4638 11.5211 9.46833C11.5256 9.47284 11.5301 9.47716 11.5349 9.48145C11.5396 9.48573 11.5443 9.48989 11.5492 9.49395C11.5542 9.498 11.5591 9.50202 11.5642 9.50583C11.5694 9.50962 11.5745 9.51289 11.5799 9.51645C11.5852 9.52 11.5906 9.5238 11.5961 9.52708C11.6016 9.53036 11.6073 9.53344 11.613 9.53645C11.6186 9.53945 11.6241 9.54247 11.6299 9.5452C11.6356 9.54794 11.6414 9.55025 11.6474 9.5527C11.6533 9.55514 11.6595 9.55742 11.6655 9.55958C11.6715 9.56173 11.6775 9.56397 11.6836 9.56583C11.6897 9.56767 11.6961 9.56926 11.7024 9.57083C11.7086 9.57237 11.7148 9.57395 11.7211 9.5752C11.7274 9.57644 11.7335 9.57737 11.7399 9.57833C11.7462 9.57926 11.7522 9.58083 11.7586 9.58083C11.765 9.58145 11.7716 9.58208 11.778 9.58208C11.7844 9.58208 11.7903 9.5827 11.7967 9.5827L14.6092 9.5827C14.8247 9.5827 14.9998 9.40758 14.9998 9.19208ZM14.7592 13.2327C14.7624 13.2271 14.7657 13.2215 14.7686 13.2158C14.7715 13.2101 14.7741 13.2048 14.7767 13.1989C14.7794 13.1931 14.7819 13.1868 14.7842 13.1808C14.7866 13.1749 14.7891 13.1694 14.7911 13.1633C14.7931 13.1573 14.795 13.1507 14.7967 13.1446C14.7985 13.1384 14.8003 13.1321 14.8017 13.1258C14.8032 13.1196 14.8043 13.1134 14.8055 13.1071C14.8066 13.1008 14.8078 13.0947 14.8086 13.0883C14.8094 13.082 14.8105 13.0753 14.8105 13.0689C14.8105 13.0626 14.8117 13.0566 14.8117 13.0502C14.8117 13.0438 14.8117 13.0372 14.8117 13.0308C14.8117 13.0244 14.8105 13.0178 14.8105 13.0114C14.8105 13.005 14.81 12.9991 14.8092 12.9927C14.8085 12.9863 14.8071 12.9796 14.8061 12.9733C14.8051 12.967 14.8043 12.9608 14.803 12.9546C14.8016 12.9483 14.7996 12.942 14.798 12.9358C14.7963 12.9296 14.7949 12.9238 14.793 12.9177C14.791 12.9116 14.7884 12.9056 14.7861 12.8996C14.7838 12.8936 14.7818 12.8873 14.7792 12.8814C14.7767 12.8756 14.7739 12.8697 14.7711 12.8639C14.7683 12.8582 14.7655 12.8527 14.7623 12.8471C14.7592 12.8415 14.7557 12.8363 14.7523 12.8308C14.749 12.8254 14.7454 12.8198 14.7417 12.8146C14.7381 12.8093 14.7344 12.804 14.7305 12.7989C14.7266 12.7939 14.7227 12.7888 14.7186 12.7839C14.7145 12.7791 14.7099 12.7742 14.7055 12.7696C14.7011 12.7649 14.697 12.7603 14.6923 12.7558C14.6877 12.7514 14.6828 12.7475 14.678 12.7433C14.6731 12.7391 14.668 12.7348 14.663 12.7308C14.658 12.7268 14.6532 12.7233 14.648 12.7196C14.6428 12.7158 14.6371 12.7118 14.6317 12.7083C14.6263 12.7049 14.621 12.7015 14.6155 12.6983L12.1792 11.2921C12.1737 11.289 12.168 11.2861 12.1624 11.2833C12.1567 11.2805 12.1513 11.2777 12.1455 11.2752C12.1397 11.2727 12.1339 11.2705 12.128 11.2683C12.1221 11.2661 12.1159 11.264 12.1099 11.2621C12.1038 11.2601 12.0978 11.2587 12.0917 11.2571C12.0856 11.2555 12.0791 11.2534 12.073 11.2521C12.0668 11.2507 12.0605 11.25 12.0542 11.249C12.048 11.2479 12.0418 11.2472 12.0355 11.2464C12.0292 11.2457 12.023 11.2446 12.0167 11.2446C12.0104 11.2446 12.0043 11.2439 11.998 11.2439C11.9916 11.2439 11.9849 11.2439 11.9786 11.2439C11.9723 11.2439 11.9661 11.2446 11.9599 11.2446C11.9535 11.2446 11.9474 11.2463 11.9411 11.2471C11.9348 11.2479 11.9286 11.2485 11.9224 11.2496C11.9161 11.2507 11.9098 11.2519 11.9036 11.2533C11.8974 11.2547 11.8916 11.2566 11.8855 11.2583C11.8794 11.26 11.8734 11.2619 11.8674 11.264C11.8614 11.266 11.8551 11.2679 11.8492 11.2702C11.8433 11.2725 11.8375 11.2745 11.8317 11.2771C11.8259 11.2796 11.8205 11.2823 11.8149 11.2852C11.8092 11.288 11.8035 11.2914 11.798 11.2946C11.7925 11.2977 11.7871 11.3006 11.7817 11.304C11.7764 11.3073 11.7713 11.3109 11.7661 11.3146C11.7609 11.3182 11.7555 11.3219 11.7505 11.3258C11.7455 11.3297 11.7409 11.3336 11.7361 11.3377C11.7313 11.3418 11.7263 11.3465 11.7217 11.3508C11.7171 11.3552 11.713 11.3594 11.7086 11.3639C11.7042 11.3685 11.6996 11.3735 11.6955 11.3783C11.6913 11.3831 11.6875 11.3877 11.6836 11.3927C11.6797 11.3977 11.676 11.4025 11.6724 11.4077C11.6687 11.4128 11.6651 11.418 11.6617 11.4233C11.6583 11.4286 11.6549 11.4341 11.6517 11.4396C11.6486 11.445 11.6452 11.4508 11.6424 11.4564C11.6395 11.4621 11.6368 11.4675 11.6342 11.4733C11.6316 11.4791 11.6291 11.4849 11.6267 11.4908C11.6244 11.4967 11.6225 11.5029 11.6205 11.5089C11.6184 11.5149 11.6166 11.521 11.6149 11.5271C11.6131 11.5332 11.6113 11.539 11.6099 11.5452C11.6084 11.5514 11.6073 11.5577 11.6061 11.5639C11.605 11.5702 11.6038 11.5764 11.603 11.5827C11.6021 11.589 11.6011 11.5951 11.6011 11.6014C11.6011 11.6077 11.5999 11.6139 11.5999 11.6202C11.5999 11.6265 11.5992 11.6332 11.5992 11.6396C11.5992 11.6459 11.5999 11.652 11.5999 11.6583C11.5999 11.6646 11.6011 11.6708 11.6017 11.6771C11.6024 11.6834 11.6032 11.6896 11.6042 11.6958C11.6052 11.7021 11.6061 11.7084 11.6074 11.7146C11.6086 11.7208 11.6101 11.7272 11.6117 11.7333C11.6133 11.7394 11.6155 11.7454 11.6174 11.7514C11.6192 11.7575 11.6208 11.7636 11.623 11.7696C11.6251 11.7755 11.6274 11.7812 11.6299 11.7871C11.6323 11.7929 11.6352 11.7989 11.638 11.8046C11.6407 11.8103 11.6437 11.8159 11.6467 11.8214C11.6497 11.827 11.6528 11.8323 11.6561 11.8377C11.6594 11.8431 11.6626 11.8487 11.6661 11.8539C11.6696 11.8592 11.6736 11.8639 11.6774 11.8689C11.6811 11.874 11.6846 11.8791 11.6886 11.8839C11.6926 11.8888 11.6968 11.8936 11.7011 11.8983C11.7054 11.903 11.7097 11.9076 11.7142 11.9121C11.7187 11.9165 11.7233 11.9209 11.728 11.9252C11.7327 11.9294 11.7375 11.9337 11.7424 11.9377C11.7472 11.9417 11.7523 11.9458 11.7574 11.9496C11.7624 11.9533 11.7677 11.9567 11.773 11.9602C11.7782 11.9637 11.7838 11.9669 11.7892 11.9702L14.2248 13.3771C14.2304 13.3802 14.236 13.3829 14.2417 13.3858C14.2474 13.3887 14.2534 13.3914 14.2592 13.3939C14.2651 13.3965 14.2708 13.3991 14.2767 13.4014C14.2827 13.4037 14.2888 13.4063 14.2948 13.4083C14.3009 13.4103 14.3074 13.4116 14.3136 13.4133C14.3198 13.415 14.3255 13.4169 14.3317 13.4183C14.338 13.4197 14.3442 13.4209 14.3505 13.4221C14.3568 13.4232 14.3635 13.4244 14.3698 13.4252C14.3762 13.426 14.3822 13.4271 14.3886 13.4271C14.395 13.4271 14.4016 13.4277 14.408 13.4277C14.4144 13.4277 14.421 13.4277 14.4273 13.4277C14.4337 13.4277 14.4397 13.4271 14.4461 13.4271C14.4525 13.4271 14.4591 13.4259 14.4655 13.4252C14.4718 13.4244 14.4779 13.4238 14.4842 13.4227C14.4905 13.4216 14.4967 13.4203 14.503 13.4189C14.5092 13.4176 14.5156 13.4162 14.5217 13.4146C14.5279 13.4129 14.5338 13.4109 14.5398 13.4089C14.5459 13.407 14.552 13.4049 14.558 13.4027C14.564 13.4004 14.5702 13.3984 14.5761 13.3958C14.582 13.3933 14.5879 13.3905 14.5936 13.3877C14.5993 13.3849 14.6049 13.3814 14.6105 13.3783C14.6161 13.3752 14.6213 13.3723 14.6267 13.3689C14.6322 13.3656 14.6377 13.3619 14.643 13.3583C14.6482 13.3547 14.6535 13.3509 14.6586 13.3471C14.6637 13.3432 14.6687 13.3393 14.6736 13.3352C14.6785 13.3311 14.6833 13.327 14.688 13.3227C14.6926 13.3183 14.6973 13.3135 14.7017 13.3089C14.7062 13.3044 14.7106 13.3 14.7148 13.2952C14.7191 13.2904 14.7227 13.2852 14.7267 13.2802C14.7307 13.2752 14.7348 13.2704 14.7386 13.2652C14.7424 13.26 14.7457 13.2549 14.7492 13.2496C14.7527 13.2442 14.756 13.2382 14.7592 13.2327ZM6.95923 3.30146L5.19236 1.53271C5.18875 1.52909 5.18516 1.52525 5.18173 1.52146C5.1783 1.51767 5.17497 1.51354 5.17173 1.50959C5.1685 1.50563 5.16541 1.50182 5.16236 1.49771C5.15931 1.4936 5.15644 1.48946 5.15361 1.48521C5.15076 1.48096 5.14811 1.47647 5.14548 1.47209C5.14286 1.4677 5.14041 1.46347 5.13798 1.45896C5.13558 1.45445 5.1333 1.44984 5.13111 1.44521C5.12894 1.44059 5.12681 1.43556 5.12486 1.43084C5.12291 1.42611 5.12095 1.4219 5.11923 1.41709C5.11751 1.41227 5.11572 1.40698 5.11423 1.40209C5.11275 1.39719 5.11172 1.39267 5.11048 1.38771C5.10925 1.38275 5.10773 1.37773 5.10673 1.37271C5.10575 1.3677 5.10498 1.36214 5.10423 1.35709C5.10348 1.35203 5.10236 1.34718 5.10236 1.34209C5.10236 1.337 5.10111 1.33219 5.10111 1.32709C5.10111 1.32198 5.10111 1.31658 5.10111 1.31146C5.10111 1.30635 5.10173 1.30157 5.10173 1.29646C5.10173 1.29135 5.10236 1.28593 5.10236 1.28084C5.10236 1.27575 5.10348 1.27089 5.10423 1.26584C5.10498 1.26078 5.10636 1.25585 5.10736 1.25084C5.10836 1.24582 5.10925 1.2408 5.11048 1.23584C5.11173 1.23088 5.11275 1.22573 5.11423 1.22084C5.11572 1.21595 5.11751 1.21128 5.11923 1.20646C5.12097 1.20165 5.12291 1.19681 5.12486 1.19209C5.12681 1.18736 5.12892 1.18233 5.13111 1.17771C5.1333 1.17309 5.13558 1.16847 5.13798 1.16396C5.14039 1.15945 5.14284 1.15522 5.14548 1.15084C5.14811 1.14645 5.15076 1.14196 5.15361 1.13771C5.15645 1.13346 5.15931 1.12932 5.16236 1.12521C5.16541 1.1211 5.1685 1.11729 5.17173 1.11334C5.17497 1.10938 5.1783 1.10525 5.18173 1.10146C5.18517 1.09767 5.18875 1.09445 5.19236 1.09084C5.19597 1.08722 5.19981 1.08365 5.20361 1.08021C5.20739 1.07678 5.21153 1.07346 5.21548 1.07021C5.21944 1.06697 5.22325 1.06388 5.22736 1.06084C5.23147 1.05779 5.23561 1.0543 5.23986 1.05146C5.24411 1.04862 5.24859 1.04597 5.25298 1.04334C5.25737 1.04071 5.26159 1.03825 5.26611 1.03584C5.27062 1.03343 5.27523 1.03115 5.27986 1.02896C5.28447 1.02678 5.2895 1.02467 5.29423 1.02271C5.29895 1.02076 5.30316 1.01881 5.30798 1.01709C5.3128 1.01536 5.31809 1.0142 5.32298 1.01271C5.32787 1.01123 5.33241 1.00958 5.33736 1.00834C5.34231 1.00709 5.34734 1.00621 5.35236 1.00521C5.35737 1.00421 5.36292 1.00346 5.36798 1.00271C5.37303 1.00196 5.37789 1.00084 5.38298 1.00084C5.38808 1.00084 5.39287 0.999587 5.39798 0.999587C5.40309 0.999587 5.4085 0.998962 5.41361 0.998962C5.41872 0.998962 5.4235 0.999587 5.42861 0.999587C5.43372 0.999587 5.43914 1.00084 5.44423 1.00084C5.44931 1.00084 5.45417 1.00196 5.45923 1.00271C5.4643 1.00346 5.46922 1.00422 5.47423 1.00521C5.47925 1.00621 5.48428 1.0071 5.48923 1.00834C5.49419 1.00958 5.49934 1.01123 5.50423 1.01271C5.50912 1.01419 5.5138 1.01537 5.51861 1.01709C5.52342 1.01881 5.52825 1.02076 5.53298 1.02271C5.5377 1.02467 5.54273 1.02678 5.54736 1.02896C5.55198 1.03115 5.55659 1.03343 5.56111 1.03584C5.56562 1.03825 5.56984 1.04071 5.57423 1.04334C5.57862 1.04596 5.58309 1.04862 5.58736 1.05146C5.59161 1.0543 5.59575 1.05717 5.59986 1.06021C5.60397 1.06326 5.60778 1.06697 5.61173 1.07021C5.61569 1.07345 5.61981 1.07678 5.62361 1.08021C5.62741 1.08364 5.63062 1.0866 5.63423 1.09021L7.40173 2.85896C7.40534 2.86257 7.40892 2.86641 7.41236 2.87021C7.41579 2.87399 7.41912 2.87751 7.42236 2.88146C7.42561 2.88541 7.42868 2.88985 7.43173 2.89396C7.43478 2.89807 7.43764 2.90221 7.44048 2.90646C7.44332 2.91071 7.44598 2.91519 7.44861 2.91958C7.45125 2.92396 7.4537 2.92818 7.45611 2.93271C7.45853 2.93721 7.46079 2.94183 7.46298 2.94646C7.46517 2.95109 7.46728 2.95548 7.46923 2.96021C7.47118 2.96493 7.47314 2.96977 7.47486 2.97459C7.47659 2.9794 7.47837 2.98468 7.47986 2.98958C7.48134 2.99448 7.48237 2.99899 7.48361 3.00396C7.48484 3.00891 7.48573 3.01394 7.48673 3.01896C7.48773 3.02398 7.48911 3.0289 7.48986 3.03396C7.49061 3.03902 7.49173 3.04449 7.49173 3.04958C7.49173 3.05468 7.49236 3.05948 7.49236 3.06458C7.49236 3.06969 7.49298 3.07508 7.49298 3.08021C7.49298 3.08532 7.49236 3.0901 7.49236 3.09521C7.49236 3.10032 7.49173 3.10574 7.49173 3.11083C7.49173 3.11591 7.49061 3.12077 7.48986 3.12583C7.48911 3.1309 7.48773 3.13582 7.48673 3.14083C7.48573 3.14585 7.48484 3.15087 7.48361 3.15583C7.48237 3.1608 7.48134 3.16593 7.47986 3.17083C7.47837 3.17571 7.47659 3.18038 7.47486 3.18521C7.47314 3.19002 7.47118 3.19485 7.46923 3.19958C7.46728 3.2043 7.46517 3.20871 7.46298 3.21333C7.46079 3.21796 7.45853 3.22257 7.45611 3.22708C7.4537 3.23158 7.45125 3.23643 7.44861 3.24083C7.44598 3.24521 7.44332 3.24971 7.44048 3.25396C7.43764 3.25821 7.43478 3.26233 7.43173 3.26646C7.42868 3.27055 7.42561 3.27437 7.42236 3.27833C7.41912 3.28227 7.41579 3.28641 7.41236 3.29021C7.40892 3.29399 7.40534 3.29721 7.40173 3.30083C7.39809 3.30441 7.39429 3.30805 7.39048 3.31146C7.38668 3.31487 7.38257 3.31824 7.37861 3.32146C7.37464 3.32466 7.37084 3.32782 7.36673 3.33083C7.36261 3.33385 7.3585 3.33677 7.35423 3.33958C7.34997 3.3424 7.3455 3.34512 7.34111 3.34771C7.33672 3.3503 7.33187 3.35282 7.32736 3.35521C7.32284 3.35758 7.31886 3.35993 7.31423 3.36208C7.30961 3.36424 7.30459 3.3664 7.29986 3.36833C7.29514 3.37026 7.29029 3.37162 7.28548 3.37333C7.28067 3.37502 7.276 3.37687 7.27111 3.37833C7.26622 3.3798 7.26106 3.38085 7.25611 3.38208C7.25115 3.3833 7.24611 3.38483 7.24111 3.38583C7.23609 3.3868 7.23115 3.38758 7.22611 3.38833C7.22106 3.38908 7.21618 3.39021 7.21111 3.39021C7.20603 3.39021 7.20059 3.39146 7.19548 3.39146C7.19039 3.39146 7.18559 3.39146 7.18048 3.39146C7.17537 3.39146 7.17057 3.39146 7.16548 3.39146C7.16037 3.39146 7.15493 3.39021 7.14986 3.39021C7.14478 3.39021 7.1399 3.38908 7.13486 3.38833C7.12981 3.38758 7.12487 3.38682 7.11986 3.38583C7.11486 3.38485 7.10981 3.3833 7.10486 3.38208C7.0999 3.38085 7.09475 3.3798 7.08986 3.37833C7.08497 3.37687 7.08029 3.37502 7.07548 3.37333C7.07067 3.37162 7.06582 3.37026 7.06111 3.36833C7.05637 3.3664 7.05198 3.36424 7.04736 3.36208C7.04273 3.35993 7.03812 3.35758 7.03361 3.35521C7.02909 3.35282 7.02425 3.3503 7.01986 3.34771C7.01547 3.34512 7.011 3.3424 7.00673 3.33958C7.00247 3.33677 6.99836 3.33385 6.99423 3.33083C6.99012 3.32782 6.98633 3.32466 6.98236 3.32146C6.97839 3.31824 6.97428 3.31487 6.97048 3.31146C6.96667 3.30805 6.96287 3.30441 6.95923 3.30083L6.95923 3.30146ZM9.04048 3.30146L10.8074 1.53271C10.811 1.52909 10.8145 1.52525 10.818 1.52146C10.8214 1.51767 10.8247 1.51354 10.828 1.50959C10.8312 1.50563 10.8343 1.50182 10.8374 1.49771C10.8404 1.4936 10.8433 1.48946 10.8461 1.48521C10.8489 1.48096 10.8522 1.47647 10.8549 1.47209C10.8575 1.4677 10.8599 1.46347 10.8624 1.45896C10.8648 1.45445 10.867 1.44984 10.8692 1.44521C10.8714 1.44059 10.8735 1.43556 10.8755 1.43084C10.8774 1.42611 10.8788 1.4219 10.8805 1.41709C10.8822 1.41227 10.884 1.40698 10.8855 1.40209C10.887 1.39719 10.8886 1.39267 10.8899 1.38771C10.8911 1.38275 10.892 1.37773 10.893 1.37271C10.894 1.3677 10.8947 1.36215 10.8955 1.35709C10.8962 1.35203 10.8974 1.34718 10.8974 1.34209C10.8974 1.337 10.8986 1.3322 10.8986 1.32709C10.8986 1.32198 10.8992 1.31658 10.8992 1.31146C10.8992 1.30635 10.8986 1.30157 10.8986 1.29646C10.8986 1.29135 10.8974 1.28593 10.8974 1.28084C10.8974 1.27575 10.8962 1.2709 10.8955 1.26584C10.8947 1.26078 10.894 1.25585 10.893 1.25084C10.892 1.24582 10.8911 1.2408 10.8899 1.23584C10.8886 1.23087 10.887 1.22573 10.8855 1.22084C10.884 1.21594 10.8822 1.21128 10.8805 1.20646C10.8788 1.20165 10.8774 1.19681 10.8755 1.19209C10.8735 1.18736 10.8714 1.18234 10.8692 1.17771C10.867 1.17309 10.8648 1.16847 10.8624 1.16396C10.8599 1.15945 10.8575 1.15522 10.8549 1.15084C10.8522 1.14645 10.8489 1.14196 10.8461 1.13771C10.8433 1.13346 10.8404 1.12932 10.8374 1.12521C10.8343 1.1211 10.8312 1.11729 10.828 1.11334C10.8247 1.10938 10.8214 1.10525 10.818 1.10146C10.8145 1.09767 10.811 1.09383 10.8074 1.09021C10.8037 1.0866 10.7999 1.08365 10.7961 1.08021C10.7923 1.07678 10.7888 1.07346 10.7849 1.07021C10.7809 1.06697 10.7765 1.06326 10.7724 1.06021C10.7682 1.05716 10.7641 1.0543 10.7599 1.05146C10.7556 1.04862 10.7517 1.04597 10.7474 1.04334C10.743 1.04071 10.7381 1.03825 10.7336 1.03584C10.7291 1.03343 10.7245 1.03115 10.7199 1.02896C10.7152 1.02677 10.7108 1.02467 10.7061 1.02271C10.7014 1.02076 10.6965 1.01881 10.6917 1.01709C10.6869 1.01536 10.6822 1.0142 10.6774 1.01271C10.6725 1.01123 10.6673 1.00958 10.6624 1.00834C10.6574 1.00709 10.6524 1.00621 10.6474 1.00521C10.6423 1.00421 10.6374 1.00284 10.6324 1.00209C10.6273 1.00134 10.6224 1.00021 10.6174 1.00021C10.6123 1.00021 10.6068 0.999587 10.6017 0.999587C10.5966 0.999587 10.5918 0.998962 10.5867 0.998962C10.5816 0.998962 10.5762 0.999587 10.5711 0.999587C10.566 0.999587 10.5612 1.00021 10.5561 1.00021C10.551 1.00021 10.5455 1.00134 10.5405 1.00209C10.5354 1.00284 10.5305 1.00422 10.5255 1.00521C10.5205 1.00621 10.5154 1.00709 10.5105 1.00834C10.5055 1.00958 10.5004 1.01123 10.4955 1.01271C10.4906 1.0142 10.4859 1.01536 10.4811 1.01709C10.4763 1.01881 10.4715 1.02076 10.4667 1.02271C10.462 1.02467 10.4576 1.02677 10.453 1.02896C10.4484 1.03115 10.4437 1.03343 10.4392 1.03584C10.4347 1.03825 10.4305 1.04071 10.4261 1.04334C10.4217 1.04597 10.4172 1.04862 10.413 1.05146C10.4087 1.0543 10.4046 1.05717 10.4005 1.06021C10.3964 1.06326 10.3919 1.06697 10.388 1.07021C10.384 1.07346 10.3805 1.07678 10.3767 1.08021C10.3729 1.08365 10.3691 1.08659 10.3655 1.09021L8.5986 2.85896C8.595 2.86257 8.59142 2.86641 8.58798 2.87021C8.58454 2.87399 8.58123 2.87751 8.57798 2.88146C8.57475 2.88541 8.57165 2.88985 8.5686 2.89396C8.56556 2.89807 8.5627 2.90221 8.55985 2.90646C8.55701 2.91071 8.55373 2.91519 8.5511 2.91958C8.54846 2.92398 8.54601 2.92819 8.5436 2.93271C8.54118 2.93721 8.53892 2.94183 8.53673 2.94646C8.53454 2.95107 8.53243 2.95548 8.53048 2.96021C8.52853 2.96493 8.5272 2.96977 8.52548 2.97459C8.52374 2.9794 8.52196 2.98468 8.52048 2.98958C8.519 2.99448 8.51734 2.99899 8.5161 3.00396C8.51485 3.00891 8.51396 3.01394 8.51298 3.01896C8.51198 3.02398 8.51123 3.0289 8.51048 3.03396C8.50973 3.03902 8.5086 3.04449 8.5086 3.04958C8.5086 3.05468 8.50735 3.05948 8.50735 3.06458C8.50735 3.06969 8.50673 3.07508 8.50673 3.08021C8.50673 3.08532 8.50735 3.0901 8.50735 3.09521C8.50735 3.10032 8.5086 3.10574 8.5086 3.11083C8.5086 3.11591 8.50973 3.12077 8.51048 3.12583C8.51123 3.1309 8.51198 3.13582 8.51298 3.14083C8.51396 3.14585 8.51485 3.15087 8.5161 3.15583C8.51734 3.1608 8.519 3.16593 8.52048 3.17083C8.52196 3.17571 8.52374 3.18038 8.52548 3.18521C8.5272 3.19002 8.52853 3.19485 8.53048 3.19958C8.53243 3.2043 8.53454 3.20871 8.53673 3.21333C8.53892 3.21796 8.54118 3.22257 8.5436 3.22708C8.54601 3.23158 8.54846 3.23643 8.5511 3.24083C8.55373 3.24521 8.55701 3.24971 8.55985 3.25396C8.5627 3.25821 8.56556 3.26233 8.5686 3.26646C8.57165 3.27055 8.57475 3.27437 8.57798 3.27833C8.58123 3.28227 8.58454 3.28641 8.58798 3.29021C8.59142 3.29399 8.595 3.29721 8.5986 3.30083C8.60225 3.30441 8.60604 3.30805 8.60985 3.31146C8.61365 3.31487 8.61714 3.31824 8.6211 3.32146C8.62507 3.32466 8.6295 3.32782 8.6336 3.33083C8.63773 3.33385 8.64184 3.33677 8.6461 3.33958C8.65037 3.3424 8.65484 3.34512 8.65923 3.34771C8.66362 3.3503 8.66784 3.35282 8.67235 3.35521C8.67687 3.35758 8.68148 3.35993 8.6861 3.36208C8.69073 3.36424 8.69512 3.3664 8.69985 3.36833C8.70457 3.37026 8.70942 3.37162 8.71423 3.37333C8.71904 3.37502 8.72434 3.37687 8.72923 3.37833C8.73412 3.3798 8.73865 3.38085 8.7436 3.38208C8.74856 3.3833 8.7536 3.38483 8.7586 3.38583C8.76362 3.3868 8.76856 3.38758 8.7736 3.38833C8.77865 3.38908 8.78353 3.39021 8.7886 3.39021C8.79368 3.39021 8.79912 3.39146 8.80423 3.39146C8.80932 3.39146 8.81412 3.39146 8.81923 3.39146C8.82434 3.39146 8.82976 3.39146 8.83485 3.39146C8.83996 3.39146 8.84478 3.39021 8.84985 3.39021C8.85493 3.39021 8.86043 3.38908 8.86548 3.38833C8.87053 3.38758 8.87546 3.38682 8.88048 3.38583C8.88548 3.38485 8.89053 3.3833 8.89548 3.38208C8.90043 3.38085 8.90496 3.3798 8.90985 3.37833C8.91475 3.37687 8.92004 3.37502 8.92485 3.37333C8.92967 3.37162 8.93389 3.37026 8.9386 3.36833C8.94334 3.3664 8.94835 3.36424 8.95298 3.36208C8.9576 3.35993 8.96221 3.35758 8.96673 3.35521C8.97124 3.35282 8.97546 3.3503 8.97985 3.34771C8.98425 3.34512 8.98871 3.3424 8.99298 3.33958C8.99724 3.33677 9.00135 3.33385 9.00548 3.33083C9.00959 3.32782 9.01338 3.32466 9.01735 3.32146C9.02132 3.31824 9.02543 3.31487 9.02923 3.31146C9.03304 3.30805 9.03684 3.30441 9.04048 3.30083L9.04048 3.30146ZM5.32798 4.87521C5.32798 4.91893 5.32897 4.96214 5.33111 5.00583C5.33325 5.0495 5.33683 5.09355 5.34111 5.13708C5.34541 5.18058 5.35031 5.22382 5.35673 5.26708C5.36316 5.31033 5.3707 5.35357 5.37923 5.39646C5.38776 5.43933 5.39736 5.48152 5.40798 5.52396C5.41861 5.56636 5.43028 5.60899 5.44298 5.65083C5.45567 5.69268 5.4695 5.73402 5.48423 5.77521C5.49897 5.81636 5.51437 5.8573 5.53111 5.89771C5.54784 5.9381 5.56553 5.97818 5.58423 6.01771C5.60292 6.05724 5.623 6.096 5.64361 6.13458C5.66422 6.17314 5.6855 6.21144 5.70798 6.24896C5.73047 6.28646 5.75369 6.32321 5.77798 6.35958C5.80228 6.39592 5.82756 6.43133 5.85361 6.46646C5.87965 6.50158 5.9065 6.53639 5.93423 6.57021C5.96197 6.604 5.9905 6.63717 6.01986 6.66958C6.04923 6.70197 6.07956 6.73364 6.11048 6.76458C6.1414 6.79549 6.17308 6.82521 6.20548 6.85458C6.23789 6.88394 6.27106 6.91246 6.30486 6.94021C6.33865 6.96794 6.37286 6.99539 6.40798 7.02145C6.44309 7.0475 6.47912 7.07216 6.51548 7.09646C6.55184 7.12074 6.58859 7.1446 6.62611 7.16708C6.66362 7.18956 6.70192 7.21083 6.74048 7.23145C6.77906 7.25205 6.81783 7.2715 6.85736 7.29021C6.89689 7.30889 6.93697 7.32658 6.97736 7.34333C7.01775 7.36005 7.05868 7.37608 7.09986 7.39083C7.14103 7.40555 7.18239 7.41939 7.22423 7.43208C7.26607 7.44477 7.30806 7.45645 7.35048 7.46708C7.3929 7.4777 7.43572 7.4873 7.47861 7.49583C7.5215 7.50436 7.56471 7.51191 7.60798 7.51833C7.65123 7.52474 7.69447 7.52966 7.73798 7.53395C7.7815 7.53824 7.82493 7.5418 7.86861 7.54395C7.91228 7.54609 7.95612 7.54708 7.99986 7.54708C8.04359 7.54708 8.08743 7.54609 8.13111 7.54395C8.17478 7.5418 8.21821 7.53824 8.26173 7.53395C8.30525 7.52966 8.34909 7.52474 8.39235 7.51833C8.43562 7.51191 8.47821 7.50436 8.5211 7.49583C8.564 7.4873 8.60681 7.4777 8.64923 7.46708C8.69165 7.45645 8.73363 7.44477 8.77548 7.43208C8.81732 7.41938 8.85868 7.40555 8.89985 7.39083C8.94103 7.37608 8.98195 7.36005 9.02235 7.34333C9.06274 7.32658 9.10282 7.30889 9.14235 7.29021C9.18188 7.27152 9.22128 7.25206 9.25985 7.23145C9.29842 7.21083 9.33609 7.18956 9.3736 7.16708C9.4111 7.1446 9.44787 7.12074 9.48423 7.09646C9.52059 7.07216 9.5566 7.0475 9.59173 7.02145C9.62685 6.99539 9.66106 6.96794 9.69485 6.94021C9.72865 6.91246 9.76182 6.88394 9.79423 6.85458C9.82662 6.82521 9.85831 6.79549 9.88923 6.76458C9.92015 6.73364 9.95048 6.70197 9.97985 6.66958C10.0092 6.63717 10.0377 6.604 10.0655 6.57021C10.0932 6.53639 10.1201 6.50158 10.1461 6.46646C10.1721 6.43133 10.1974 6.39592 10.2217 6.35958C10.246 6.32321 10.2692 6.28646 10.2917 6.24896C10.3142 6.21144 10.3361 6.17314 10.3567 6.13458C10.3773 6.096 10.3968 6.05724 10.4155 6.01771C10.4342 5.97818 10.4519 5.9381 10.4686 5.89771C10.4853 5.8573 10.5007 5.81636 10.5155 5.77521C10.5302 5.73402 10.544 5.69268 10.5567 5.65083C10.5694 5.60899 10.5811 5.56636 10.5917 5.52396C10.6024 5.48152 10.6119 5.43933 10.6205 5.39646C10.629 5.35357 10.6366 5.31033 10.643 5.26708C10.6494 5.22382 10.6549 5.18058 10.6592 5.13708C10.6635 5.09355 10.6665 5.0495 10.6686 5.00583C10.6707 4.96214 10.6717 4.91893 10.6717 4.87521C10.6717 4.83147 10.6707 4.78763 10.6686 4.74396C10.6665 4.70027 10.6635 4.65685 10.6592 4.61333C10.6549 4.5698 10.6494 4.52596 10.643 4.48271C10.6366 4.43944 10.629 4.39683 10.6205 4.35396C10.6119 4.31107 10.6024 4.26826 10.5917 4.22583C10.5811 4.18341 10.5694 4.14143 10.5567 4.09958C10.544 4.05774 10.5308 4.01576 10.5161 3.97458C10.5014 3.9334 10.4853 3.8931 10.4686 3.85271C10.4519 3.8123 10.4342 3.77224 10.4155 3.73271C10.3968 3.69318 10.3773 3.65377 10.3567 3.61521C10.3361 3.57665 10.3142 3.53896 10.2917 3.50146C10.2692 3.46396 10.246 3.42719 10.2217 3.39083C10.1974 3.35448 10.1721 3.31846 10.1461 3.28333C10.1201 3.24821 10.0932 3.21401 10.0655 3.18021C10.0377 3.1464 10.0092 3.11324 9.97985 3.08083C9.95048 3.04843 9.92015 3.01676 9.88923 2.98584C9.85831 2.95491 9.82662 2.92458 9.79423 2.89521C9.76182 2.86584 9.72865 2.83732 9.69485 2.80959C9.66106 2.78184 9.62685 2.75501 9.59173 2.72896C9.5566 2.7029 9.52059 2.67762 9.48423 2.65334C9.44787 2.62904 9.4111 2.6058 9.3736 2.58334C9.33609 2.56084 9.29842 2.53895 9.25985 2.51834C9.22128 2.49772 9.18188 2.47827 9.14235 2.45959C9.10282 2.44089 9.06274 2.4232 9.02235 2.40646C8.98195 2.38973 8.94103 2.3737 8.89985 2.35896C8.85868 2.34423 8.81732 2.33102 8.77548 2.31834C8.73363 2.30564 8.69165 2.29396 8.64923 2.28334C8.60681 2.27271 8.564 2.26312 8.5211 2.25459C8.47821 2.24605 8.43562 2.2385 8.39235 2.23209C8.34909 2.22567 8.30525 2.22013 8.26173 2.21584C8.21821 2.21155 8.17478 2.20861 8.13111 2.20646C8.08743 2.20432 8.04359 2.20271 7.99986 2.20271C7.95612 2.20271 7.91228 2.20432 7.86861 2.20646C7.82493 2.20861 7.7815 2.21155 7.73798 2.21584C7.69447 2.22013 7.65123 2.22567 7.60798 2.23209C7.56471 2.2385 7.5215 2.24605 7.47861 2.25459C7.43572 2.26312 7.3929 2.27271 7.35048 2.28334C7.30806 2.29396 7.26607 2.30564 7.22423 2.31834C7.18239 2.33102 7.14103 2.34423 7.09986 2.35896C7.05868 2.3737 7.01775 2.38973 6.97736 2.40646C6.93697 2.4232 6.89689 2.44089 6.85736 2.45959C6.81783 2.47827 6.77906 2.49772 6.74048 2.51834C6.70192 2.53895 6.66362 2.56084 6.62611 2.58334C6.58861 2.6058 6.55184 2.62904 6.51548 2.65334C6.47912 2.67762 6.44309 2.7029 6.40798 2.72896C6.37286 2.75501 6.33865 2.78184 6.30486 2.80959C6.27106 2.83732 6.23789 2.86584 6.20548 2.89521C6.17308 2.92458 6.1414 2.95491 6.11048 2.98584C6.07956 3.01676 6.04923 3.04843 6.01986 3.08083C5.9905 3.11324 5.96197 3.1464 5.93423 3.18021C5.9065 3.21401 5.87965 3.24821 5.85361 3.28333C5.82756 3.31846 5.80228 3.35448 5.77798 3.39083C5.75369 3.42719 5.73047 3.46396 5.70798 3.50146C5.6855 3.53896 5.66422 3.57665 5.64361 3.61521C5.623 3.65377 5.60292 3.69318 5.58423 3.73271C5.56553 3.77224 5.54784 3.8123 5.53111 3.85271C5.51437 3.8931 5.49897 3.9334 5.48423 3.97458C5.4695 4.01576 5.45567 4.05774 5.44298 4.09958C5.43028 4.14143 5.41861 4.18341 5.40798 4.22583C5.39736 4.26826 5.38776 4.31107 5.37923 4.35396C5.3707 4.39683 5.36316 4.43944 5.35673 4.48271C5.35031 4.52596 5.34541 4.5698 5.34111 4.61333C5.33683 4.65685 5.33325 4.70027 5.33111 4.74396C5.32897 4.78763 5.32798 4.83147 5.32798 4.87521ZM7.99986 14.6096C6.45786 14.6096 5.05323 14.1343 4.04423 13.2733C2.99424 12.3748 2.43736 11.1317 2.43736 9.6752C2.43736 8.1627 3.03724 6.60771 4.08423 5.40771C4.60623 4.81071 5.20323 4.33921 5.85923 4.00771C6.54673 3.66071 7.26736 3.48458 7.99986 3.48458C8.73235 3.48458 9.45298 3.66071 10.1405 4.00771C10.797 4.33871 11.3935 4.81071 11.9155 5.40771C12.9625 6.60771 13.5623 8.1627 13.5623 9.6752C13.5623 11.1317 13.0062 12.3748 11.9567 13.2733C10.9472 14.1343 9.54235 14.6096 7.99986 14.6096ZM7.99986 3.87521C8.67185 3.87521 9.33323 4.03746 9.96423 4.35646C10.5752 4.66596 11.1325 5.10508 11.6205 5.66458C11.6807 5.73399 11.7395 5.80453 11.7967 5.87646C11.854 5.94838 11.9095 6.02153 11.9636 6.09583C12.0177 6.17013 12.0702 6.24553 12.1211 6.32208C12.172 6.39861 12.2216 6.47592 12.2692 6.55458C12.3168 6.63322 12.3626 6.71335 12.4067 6.79396C12.4509 6.87455 12.4929 6.95591 12.5336 7.03833C12.5743 7.12074 12.6133 7.20361 12.6505 7.2877C12.6876 7.37177 12.7232 7.45711 12.7567 7.5427C13.0317 8.2457 13.1705 8.96295 13.1705 9.67395C13.1705 11.0129 12.6623 12.1532 11.6999 12.9752C10.7639 13.7782 9.44985 14.2196 7.99986 14.2196C6.54986 14.2196 5.23611 13.7792 4.29861 12.9777C3.33611 12.1557 2.82799 11.0133 2.82799 9.67583C2.82799 8.96483 2.96674 8.2482 3.24174 7.5452C3.27524 7.45961 3.31085 7.37428 3.34799 7.29021C3.38511 7.20611 3.42417 7.12324 3.46486 7.04083C3.50555 6.95841 3.54756 6.87705 3.59174 6.79646C3.63591 6.71585 3.68228 6.63572 3.72986 6.55708C3.77744 6.47842 3.82647 6.40111 3.87736 6.32458C3.92825 6.24803 3.98075 6.17261 4.03486 6.09833C4.08897 6.02402 4.1445 5.95086 4.20173 5.87896C4.25897 5.80703 4.31773 5.73649 4.37798 5.66708C4.86548 5.10758 5.42323 4.66696 6.03423 4.35896C6.66723 4.03846 7.32836 3.87583 7.99986 3.87583M7.99986 3.09396C4.71236 3.09396 2.04674 6.38771 2.04674 9.6752C2.04674 12.9627 4.71236 15.0002 7.99986 15.0002C11.2874 15.0002 13.953 12.9627 13.953 9.6752C13.953 6.38771 11.2874 3.09458 7.99986 3.09458L7.99986 3.09396ZM7.99986 6.70271C7.15436 6.70271 6.35623 6.50321 5.69173 6.12521C5.15873 5.82221 4.74861 5.41546 4.51111 4.96396C5.52361 4.00796 6.75286 3.48458 7.99986 3.48458C9.24685 3.48458 10.4764 4.00796 11.4874 4.96396C11.2514 5.41546 10.8406 5.82221 10.3061 6.12521C9.6436 6.50321 8.84473 6.70271 7.99923 6.70271L7.99986 6.70271ZM7.99986 3.87521C8.62035 3.87521 9.2346 4.01421 9.8236 4.28771C10.2331 4.47821 10.6217 4.72783 10.9842 5.03583C10.7747 5.32033 10.4785 5.57783 10.1155 5.78583C10.0399 5.82842 9.96313 5.86836 9.88485 5.90583C9.80659 5.94328 9.72671 5.97805 9.6461 6.01021C9.56549 6.04235 9.48431 6.07225 9.40173 6.09896C9.31917 6.12564 9.2359 6.14908 9.15173 6.17021C8.78473 6.26421 8.39723 6.31271 8.00173 6.31271C7.60623 6.31271 7.22023 6.26371 6.85173 6.17021C6.76754 6.14914 6.68368 6.12561 6.60111 6.09896C6.51853 6.07228 6.43734 6.04299 6.35673 6.01083C6.27612 5.97867 6.19625 5.94394 6.11798 5.90646C6.03972 5.86896 5.96294 5.82849 5.88736 5.78583C5.52336 5.57783 5.22661 5.32183 5.01861 5.03583C5.1065 4.9609 5.19653 4.88911 5.28923 4.82021C5.38192 4.75129 5.47716 4.68529 5.57423 4.62271C5.67131 4.56011 5.77009 4.50118 5.87111 4.44521C5.97214 4.38922 6.0747 4.33683 6.17923 4.28771C6.21465 4.27093 6.25086 4.25415 6.28673 4.23833C6.32262 4.22252 6.35856 4.20752 6.39486 4.19271C6.43115 4.17788 6.46754 4.1634 6.50423 4.14958C6.54094 4.13577 6.57781 4.12238 6.61486 4.10958C6.65192 4.09677 6.68934 4.08449 6.72673 4.07271C6.76412 4.06093 6.80153 4.04971 6.83923 4.03896C6.87694 4.02821 6.915 4.01804 6.95298 4.00833C6.99097 3.99862 7.0285 3.98949 7.06673 3.98083C7.10497 3.97216 7.14328 3.96407 7.18173 3.95646C7.2202 3.94885 7.25934 3.94176 7.29798 3.93521C7.33664 3.92865 7.3754 3.92257 7.41423 3.91708C7.45304 3.91158 7.49153 3.90651 7.53048 3.90208C7.56943 3.89766 7.60829 3.89418 7.64736 3.89083C7.68642 3.88747 7.72571 3.88435 7.76486 3.88208C7.804 3.8798 7.84317 3.87827 7.88236 3.87708C7.92154 3.87586 7.96065 3.87521 7.99986 3.87521ZM7.99986 3.09396C6.48136 3.09396 5.09698 3.79521 4.04548 4.87521C4.53148 6.15671 6.11736 7.09458 7.99986 7.09458C9.88235 7.09458 11.4687 6.15671 11.9542 4.87521C10.9027 3.79571 9.51835 3.09396 7.99986 3.09396ZM10.228 13.6652C10.232 13.647 10.2368 13.6294 10.2417 13.6114C10.2467 13.5935 10.2521 13.5754 10.258 13.5577C10.2639 13.54 10.27 13.5232 10.2767 13.5058C10.2835 13.4885 10.291 13.4709 10.2986 13.4539C10.3063 13.437 10.3139 13.4205 10.3224 13.4039C10.3309 13.3874 10.3399 13.3713 10.3492 13.3552C10.3586 13.3391 10.3684 13.3227 10.3786 13.3071C10.3888 13.2915 10.3995 13.2765 10.4105 13.2614C10.4214 13.2464 10.4325 13.2315 10.4442 13.2171C10.4559 13.2026 10.4681 13.1884 10.4805 13.1746C10.4929 13.1607 10.5055 13.1471 10.5186 13.1339C10.5317 13.1208 10.5454 13.1083 10.5592 13.0958C10.573 13.0833 10.5867 13.0707 10.6011 13.0589C10.6155 13.0472 10.6305 13.0362 10.6455 13.0252C10.6605 13.0142 10.6756 13.0036 10.6911 12.9933C10.7066 12.9831 10.7226 12.9728 10.7386 12.9633C10.7546 12.9539 10.7709 12.945 10.7874 12.9364C10.8038 12.9278 10.8204 12.9198 10.8374 12.9121C10.8543 12.9043 10.8713 12.8971 10.8886 12.8902C10.9059 12.8833 10.9235 12.8768 10.9411 12.8708C10.9587 12.8648 10.9763 12.859 10.9942 12.8539C11.0121 12.8489 11.0305 12.8443 11.0486 12.8402C11.0667 12.836 11.0846 12.8328 11.103 12.8296C11.1213 12.8264 11.1395 12.8237 11.158 12.8214C11.1764 12.8192 11.195 12.8171 11.2136 12.8158C11.2321 12.8145 11.2506 12.8133 11.2692 12.8133C11.2878 12.8133 11.3069 12.8139 11.3255 12.8139C11.3441 12.8139 11.3626 12.8155 11.3811 12.8171C11.3996 12.8186 11.4183 12.8202 11.4367 12.8227C11.4552 12.8252 11.4734 12.8286 11.4917 12.8321C11.51 12.8355 11.528 12.8389 11.5461 12.8433C11.5642 12.8477 11.582 12.8524 11.5999 12.8577C11.5047 12.9386 11.4064 13.0155 11.3049 13.0883C11.2033 13.1611 11.0989 13.2298 10.9917 13.2939C10.7527 13.4359 10.498 13.5608 10.228 13.6658L10.228 13.6652ZM5.76548 13.6652C5.63322 13.6139 5.50303 13.5573 5.37548 13.4952C5.24794 13.4331 5.12369 13.3658 5.00173 13.2933C4.89441 13.2294 4.7895 13.1611 4.68798 13.0883C4.58647 13.0155 4.48858 12.9389 4.39361 12.8577C4.41144 12.8524 4.42928 12.8471 4.44736 12.8427C4.46544 12.8383 4.48344 12.8349 4.50173 12.8314C4.52002 12.828 4.5383 12.8246 4.55673 12.8221C4.57517 12.8196 4.59381 12.818 4.61236 12.8164C4.63091 12.8149 4.64939 12.8133 4.66798 12.8133C4.68659 12.8133 4.70562 12.8127 4.72423 12.8127C4.74283 12.8127 4.7613 12.8139 4.77986 12.8152C4.79842 12.8165 4.81702 12.8179 4.83548 12.8202C4.85395 12.8224 4.87216 12.8257 4.89048 12.8289C4.90881 12.8321 4.92734 12.8354 4.94548 12.8396C4.96362 12.8437 4.98133 12.8483 4.99923 12.8533C5.01714 12.8584 5.03473 12.8642 5.05236 12.8702C5.06997 12.8762 5.08756 12.8827 5.10486 12.8896C5.12216 12.8964 5.13919 12.9037 5.15611 12.9114C5.17303 12.9192 5.18961 12.9272 5.20611 12.9358C5.22261 12.9444 5.23883 12.9533 5.25486 12.9627C5.27091 12.9721 5.28683 12.9818 5.30236 12.9921C5.31789 13.0023 5.333 13.0129 5.34798 13.0239C5.36297 13.035 5.37797 13.0465 5.39236 13.0583C5.40675 13.0701 5.42108 13.0827 5.43486 13.0952C5.44862 13.1077 5.46175 13.1201 5.47486 13.1333C5.48798 13.1465 5.50056 13.1601 5.51298 13.1739C5.5254 13.1878 5.53753 13.202 5.54923 13.2164C5.56094 13.2309 5.57267 13.2458 5.58361 13.2608C5.59455 13.2759 5.6047 13.2915 5.61486 13.3071C5.625 13.3227 5.63489 13.3385 5.64423 13.3546C5.65358 13.3707 5.66261 13.3868 5.67111 13.4033C5.67961 13.4199 5.68784 13.4364 5.69548 13.4533C5.70312 13.4703 5.70997 13.4879 5.71673 13.5052C5.7235 13.5225 5.72962 13.54 5.73548 13.5577C5.74134 13.5754 5.74678 13.5929 5.75173 13.6108C5.75669 13.6288 5.76145 13.647 5.76548 13.6652ZM10.458 10.219C9.63948 10.219 8.9736 9.55358 8.9736 8.73458C8.9736 7.91558 9.63898 7.25021 10.458 7.25021C11.277 7.25021 11.9424 7.91558 11.9424 8.73458C11.9424 9.55358 11.277 10.219 10.458 10.219ZM5.53611 10.219C4.71761 10.219 4.05173 9.55358 4.05173 8.73458C4.05173 7.91558 4.71711 7.25021 5.53611 7.25021C6.35511 7.25021 7.02048 7.91558 7.02048 8.73458C7.02048 9.55358 6.35511 10.219 5.53611 10.219ZM10.458 7.40645C11.191 7.40645 11.7861 8.00208 11.7861 8.73458C11.7861 9.46708 11.1905 10.0627 10.458 10.0627C9.72548 10.0627 9.12985 9.46708 9.12985 8.73458C9.12985 8.00208 9.72548 7.40645 10.458 7.40645ZM5.53611 7.40645C6.26911 7.40645 6.86423 8.00208 6.86423 8.73458C6.86423 9.46708 6.26861 10.0627 5.53611 10.0627C4.80361 10.0627 4.20798 9.46708 4.20798 8.73458C4.20798 8.00208 4.80511 7.40645 5.53611 7.40645ZM4.79673 12.9733C4.80503 12.9742 4.81347 12.9754 4.82173 12.9764C4.83002 12.9775 4.8385 12.9783 4.84673 12.9796C4.85498 12.9809 4.86291 12.9824 4.87111 12.9839C4.87931 12.9854 4.88795 12.9872 4.89611 12.9889C4.90428 12.9907 4.91237 12.9926 4.92048 12.9946C4.92859 12.9965 4.9368 12.9987 4.94486 13.0008C4.95292 13.003 4.96061 13.0047 4.96861 13.0071C4.97661 13.0094 4.98444 13.012 4.99236 13.0146C5.0003 13.0172 5.00825 13.0199 5.01611 13.0227C5.02397 13.0255 5.03206 13.0284 5.03986 13.0314C5.04764 13.0344 5.05528 13.0376 5.06298 13.0408C5.07069 13.044 5.0785 13.0474 5.08611 13.0508C5.09372 13.0542 5.10109 13.0578 5.10861 13.0614C5.11612 13.0651 5.12369 13.0689 5.13111 13.0727C5.13853 13.0765 5.14567 13.0799 5.15298 13.0839C5.1603 13.0879 5.16766 13.0922 5.17486 13.0964C5.18206 13.1007 5.18903 13.1052 5.19611 13.1096C5.2032 13.114 5.21041 13.1181 5.21736 13.1227C5.22433 13.1273 5.23114 13.1323 5.23798 13.1371C5.24483 13.1418 5.25191 13.1465 5.25861 13.1514C5.26533 13.1564 5.27203 13.1619 5.27861 13.1671C5.28519 13.1722 5.29155 13.1774 5.29798 13.1827C5.30442 13.188 5.31044 13.1928 5.31673 13.1983C5.32303 13.2038 5.32934 13.2095 5.33548 13.2152C5.34162 13.2208 5.34762 13.2269 5.35361 13.2327C5.35959 13.2385 5.36591 13.2442 5.37173 13.2502C5.37756 13.2562 5.38294 13.2622 5.38861 13.2683C5.39428 13.2744 5.39998 13.2808 5.40548 13.2871C5.411 13.2933 5.41641 13.2994 5.42173 13.3058C5.42706 13.3122 5.4322 13.3186 5.43736 13.3252C5.44253 13.3317 5.448 13.3385 5.45298 13.3452C5.45797 13.3519 5.46256 13.3584 5.46736 13.3652C5.35036 13.3092 5.23619 13.2489 5.12423 13.1833C5.0123 13.1178 4.90284 13.0473 4.79673 12.9727M11.1967 12.9733C11.0908 13.0482 10.9824 13.1184 10.8705 13.1839C10.7585 13.2495 10.6439 13.3101 10.5267 13.3658C10.5315 13.359 10.5361 13.3525 10.5411 13.3458C10.5461 13.3391 10.5509 13.3324 10.5561 13.3258C10.5613 13.3193 10.567 13.3129 10.5724 13.3064C10.5777 13.3 10.5831 13.2933 10.5886 13.2871C10.5941 13.2808 10.5992 13.2751 10.6049 13.2689C10.6105 13.2628 10.6165 13.2568 10.6224 13.2508C10.6282 13.2449 10.6339 13.2385 10.6399 13.2327C10.6458 13.2269 10.6525 13.2215 10.6586 13.2158C10.6647 13.2102 10.6704 13.2044 10.6767 13.1989C10.683 13.1935 10.6897 13.188 10.6961 13.1827C10.7025 13.1774 10.7089 13.1722 10.7155 13.1671C10.7221 13.1619 10.7288 13.157 10.7355 13.1521C10.7422 13.1471 10.7493 13.1425 10.7561 13.1377C10.7629 13.1329 10.7698 13.1279 10.7767 13.1233C10.7837 13.1187 10.7903 13.1146 10.7974 13.1102C10.8044 13.1058 10.812 13.1013 10.8192 13.0971C10.8264 13.0929 10.8338 13.0886 10.8411 13.0846C10.8484 13.0805 10.8556 13.0765 10.863 13.0727C10.8704 13.0689 10.878 13.0651 10.8855 13.0614C10.893 13.0578 10.9004 13.0549 10.908 13.0514C10.9156 13.048 10.9234 13.0447 10.9311 13.0414C10.9388 13.0382 10.9464 13.0351 10.9542 13.0321C10.962 13.0291 10.9701 13.0261 10.978 13.0233C10.9858 13.0205 10.9932 13.0178 11.0011 13.0152C11.009 13.0126 11.0175 13.0101 11.0255 13.0077C11.0335 13.0053 11.0412 13.003 11.0492 13.0008C11.0573 12.9987 11.0655 12.9965 11.0736 12.9946C11.0817 12.9926 11.0898 12.9913 11.098 12.9896C11.1061 12.9879 11.1141 12.9861 11.1224 12.9846C11.1306 12.9831 11.1391 12.9815 11.1474 12.9802C11.1556 12.9789 11.1641 12.9781 11.1724 12.9771C11.1806 12.976 11.1884 12.9748 11.1967 12.9739M10.458 7.09396C10.4311 7.09396 10.4041 7.09452 10.3774 7.09583C10.3505 7.09714 10.3241 7.09945 10.2974 7.10208C10.2706 7.1047 10.2439 7.10752 10.2174 7.11145C10.1908 7.11538 10.1643 7.11996 10.138 7.12521C10.1117 7.13042 10.0853 7.1368 10.0592 7.14333C10.0332 7.14983 10.0074 7.15678 9.98173 7.16458C9.95604 7.17236 9.93074 7.18053 9.90548 7.18958C9.88021 7.19861 9.85528 7.20869 9.83048 7.21896C9.80568 7.22922 9.78099 7.23999 9.75673 7.25145C9.73246 7.26292 9.70853 7.27505 9.68485 7.2877C9.66118 7.30035 9.63789 7.31327 9.61485 7.32708C9.59184 7.34086 9.56904 7.3553 9.54673 7.3702C9.5244 7.38511 9.50267 7.40045 9.4811 7.41645C9.45954 7.43242 9.43809 7.4488 9.41735 7.46583C9.39659 7.48285 9.37662 7.50092 9.35673 7.51895C9.33684 7.53697 9.31696 7.55497 9.29798 7.57395C9.27899 7.59292 9.26099 7.61281 9.24298 7.6327C9.22495 7.65258 9.20689 7.67258 9.18985 7.69333C9.17282 7.71406 9.15646 7.73552 9.14048 7.75708C9.12449 7.77863 9.10915 7.80039 9.09423 7.8227C9.07931 7.84502 9.0649 7.8678 9.0511 7.89083C9.03731 7.91384 9.02439 7.93716 9.01173 7.96083C8.99907 7.98449 8.98696 8.00844 8.97548 8.0327C8.96399 8.05695 8.95325 8.08164 8.94298 8.10645C8.9327 8.13124 8.92265 8.15617 8.9136 8.18145C8.90456 8.20672 8.8964 8.23202 8.8886 8.2577C8.88081 8.28339 8.87326 8.30917 8.86673 8.3352C8.86021 8.36123 8.85446 8.38762 8.84923 8.41395C8.84399 8.44027 8.83943 8.46678 8.83548 8.49333C8.83154 8.51987 8.82812 8.54598 8.82548 8.5727C8.82284 8.59941 8.82118 8.62652 8.81985 8.65333C8.81853 8.68012 8.81798 8.70711 8.81798 8.73395C8.81798 8.7608 8.81854 8.78714 8.81985 8.81395C8.82117 8.84076 8.82285 8.86786 8.82548 8.89458C8.8281 8.92128 8.83154 8.94802 8.83548 8.97458C8.8394 9.00112 8.84399 9.02762 8.84923 9.05395C8.85446 9.08027 8.86021 9.10603 8.86673 9.13208C8.87325 9.15811 8.88018 9.18389 8.88798 9.20958C8.89576 9.23526 8.90456 9.26117 8.9136 9.28645C8.92265 9.31172 8.93209 9.33664 8.94235 9.36145C8.95262 9.38623 8.96338 9.41092 8.97485 9.4352C8.98634 9.45945 8.99846 9.48339 9.0111 9.50708C9.02374 9.53073 9.03731 9.55405 9.0511 9.57708C9.0649 9.60011 9.07932 9.62289 9.09423 9.6452C9.10914 9.66751 9.12449 9.68926 9.14048 9.71083C9.15646 9.73239 9.17282 9.7532 9.18985 9.77395C9.20687 9.7947 9.22434 9.81531 9.24235 9.8352C9.26037 9.85508 9.27899 9.87433 9.29798 9.89333C9.31695 9.9123 9.33621 9.93092 9.3561 9.94895C9.37599 9.96698 9.3966 9.98442 9.41735 10.0015C9.43809 10.0185 9.45892 10.0348 9.48048 10.0508C9.50203 10.0668 9.52379 10.0828 9.5461 10.0977C9.56842 10.1126 9.59121 10.127 9.61423 10.1408C9.63724 10.1546 9.66056 10.1675 9.68423 10.1802C9.7079 10.1929 9.73184 10.205 9.7561 10.2165C9.78037 10.2279 9.80506 10.2387 9.82985 10.249C9.85465 10.2592 9.87959 10.2693 9.90485 10.2783C9.93012 10.2874 9.95606 10.2955 9.98173 10.3033C10.0074 10.3111 10.0332 10.318 10.0592 10.3246C10.0853 10.3311 10.111 10.3375 10.1374 10.3427C10.1637 10.3479 10.1902 10.3525 10.2167 10.3565C10.2433 10.3604 10.27 10.3632 10.2967 10.3658C10.3234 10.3685 10.3499 10.3707 10.3767 10.3721C10.4035 10.3734 10.4305 10.374 10.4574 10.374C10.4842 10.374 10.5112 10.3734 10.538 10.3721C10.5648 10.3708 10.5913 10.3685 10.618 10.3658C10.6447 10.3632 10.6714 10.3604 10.698 10.3565C10.7245 10.3525 10.751 10.3479 10.7774 10.3427C10.8037 10.3375 10.8301 10.3317 10.8561 10.3252C10.8821 10.3187 10.9079 10.3111 10.9336 10.3033C10.9593 10.2955 10.9846 10.2874 11.0099 10.2783C11.0351 10.2693 11.0601 10.2598 11.0849 10.2496C11.1096 10.2393 11.1343 10.2279 11.1586 10.2165C11.1829 10.205 11.2068 10.1928 11.2305 10.1802C11.2541 10.1675 11.2774 10.1546 11.3005 10.1408C11.3235 10.127 11.3463 10.1126 11.3686 10.0977C11.3909 10.0828 11.4127 10.0674 11.4342 10.0515C11.4558 10.0355 11.4772 10.0191 11.498 10.0021C11.5187 9.98505 11.5387 9.96759 11.5586 9.94958C11.5785 9.93155 11.5984 9.91292 11.6174 9.89395C11.6363 9.87498 11.655 9.8557 11.673 9.83583C11.691 9.81594 11.7084 9.79533 11.7255 9.77458C11.7425 9.75383 11.7589 9.73301 11.7749 9.71145C11.7908 9.68989 11.8062 9.66751 11.8211 9.6452C11.836 9.62289 11.8504 9.60009 11.8642 9.57708C11.878 9.55405 11.8916 9.53073 11.9042 9.50708C11.9169 9.48341 11.929 9.45945 11.9405 9.4352C11.952 9.41092 11.9627 9.38686 11.973 9.36208C11.9833 9.33728 11.9927 9.31172 12.0017 9.28645C12.0108 9.26117 12.0196 9.23587 12.0274 9.2102C12.0351 9.18451 12.0421 9.15873 12.0486 9.1327C12.0551 9.10666 12.0609 9.08027 12.0661 9.05395C12.0713 9.02762 12.0759 9.00173 12.0799 8.9752C12.0838 8.94864 12.0872 8.92191 12.0899 8.8952C12.0925 8.86848 12.0941 8.84139 12.0955 8.81458C12.0968 8.78777 12.098 8.7608 12.098 8.73395C12.098 8.70711 12.0968 8.68075 12.0955 8.65395C12.0942 8.62714 12.0925 8.60003 12.0899 8.57333C12.0872 8.54661 12.0838 8.51987 12.0799 8.49333C12.0759 8.46677 12.0713 8.44089 12.0661 8.41458C12.0609 8.38825 12.0551 8.36186 12.0486 8.33583C12.0421 8.3098 12.0351 8.28402 12.0274 8.25833C12.0196 8.23264 12.0108 8.20672 12.0017 8.18145C11.9927 8.15617 11.9832 8.13125 11.973 8.10645C11.9627 8.08166 11.9519 8.05759 11.9405 8.03333C11.929 8.00906 11.9169 7.9845 11.9042 7.96083C11.8916 7.93716 11.878 7.91386 11.8642 7.89083C11.8504 7.8678 11.8366 7.84564 11.8217 7.82333C11.8068 7.801 11.7908 7.77864 11.7749 7.75708C11.7589 7.73552 11.7425 7.7147 11.7255 7.69395C11.7085 7.6732 11.691 7.65258 11.673 7.6327C11.655 7.61281 11.6363 7.59356 11.6174 7.57458C11.5984 7.55559 11.5791 7.53699 11.5592 7.51895C11.5393 7.50092 11.5194 7.48349 11.4986 7.46645C11.4779 7.44942 11.4564 7.43306 11.4349 7.41708C11.4133 7.40108 11.3915 7.38574 11.3692 7.37083C11.3469 7.35591 11.3241 7.3415 11.3011 7.3277C11.2781 7.31389 11.2548 7.30036 11.2311 7.2877C11.2074 7.27505 11.1835 7.26292 11.1592 7.25145C11.135 7.23997 11.1103 7.22922 11.0855 7.21896C11.0607 7.20867 11.0357 7.19924 11.0105 7.19021C10.9852 7.18116 10.9599 7.17238 10.9342 7.16458C10.9085 7.15678 10.8828 7.14986 10.8567 7.14333C10.8307 7.1368 10.8043 7.13106 10.778 7.12583C10.7516 7.12058 10.7251 7.11602 10.6986 7.11208C10.6721 7.10814 10.6453 7.1047 10.6186 7.10208C10.5919 7.09944 10.5654 7.09714 10.5386 7.09583C10.5118 7.0945 10.4848 7.09396 10.458 7.09396ZM5.53611 7.09396C5.50926 7.09396 5.48228 7.09452 5.45548 7.09583C5.42867 7.09714 5.40219 7.09945 5.37548 7.10208C5.34878 7.1047 5.32203 7.10752 5.29548 7.11145C5.26894 7.11538 5.24244 7.11996 5.21611 7.12521C5.18978 7.13042 5.16341 7.1368 5.13736 7.14333C5.11133 7.14983 5.08555 7.15678 5.05986 7.16458C5.03417 7.17236 5.00887 7.18055 4.98361 7.18958C4.95834 7.19861 4.93341 7.20867 4.90861 7.21896C4.88381 7.2292 4.85912 7.23999 4.83486 7.25145C4.81059 7.26292 4.78666 7.27505 4.76298 7.2877C4.73931 7.30035 4.71601 7.31327 4.69298 7.32708C4.66997 7.34086 4.64717 7.3553 4.62486 7.3702C4.60253 7.38511 4.5808 7.40045 4.55923 7.41645C4.53767 7.43242 4.51623 7.4488 4.49548 7.46583C4.47473 7.48285 4.45475 7.50092 4.43486 7.51895C4.41497 7.53697 4.39509 7.55497 4.37611 7.57395C4.35713 7.59292 4.3385 7.61281 4.32048 7.6327C4.30245 7.65258 4.28502 7.67258 4.26798 7.69333C4.25095 7.71406 4.23459 7.73552 4.21861 7.75708C4.20263 7.77863 4.18728 7.80039 4.17236 7.8227C4.15744 7.84502 4.14303 7.8678 4.12923 7.89083C4.11544 7.91384 4.10189 7.93716 4.08923 7.96083C4.07658 7.98449 4.06509 8.00844 4.05361 8.0327C4.04213 8.05695 4.03075 8.08164 4.02048 8.10645C4.0102 8.13124 4.00078 8.15617 3.99173 8.18145C3.98269 8.20672 3.97453 8.23202 3.96673 8.2577C3.95894 8.28339 3.95139 8.30917 3.94486 8.3352C3.93834 8.36123 3.93259 8.38762 3.92736 8.41395C3.92213 8.44027 3.91756 8.46678 3.91361 8.49333C3.90967 8.51987 3.90625 8.54598 3.90361 8.5727C3.90097 8.59941 3.89931 8.62652 3.89798 8.65333C3.89666 8.68012 3.89548 8.70711 3.89548 8.73395C3.89548 8.7608 3.89667 8.78714 3.89798 8.81395C3.8993 8.84076 3.90099 8.86786 3.90361 8.89458C3.90623 8.92128 3.90967 8.94802 3.91361 8.97458C3.91753 9.00112 3.92213 9.02762 3.92736 9.05395C3.93259 9.08027 3.93834 9.10603 3.94486 9.13208C3.95138 9.15811 3.95831 9.18389 3.96611 9.20958C3.97389 9.23526 3.98269 9.26117 3.99173 9.28645C4.00078 9.31172 4.01022 9.33664 4.02048 9.36145C4.03075 9.38623 4.04152 9.41092 4.05298 9.4352C4.06447 9.45945 4.07659 9.48339 4.08923 9.50708C4.10188 9.53073 4.11544 9.55405 4.12923 9.57708C4.14303 9.60009 4.15683 9.62289 4.17173 9.6452C4.18664 9.66751 4.20263 9.68926 4.21861 9.71083C4.23459 9.73239 4.25095 9.7532 4.26798 9.77395C4.285 9.7947 4.30247 9.81531 4.32048 9.8352C4.3385 9.85508 4.35713 9.87433 4.37611 9.89333C4.39508 9.9123 4.41434 9.93092 4.43423 9.94895C4.45412 9.96698 4.47411 9.98442 4.49486 10.0015C4.51559 10.0185 4.53705 10.0348 4.55861 10.0508C4.58016 10.0668 4.60192 10.0828 4.62423 10.0977C4.64655 10.1126 4.66934 10.127 4.69236 10.1408C4.71537 10.1546 4.73869 10.1675 4.76236 10.1802C4.78603 10.1929 4.80997 10.205 4.83423 10.2165C4.8585 10.2279 4.88319 10.2387 4.90798 10.249C4.93278 10.2592 4.95772 10.2693 4.98298 10.2783C5.00825 10.2874 5.03356 10.2955 5.05923 10.3033C5.08492 10.3111 5.1107 10.318 5.13673 10.3246C5.16278 10.3311 5.18916 10.3375 5.21548 10.3427C5.24181 10.3479 5.26831 10.3525 5.29486 10.3565C5.32141 10.3604 5.34816 10.3632 5.37486 10.3658C5.40156 10.3685 5.42805 10.3707 5.45486 10.3721C5.48166 10.3734 5.50864 10.374 5.53548 10.374C5.56233 10.374 5.58931 10.3734 5.61611 10.3721C5.64292 10.3708 5.6694 10.3685 5.69611 10.3658C5.72281 10.3632 5.74956 10.3604 5.77611 10.3565C5.80265 10.3525 5.82915 10.3479 5.85548 10.3427C5.88181 10.3375 5.90819 10.3317 5.93423 10.3252C5.96026 10.3187 5.98604 10.3111 6.01173 10.3033C6.03742 10.2955 6.06272 10.2874 6.08798 10.2783C6.11325 10.2693 6.13819 10.2592 6.16298 10.249C6.18778 10.2387 6.21247 10.2279 6.23673 10.2165C6.261 10.205 6.28494 10.1928 6.30861 10.1802C6.33228 10.1675 6.35559 10.1546 6.37861 10.1408C6.40164 10.127 6.42442 10.1126 6.44673 10.0977C6.46906 10.0828 6.49079 10.0674 6.51236 10.0515C6.53392 10.0355 6.55536 10.0191 6.57611 10.0021C6.59686 9.98505 6.61684 9.96759 6.63673 9.94958C6.65662 9.93155 6.6765 9.91292 6.69548 9.89395C6.71447 9.87498 6.73247 9.8557 6.75048 9.83583C6.76851 9.81594 6.78658 9.79533 6.80361 9.77458C6.82064 9.75383 6.837 9.73301 6.85298 9.71145C6.86897 9.68989 6.88431 9.66751 6.89923 9.6452C6.91415 9.62289 6.92856 9.60009 6.94236 9.57708C6.95615 9.55405 6.96908 9.53073 6.98173 9.50708C6.99439 9.48341 7.0065 9.45945 7.01798 9.4352C7.02947 9.41092 7.04084 9.38686 7.05111 9.36208C7.06139 9.33728 7.07081 9.31172 7.07986 9.28645C7.0889 9.26117 7.09706 9.23587 7.10486 9.2102C7.11265 9.18451 7.1202 9.15873 7.12673 9.1327C7.13325 9.10666 7.139 9.08027 7.14423 9.05395C7.14947 9.02762 7.15403 9.00173 7.15798 8.9752C7.16192 8.94864 7.16534 8.92191 7.16798 8.8952C7.17062 8.86848 7.17228 8.84139 7.17361 8.81458C7.17493 8.78777 7.17548 8.7608 7.17548 8.73395C7.17548 8.70711 7.17492 8.68075 7.17361 8.65395C7.17229 8.62714 7.17061 8.60003 7.16798 8.57333C7.16536 8.54661 7.16192 8.51987 7.15798 8.49333C7.15406 8.46677 7.14947 8.44089 7.14423 8.41458C7.139 8.38825 7.13325 8.36186 7.12673 8.33583C7.12022 8.3098 7.11328 8.28402 7.10548 8.25833C7.09768 8.23264 7.08889 8.20672 7.07986 8.18145C7.07081 8.15617 7.06137 8.13125 7.05111 8.10645C7.04084 8.08166 7.03008 8.05759 7.01861 8.03333C7.00712 8.00906 6.995 7.9845 6.98236 7.96083C6.96972 7.93716 6.95615 7.91386 6.94236 7.89083C6.92856 7.8678 6.91414 7.84564 6.89923 7.82333C6.88433 7.801 6.86897 7.77864 6.85298 7.75708C6.837 7.73552 6.82064 7.7147 6.80361 7.69395C6.78659 7.6732 6.76912 7.65258 6.75111 7.6327C6.73309 7.61281 6.71447 7.59356 6.69548 7.57458C6.67651 7.55559 6.65725 7.53699 6.63736 7.51895C6.61747 7.50092 6.59686 7.48349 6.57611 7.46645C6.55537 7.44942 6.53454 7.43306 6.51298 7.41708C6.49144 7.40108 6.46967 7.38574 6.44736 7.37083C6.42504 7.35591 6.40225 7.3415 6.37923 7.3277C6.35622 7.31389 6.3329 7.30036 6.30923 7.2877C6.28556 7.27505 6.26162 7.26292 6.23736 7.25145C6.21309 7.23997 6.1884 7.22922 6.16361 7.21896C6.13881 7.20867 6.11387 7.19924 6.08861 7.19021C6.06334 7.18114 6.03803 7.17236 6.01236 7.16458C5.98667 7.15678 5.96026 7.14986 5.93423 7.14333C5.90819 7.1368 5.88244 7.13106 5.85611 7.12583C5.82978 7.12058 5.80328 7.11602 5.77673 7.11208C5.75019 7.10814 5.72344 7.1047 5.69673 7.10208C5.67003 7.09944 5.64355 7.09714 5.61673 7.09583C5.58994 7.0945 5.56295 7.09396 5.53611 7.09396ZM11.2892 12.6564C11.2689 12.6564 11.2483 12.6573 11.228 12.6583C11.2077 12.6593 11.1876 12.6607 11.1674 12.6627C11.1471 12.6647 11.1268 12.6672 11.1067 12.6702C11.0866 12.6732 11.0666 12.6762 11.0467 12.6802C11.0268 12.6842 11.0071 12.689 10.9874 12.6939C10.9676 12.6989 10.948 12.7043 10.9286 12.7102C10.9092 12.7161 10.8902 12.7221 10.8711 12.7289C10.852 12.7358 10.833 12.7437 10.8142 12.7514C10.7955 12.7592 10.777 12.7671 10.7586 12.7758C10.7402 12.7845 10.7221 12.7938 10.7042 12.8033C10.6863 12.8129 10.6685 12.8229 10.6511 12.8333C10.6337 12.8438 10.6167 12.8545 10.5999 12.8658C10.583 12.8771 10.5662 12.8887 10.5499 12.9008C10.5335 12.9129 10.5174 12.9254 10.5017 12.9383C10.486 12.9512 10.4705 12.9647 10.4555 12.9783C10.4404 12.9919 10.4261 13.0059 10.4117 13.0202C10.3974 13.0345 10.3835 13.0489 10.3699 13.0639C10.3562 13.079 10.3427 13.0945 10.3299 13.1102C10.317 13.1259 10.3045 13.142 10.2924 13.1583C10.2802 13.1746 10.2687 13.1908 10.2574 13.2077C10.2461 13.2246 10.2347 13.2422 10.2242 13.2596C10.2138 13.277 10.2038 13.2942 10.1942 13.3121C10.1846 13.33 10.1754 13.3481 10.1667 13.3664C10.158 13.3848 10.1502 13.4033 10.1424 13.4221C10.1346 13.4408 10.1273 13.4598 10.1205 13.4789C10.1136 13.4981 10.107 13.5177 10.1011 13.5371C10.0952 13.5565 10.0898 13.5761 10.0849 13.5958C10.0799 13.6155 10.0751 13.6353 10.0711 13.6552C10.0671 13.6751 10.0635 13.6951 10.0605 13.7152C10.0575 13.7353 10.055 13.755 10.053 13.7752C10.051 13.7954 10.0497 13.8155 10.0486 13.8358C10.0476 13.8561 10.0467 13.8768 10.0467 13.8971C10.1361 13.8673 10.2247 13.8354 10.3124 13.8008C10.4 13.7663 10.4867 13.7289 10.5724 13.6896C10.658 13.6503 10.7421 13.6091 10.8255 13.5652C10.9088 13.5213 10.9909 13.4748 11.0717 13.4264C11.1451 13.3828 11.2178 13.3373 11.2886 13.2896C11.3594 13.2418 11.4287 13.1919 11.4967 13.1402C11.5647 13.0885 11.6312 13.0351 11.6961 12.9796C11.7611 12.9241 11.8244 12.8668 11.8861 12.8077C11.8633 12.7954 11.8403 12.7836 11.8167 12.7727C11.7932 12.7618 11.769 12.7515 11.7449 12.7421C11.7207 12.7326 11.6964 12.7237 11.6717 12.7158C11.647 12.7079 11.6219 12.7009 11.5967 12.6946C11.5716 12.6882 11.5466 12.6825 11.5211 12.6777C11.4956 12.6729 11.47 12.669 11.4442 12.6658C11.4185 12.6626 11.3926 12.6599 11.3667 12.6583C11.3408 12.6567 11.3152 12.6558 11.2892 12.6558L11.2892 12.6564ZM4.70423 12.6564C4.49173 12.6564 4.28736 12.7111 4.10736 12.8096C4.16923 12.8684 4.23297 12.9254 4.29798 12.9808C4.36302 13.0362 4.42937 13.0897 4.49736 13.1414C4.56534 13.1931 4.63475 13.2429 4.70548 13.2908C4.77622 13.3387 4.84845 13.3844 4.92173 13.4283C5.00269 13.4764 5.08459 13.5227 5.16798 13.5664C5.25137 13.6102 5.33614 13.6515 5.42173 13.6908C5.50734 13.7301 5.59356 13.7674 5.68111 13.8021C5.76867 13.8368 5.85747 13.8689 5.94673 13.8989C5.94673 13.8786 5.94587 13.8586 5.94486 13.8383C5.94384 13.818 5.9425 13.7973 5.94048 13.7771C5.93848 13.7568 5.93598 13.7372 5.93298 13.7171C5.93 13.697 5.92634 13.677 5.92236 13.6571C5.91837 13.6371 5.91419 13.6168 5.90923 13.5971C5.90428 13.5774 5.89889 13.5578 5.89298 13.5383C5.88708 13.5189 5.88047 13.4999 5.87361 13.4808C5.86675 13.4617 5.85951 13.4427 5.85173 13.4239C5.84395 13.4052 5.83544 13.3867 5.82673 13.3683C5.81803 13.3499 5.80881 13.3319 5.79923 13.3139C5.78965 13.296 5.77969 13.2782 5.76923 13.2608C5.75878 13.2434 5.74803 13.2258 5.73673 13.2089C5.72544 13.192 5.71384 13.1759 5.70173 13.1596C5.68962 13.1433 5.67712 13.1272 5.66423 13.1114C5.65134 13.0957 5.63789 13.0803 5.62423 13.0652C5.61059 13.0501 5.59672 13.0352 5.58236 13.0208C5.56798 13.0064 5.55303 12.9926 5.53798 12.9789C5.52292 12.9653 5.50806 12.9518 5.49236 12.9389C5.47666 12.926 5.46056 12.9136 5.44423 12.9014C5.42791 12.8893 5.41112 12.8777 5.39423 12.8664C5.37734 12.8552 5.36041 12.8444 5.34298 12.8339C5.32556 12.8235 5.30778 12.8135 5.28986 12.8039C5.27194 12.7944 5.25384 12.7851 5.23548 12.7764C5.21712 12.7677 5.19862 12.7599 5.17986 12.7521C5.16109 12.7443 5.14212 12.7364 5.12298 12.7296C5.10386 12.7227 5.08431 12.7167 5.06486 12.7108C5.04541 12.7049 5.02581 12.6995 5.00611 12.6946C4.98641 12.6896 4.96666 12.6848 4.94673 12.6808C4.92681 12.6768 4.90684 12.6738 4.88673 12.6708C4.86664 12.6678 4.84634 12.6653 4.82611 12.6633C4.80589 12.6613 4.78578 12.6593 4.76548 12.6583C4.74519 12.6573 4.72456 12.6571 4.70423 12.6571L4.70423 12.6564ZM7.60923 6.67208L8.3911 6.67208L8.3911 14.7658L7.60923 14.7658L7.60923 6.67208Z">
</path>
<circle cx="6" cy="9" r="1"   fill="#FFC300" >
</circle>
<circle cx="10" cy="9" r="1"   fill="#FFC300" >
</circle>
</svg>
